<?xml version="1.0" encoding="UTF-8" standalone="no"?>
<!DOCTYPE svg PUBLIC "-//W3C//DTD SVG 1.1//EN" "http://www.w3.org/Graphics/SVG/1.1/DTD/svg11.dtd">
<svg width="100%" height="100%" viewBox="0 0 96 96" version="1.1" xmlns="http://www.w3.org/2000/svg" xmlns:xlink="http://www.w3.org/1999/xlink" xml:space="preserve" xmlns:serif="http://www.serif.com/" style="fill-rule:evenodd;clip-rule:evenodd;stroke-linecap:round;stroke-linejoin:round;stroke-miterlimit:1.5;">
    <g id="resistor-american-short" transform="matrix(-0.200405,-2.45425e-17,2.45425e-17,-0.200405,116.239,125.31)">
        <path d="M354.331,377.953L354.331,401.575L330.709,413.386L377.953,437.008L330.709,460.63L377.953,484.252L330.709,507.874L377.953,531.496L354.331,543.307L354.331,566.929" style="fill:none;stroke:rgb(198,14,0);stroke-width:13.57px;"/>
    </g>
    <g id="resistor-american-short1" serif:id="resistor-american-short" transform="matrix(-0.200405,-2.45425e-17,2.45425e-17,-0.200405,116.239,160.049)">
        <path d="M354.331,377.953L354.331,401.575L330.709,413.386L377.953,437.008L330.709,460.63L377.953,484.252L330.709,507.874L377.953,531.496L354.331,543.307L354.331,566.929" style="fill:none;stroke:rgb(198,14,0);stroke-width:13.57px;"/>
    </g>
    <g transform="matrix(0.465147,0,0,1,42.3093,23.334)">
        <path d="M6.277,24.581L86.798,24.581" style="fill:none;stroke:rgb(198,14,0);stroke-width:3.65px;"/>
    </g>
    <g transform="matrix(0.396321,0,0,1,10.8293,-12.8868)">
        <path d="M6.277,24.581L86.798,24.581" style="fill:none;stroke:rgb(198,14,0);stroke-width:3.74px;"/>
    </g>
    <g transform="matrix(0.861468,0,0,1,7.90956,59.7247)">
        <path d="M6.277,24.581L86.798,24.581" style="fill:none;stroke:rgb(198,14,0);stroke-width:3.05px;"/>
    </g>
</svg>
