<?xml version="1.0" encoding="UTF-8" standalone="no"?>
<!DOCTYPE svg PUBLIC "-//W3C//DTD SVG 1.1//EN" "http://www.w3.org/Graphics/SVG/1.1/DTD/svg11.dtd">
<svg width="100%" height="100%" viewBox="0 0 355 178" version="1.1" xmlns="http://www.w3.org/2000/svg" xmlns:xlink="http://www.w3.org/1999/xlink" xml:space="preserve" xmlns:serif="http://www.serif.com/" style="fill-rule:evenodd;clip-rule:evenodd;stroke-linecap:round;stroke-linejoin:round;stroke-miterlimit:1.5;">
    <g transform="matrix(1,0,0,1,-536.349,-206.609)">
        <text x="677.227px" y="258.937px" style="font-family:'TimesNewRomanPSMT', 'Times New Roman', serif;font-size:50px;fill:rgb(234,117,0);">D1</text>
    </g>
    <g id="diode-tvs" transform="matrix(6.12323e-17,-1,1,6.12323e-17,-295.276,1535.43)">
        <g transform="matrix(1,0,0,1,708.661,0)">
            <path d="M708.661,354.331L708.661,590.551" style="fill:none;stroke:rgb(52,101,164);stroke-width:4.25px;"/>
        </g>
        <g transform="matrix(1,0,0,1,708.661,0)">
            <path d="M708.661,496.063L673.228,437.008L744.094,437.008L708.661,496.063Z" style="fill:rgb(52,101,164);stroke:rgb(52,101,164);stroke-width:4.25px;"/>
        </g>
        <g transform="matrix(1,0,0,1,-118.11,0)">
            <path d="M1505.91,496.063L1553.15,496.063" style="fill:none;stroke:rgb(52,101,164);stroke-width:4.25px;"/>
        </g>
        <g transform="matrix(1,0,0,1,-106.299,11.811)">
            <path d="M1505.91,496.063L1553.15,496.063" style="fill:none;stroke:rgb(52,101,164);stroke-width:4.25px;"/>
        </g>
        <g transform="matrix(1,0,0,1,-118.11,0)">
            <path d="M1517.72,507.874L1500,490.157" style="fill:none;stroke:rgb(52,101,164);stroke-width:4.25px;"/>
        </g>
        <g transform="matrix(1,0,0,1,-118.11,0)">
            <path d="M1553.15,496.063L1570.87,513.78" style="fill:none;stroke:rgb(52,101,164);stroke-width:4.25px;"/>
        </g>
    </g>
</svg>
