<?xml version="1.0" encoding="UTF-8" standalone="no"?>
<!DOCTYPE svg PUBLIC "-//W3C//DTD SVG 1.1//EN" "http://www.w3.org/Graphics/SVG/1.1/DTD/svg11.dtd">
<svg width="100%" height="100%" viewBox="0 0 1182 237" version="1.1" xmlns="http://www.w3.org/2000/svg" xmlns:xlink="http://www.w3.org/1999/xlink" xml:space="preserve" xmlns:serif="http://www.serif.com/" style="fill-rule:evenodd;clip-rule:evenodd;stroke-linecap:round;stroke-linejoin:round;stroke-miterlimit:1.5;">
    <g transform="matrix(1,0,0,1,-313.178,-137.498)">
        <text x="677.227px" y="258.937px" style="font-family:'ArialMT', 'Arial', sans-serif;font-size:50px;fill:rgb(234,117,0);">Y</text>
    </g>
    <g transform="matrix(1,0,0,1,78.5318,-135.1)">
        <text x="677.227px" y="258.937px" style="font-family:'ArialMT', 'Arial', sans-serif;font-size:50px;fill:rgb(234,117,0);">Y</text>
    </g>
    <g transform="matrix(1,0,0,1,392.834,-134.384)">
        <text x="677.227px" y="258.937px" style="font-family:'ArialMT', 'Arial', sans-serif;font-size:50px;fill:rgb(234,117,0);">Y</text>
    </g>
    <g transform="matrix(1,0,0,1,-611.225,-170.354)">
        <text x="677.227px" y="258.937px" style="font-family:'ArialMT', 'Arial', sans-serif;font-size:50px;fill:rgb(234,117,0);">A</text>
    </g>
    <g transform="matrix(1,0,0,1,-216.524,-170.175)">
        <text x="677.227px" y="258.937px" style="font-family:'ArialMT', 'Arial', sans-serif;font-size:50px;fill:rgb(234,117,0);">A</text>
    </g>
    <g transform="matrix(1,0,0,1,168.303,-170.175)">
        <text x="677.227px" y="258.937px" style="font-family:'ArialMT', 'Arial', sans-serif;font-size:50px;fill:rgb(234,117,0);">A</text>
    </g>
    <g transform="matrix(1,0,0,1,-555.215,-51.8828)">
        <text x="677.227px" y="258.937px" style="font-family:'ArialMT', 'Arial', sans-serif;font-size:33.333px;">MIL-STD-806B</text>
    </g>
    <g transform="matrix(1,0,0,1,-130.8,-51.8828)">
        <text x="677.227px" y="258.937px" style="font-family:'ArialMT', 'Arial', sans-serif;font-size:33.333px;">IEC 60617</text>
    </g>
    <g transform="matrix(1,0,0,1,188.097,-51.8828)">
        <text x="677.227px" y="258.937px" style="font-family:'ArialMT', 'Arial', sans-serif;font-size:33.333px;">DIN 40700-24</text>
    </g>
    <g transform="matrix(1,0,0,1,-610.855,-102.968)">
        <text x="677.227px" y="258.937px" style="font-family:'ArialMT', 'Arial', sans-serif;font-size:50px;fill:rgb(234,117,0);">B</text>
    </g>
    <g transform="matrix(1,0,0,1,-213.79,-99.3089)">
        <text x="677.227px" y="258.937px" style="font-family:'ArialMT', 'Arial', sans-serif;font-size:50px;fill:rgb(234,117,0);">B</text>
    </g>
    <g transform="matrix(1,0,0,1,171.037,-99.3089)">
        <text x="677.227px" y="258.937px" style="font-family:'ArialMT', 'Arial', sans-serif;font-size:50px;fill:rgb(234,117,0);">B</text>
    </g>
    <g id="gate-nand" transform="matrix(1,0,0,1,-590.551,-1606.3)">
        <g transform="matrix(1,0,0,1,-59.0551,236.22)">
            <path d="M885.827,1417.32C918.42,1417.32 944.882,1443.79 944.882,1476.38C944.882,1508.97 918.42,1535.43 885.827,1535.43" style="fill:none;stroke:rgb(52,101,164);stroke-width:4.25px;"/>
        </g>
        <g transform="matrix(1,0,0,1,-118.11,236.22)">
            <path d="M885.827,1417.32L885.827,1535.43" style="fill:none;stroke:rgb(52,101,164);stroke-width:4.25px;"/>
        </g>
        <g transform="matrix(1,0,0,1,-59.0551,236.22)">
            <path d="M826.772,1417.32L885.827,1417.32" style="fill:none;stroke:rgb(52,101,164);stroke-width:4.25px;"/>
        </g>
        <g transform="matrix(1,0,0,1,-59.0551,236.22)">
            <path d="M826.772,1535.43L885.827,1535.43" style="fill:none;stroke:rgb(52,101,164);stroke-width:4.25px;"/>
        </g>
        <g transform="matrix(1,0,0,1,-59.0551,236.22)">
            <path d="M826.772,1440.94L767.717,1440.94" style="fill:none;stroke:rgb(52,101,164);stroke-width:4.25px;"/>
        </g>
        <g transform="matrix(1,0,0,1,-59.0551,236.22)">
            <path d="M826.772,1511.81L767.717,1511.81" style="fill:none;stroke:rgb(52,101,164);stroke-width:4.25px;"/>
        </g>
        <g transform="matrix(0.6,0,0,1,342.52,236.22)">
            <path d="M944.882,1476.38L1003.94,1476.38" style="fill:none;stroke:rgb(52,101,164);stroke-width:5.15px;"/>
        </g>
        <g id="terminal-center" transform="matrix(1,0,0,1,354.331,992.07)">
            <ellipse cx="543.307" cy="720.5" rx="11.811" ry="11.783" style="fill:none;stroke:rgb(52,101,164);stroke-width:4.25px;"/>
        </g>
    </g>
    <g id="gate-nand-iec" transform="matrix(1,0,0,1,-555.118,-1606.3)">
        <g transform="matrix(1,0,0,1,483.849,1417.48)">
            <text x="677.227px" y="292.237px" style="font-family:'ArialMT', 'Arial', sans-serif;font-size:58.3px;fill:rgb(52,101,164);">&amp;</text>
        </g>
        <g transform="matrix(1,0,0,1,649.606,-708.661)">
            <rect x="472.441" y="2362.2" width="118.11" height="118.11" style="fill:none;stroke:rgb(52,101,164);stroke-width:4.25px;"/>
        </g>
        <g transform="matrix(1,0,0,1,649.606,-708.661)">
            <path d="M472.441,2385.83L413.386,2385.83" style="fill:none;stroke:rgb(52,101,164);stroke-width:4.25px;"/>
        </g>
        <g transform="matrix(1,0,0,1,649.606,-708.661)">
            <path d="M472.441,2456.69L413.386,2456.69" style="fill:none;stroke:rgb(52,101,164);stroke-width:4.25px;"/>
        </g>
        <g transform="matrix(1,0,0,1,649.606,-673.228)">
            <path d="M590.551,2385.83L649.606,2385.83" style="fill:none;stroke:rgb(52,101,164);stroke-width:4.25px;"/>
        </g>
        <path d="M1240.16,1677.16L1275.59,1712.6" style="fill:none;stroke:rgb(52,101,164);stroke-width:4.25px;"/>
    </g>
    <g id="gate-nand-din" transform="matrix(1,0,0,1,-531.496,-1606.3)">
        <g id="connection-center" transform="matrix(1,0,0,1,1051.18,1015.75)">
            <circle cx="484.252" cy="696.85" r="11.811" style="fill:rgb(52,101,164);stroke:rgb(52,101,164);stroke-width:4.25px;"/>
        </g>
        <g transform="matrix(1,0,0,1,708.661,-1181.1)">
            <path d="M767.717,2834.65C800.31,2834.65 826.772,2861.11 826.772,2893.7C826.772,2926.29 800.31,2952.76 767.717,2952.76" style="fill:none;stroke:rgb(52,101,164);stroke-width:4.25px;"/>
        </g>
        <g transform="matrix(1,0,0,1,708.661,-1181.1)">
            <path d="M767.717,2834.65L767.717,2952.76" style="fill:none;stroke:rgb(52,101,164);stroke-width:4.25px;"/>
        </g>
        <g transform="matrix(1,0,0,1,708.661,-1181.1)">
            <path d="M826.772,2893.7L885.827,2893.7" style="fill:none;stroke:rgb(52,101,164);stroke-width:4.25px;"/>
        </g>
        <g transform="matrix(1,0,0,1,708.661,-1181.1)">
            <path d="M767.717,2858.27L708.661,2858.27" style="fill:none;stroke:rgb(52,101,164);stroke-width:4.25px;"/>
        </g>
        <g transform="matrix(1,0,0,1,708.661,-1181.1)">
            <path d="M767.717,2929.13L708.661,2929.13" style="fill:none;stroke:rgb(52,101,164);stroke-width:4.25px;"/>
        </g>
    </g>
</svg>
