<?xml version="1.0" encoding="UTF-8" standalone="no"?>
<!DOCTYPE svg PUBLIC "-//W3C//DTD SVG 1.1//EN" "http://www.w3.org/Graphics/SVG/1.1/DTD/svg11.dtd">
<svg width="100%" height="100%" viewBox="0 0 1182 355" version="1.1" xmlns="http://www.w3.org/2000/svg" xmlns:xlink="http://www.w3.org/1999/xlink" xml:space="preserve" xmlns:serif="http://www.serif.com/" style="fill-rule:evenodd;clip-rule:evenodd;stroke-linecap:round;stroke-linejoin:round;stroke-miterlimit:1.5;">
    <g transform="matrix(1,0,0,1,432.863,-63.8759)">
        <text x="677.227px" y="258.937px" style="font-family:'ArialMT', 'Arial', sans-serif;font-size:50px;fill:rgb(234,117,0);">Y</text>
    </g>
    <g transform="matrix(1,0,0,1,-627.973,-181.986)">
        <text x="677.227px" y="258.937px" style="font-family:'ArialMT', 'Arial', sans-serif;font-size:50px;fill:rgb(234,117,0);">A</text>
    </g>
    <g transform="matrix(1,0,0,1,-625.239,54.2344)">
        <text x="677.227px" y="258.937px" style="font-family:'ArialMT', 'Arial', sans-serif;font-size:50px;fill:rgb(234,117,0);">B</text>
    </g>
    <g transform="matrix(1,0,0,1,271.654,-236.22)">
        <path d="M354.331,330.709L354.331,377.953" style="fill:none;stroke:rgb(52,101,164);stroke-width:4.17px;"/>
    </g>
    <g transform="matrix(1,0,0,1,271.654,-236.22)">
        <path d="M354.331,496.063L354.331,448.819" style="fill:none;stroke:rgb(52,101,164);stroke-width:4.17px;"/>
    </g>
    <g transform="matrix(1.75,0,0,1,11.811,-236.22)">
        <path d="M94.488,295.276L47.244,295.276" style="fill:none;stroke:rgb(52,101,164);stroke-width:2.92px;"/>
    </g>
    <g id="connection-center" transform="matrix(1,0,0,1,-330.709,-637.795)">
        <circle cx="484.252" cy="696.85" r="11.811" style="fill:rgb(52,101,164);stroke:rgb(52,101,164);stroke-width:4.25px;"/>
    </g>
    <g id="connection-center1" serif:id="connection-center" transform="matrix(1,0,0,1,-94.5358,-519.685)">
        <circle cx="484.252" cy="696.85" r="11.811" style="fill:rgb(52,101,164);stroke:rgb(52,101,164);stroke-width:4.25px;"/>
    </g>
    <g id="connection-center2" serif:id="connection-center" transform="matrix(1,0,0,1,377.953,-519.685)">
        <circle cx="484.252" cy="696.85" r="11.811" style="fill:rgb(52,101,164);stroke:rgb(52,101,164);stroke-width:4.25px;"/>
    </g>
    <g id="connection-center3" serif:id="connection-center" transform="matrix(1,0,0,1,-330.756,-401.575)">
        <circle cx="484.252" cy="696.85" r="11.811" style="fill:rgb(52,101,164);stroke:rgb(52,101,164);stroke-width:4.25px;"/>
    </g>
    <g transform="matrix(1,0,0,1,-23.622,-236.22)">
        <path d="M200.787,531.496L118.11,531.496" style="fill:none;stroke:rgb(52,101,164);stroke-width:4.17px;"/>
    </g>
    <g transform="matrix(1,0,0,1,-212.598,-118.11)">
        <path d="M602.362,248.031L602.362,342.52" style="fill:none;stroke:rgb(52,101,164);stroke-width:4.17px;"/>
    </g>
    <g transform="matrix(1,0,0,1,-212.598,-118.11)">
        <path d="M389.764,177.165L602.315,177.165" style="fill:none;stroke:rgb(52,101,164);stroke-width:4.17px;"/>
    </g>
    <g transform="matrix(1,0,0,1,-212.598,-118.11)">
        <path d="M602.362,413.386L389.764,413.386" style="fill:none;stroke:rgb(52,101,164);stroke-width:4.17px;"/>
    </g>
    <g transform="matrix(1,0,0,1,-212.598,-118.11)">
        <path d="M366.142,330.709L366.094,413.386" style="fill:none;stroke:rgb(52,101,164);stroke-width:4.17px;"/>
    </g>
    <g transform="matrix(1,0,0,1,-212.598,-118.11)">
        <path d="M366.142,259.843L366.094,177.165" style="fill:none;stroke:rgb(52,101,164);stroke-width:4.17px;"/>
    </g>
    <g id="gate-nor" transform="matrix(1,0,0,1,-555.173,-1771.65)">
        <g transform="matrix(1,0,0,1,11.811,649.606)">
            <path d="M885.827,1287.4C892.345,1287.4 897.638,1292.69 897.638,1299.21C897.638,1305.73 892.345,1311.02 885.827,1311.02C879.308,1311.02 874.016,1305.73 874.016,1299.21C874.016,1292.69 879.308,1287.4 885.827,1287.4ZM885.827,1291.65C890,1291.65 893.389,1295.04 893.389,1299.21C893.389,1303.39 890,1306.77 885.827,1306.77C881.653,1306.77 878.265,1303.39 878.265,1299.21C878.265,1295.04 881.653,1291.65 885.827,1291.65Z" style="fill:rgb(52,101,164);"/>
        </g>
        <g transform="matrix(1.25899,0,0,1,-257.828,472.441)">
            <path d="M826.772,1440.94L767.717,1440.94" style="fill:none;stroke:rgb(52,101,164);stroke-width:3.74px;"/>
        </g>
        <g transform="matrix(1.25899,0,0,1,-257.828,472.441)">
            <path d="M826.772,1511.81L767.717,1511.81" style="fill:none;stroke:rgb(52,101,164);stroke-width:3.74px;"/>
        </g>
        <g transform="matrix(0.600933,0,0,1,341.638,472.441)">
            <path d="M944.882,1476.38L1003.94,1476.38" style="fill:none;stroke:rgb(52,101,164);stroke-width:5.15px;"/>
        </g>
        <g transform="matrix(1,0,0,1,-59,236.22)">
            <path d="M826.772,1653.54C908.072,1653.82 944.882,1712.6 944.882,1712.6" style="fill:none;stroke:rgb(52,101,164);stroke-width:4.25px;"/>
        </g>
        <g transform="matrix(1,0,0,-1,-59,3661.42)">
            <path d="M826.772,1653.54C908.072,1653.82 944.882,1712.6 944.882,1712.6" style="fill:none;stroke:rgb(52,101,164);stroke-width:4.25px;"/>
        </g>
        <g transform="matrix(1,0,0,1,-59,236.22)">
            <path d="M826.772,1653.54C836.801,1665.59 850.394,1689.75 850.394,1712.6" style="fill:none;stroke:rgb(52,101,164);stroke-width:4.25px;"/>
        </g>
        <g transform="matrix(1,0,0,-1,-59,3661.42)">
            <path d="M826.772,1653.54C836.801,1665.59 850.394,1689.75 850.394,1712.6" style="fill:none;stroke:rgb(52,101,164);stroke-width:4.25px;"/>
        </g>
    </g>
    <g id="gate-nor1" serif:id="gate-nor" transform="matrix(1,0,0,1,-82.7323,-1771.65)">
        <g transform="matrix(1,0,0,1,11.811,649.606)">
            <path d="M885.827,1287.4C892.345,1287.4 897.638,1292.69 897.638,1299.21C897.638,1305.73 892.345,1311.02 885.827,1311.02C879.308,1311.02 874.016,1305.73 874.016,1299.21C874.016,1292.69 879.308,1287.4 885.827,1287.4ZM885.827,1291.65C890,1291.65 893.389,1295.04 893.389,1299.21C893.389,1303.39 890,1306.77 885.827,1306.77C881.653,1306.77 878.265,1303.39 878.265,1299.21C878.265,1295.04 881.653,1291.65 885.827,1291.65Z" style="fill:rgb(52,101,164);"/>
        </g>
        <g transform="matrix(1.25899,0,0,1,-257.828,472.441)">
            <path d="M826.772,1440.94L767.717,1440.94" style="fill:none;stroke:rgb(52,101,164);stroke-width:3.74px;"/>
        </g>
        <g transform="matrix(1.25899,0,0,1,-257.828,472.441)">
            <path d="M826.772,1511.81L767.717,1511.81" style="fill:none;stroke:rgb(52,101,164);stroke-width:3.74px;"/>
        </g>
        <g transform="matrix(0.600933,0,0,1,341.638,472.441)">
            <path d="M944.882,1476.38L1003.94,1476.38" style="fill:none;stroke:rgb(52,101,164);stroke-width:5.15px;"/>
        </g>
        <g transform="matrix(1,0,0,1,-59,236.22)">
            <path d="M826.772,1653.54C908.072,1653.82 944.882,1712.6 944.882,1712.6" style="fill:none;stroke:rgb(52,101,164);stroke-width:4.25px;"/>
        </g>
        <g transform="matrix(1,0,0,-1,-59,3661.42)">
            <path d="M826.772,1653.54C908.072,1653.82 944.882,1712.6 944.882,1712.6" style="fill:none;stroke:rgb(52,101,164);stroke-width:4.25px;"/>
        </g>
        <g transform="matrix(1,0,0,1,-59,236.22)">
            <path d="M826.772,1653.54C836.801,1665.59 850.394,1689.75 850.394,1712.6" style="fill:none;stroke:rgb(52,101,164);stroke-width:4.25px;"/>
        </g>
        <g transform="matrix(1,0,0,-1,-59,3661.42)">
            <path d="M826.772,1653.54C836.801,1665.59 850.394,1689.75 850.394,1712.6" style="fill:none;stroke:rgb(52,101,164);stroke-width:4.25px;"/>
        </g>
    </g>
    <g id="gate-nor2" serif:id="gate-nor" transform="matrix(1,0,0,1,153.488,-1771.65)">
        <g transform="matrix(1,0,0,1,11.811,649.606)">
            <path d="M885.827,1287.4C892.345,1287.4 897.638,1292.69 897.638,1299.21C897.638,1305.73 892.345,1311.02 885.827,1311.02C879.308,1311.02 874.016,1305.73 874.016,1299.21C874.016,1292.69 879.308,1287.4 885.827,1287.4ZM885.827,1291.65C890,1291.65 893.389,1295.04 893.389,1299.21C893.389,1303.39 890,1306.77 885.827,1306.77C881.653,1306.77 878.265,1303.39 878.265,1299.21C878.265,1295.04 881.653,1291.65 885.827,1291.65Z" style="fill:rgb(52,101,164);"/>
        </g>
        <g transform="matrix(1.25899,0,0,1,-257.828,472.441)">
            <path d="M826.772,1440.94L767.717,1440.94" style="fill:none;stroke:rgb(52,101,164);stroke-width:3.74px;"/>
        </g>
        <g transform="matrix(1.25899,0,0,1,-257.828,472.441)">
            <path d="M826.772,1511.81L767.717,1511.81" style="fill:none;stroke:rgb(52,101,164);stroke-width:3.74px;"/>
        </g>
        <g transform="matrix(0.600933,0,0,1,341.638,472.441)">
            <path d="M944.882,1476.38L1003.94,1476.38" style="fill:none;stroke:rgb(52,101,164);stroke-width:5.15px;"/>
        </g>
        <g transform="matrix(1,0,0,1,-59,236.22)">
            <path d="M826.772,1653.54C908.072,1653.82 944.882,1712.6 944.882,1712.6" style="fill:none;stroke:rgb(52,101,164);stroke-width:4.25px;"/>
        </g>
        <g transform="matrix(1,0,0,-1,-59,3661.42)">
            <path d="M826.772,1653.54C908.072,1653.82 944.882,1712.6 944.882,1712.6" style="fill:none;stroke:rgb(52,101,164);stroke-width:4.25px;"/>
        </g>
        <g transform="matrix(1,0,0,1,-59,236.22)">
            <path d="M826.772,1653.54C836.801,1665.59 850.394,1689.75 850.394,1712.6" style="fill:none;stroke:rgb(52,101,164);stroke-width:4.25px;"/>
        </g>
        <g transform="matrix(1,0,0,-1,-59,3661.42)">
            <path d="M826.772,1653.54C836.801,1665.59 850.394,1689.75 850.394,1712.6" style="fill:none;stroke:rgb(52,101,164);stroke-width:4.25px;"/>
        </g>
    </g>
    <g id="gate-nor3" serif:id="gate-nor" transform="matrix(1,0,0,1,-318.953,-1854.33)">
        <g transform="matrix(1,0,0,1,11.811,649.606)">
            <path d="M885.827,1287.4C892.345,1287.4 897.638,1292.69 897.638,1299.21C897.638,1305.73 892.345,1311.02 885.827,1311.02C879.308,1311.02 874.016,1305.73 874.016,1299.21C874.016,1292.69 879.308,1287.4 885.827,1287.4ZM885.827,1291.65C890,1291.65 893.389,1295.04 893.389,1299.21C893.389,1303.39 890,1306.77 885.827,1306.77C881.653,1306.77 878.265,1303.39 878.265,1299.21C878.265,1295.04 881.653,1291.65 885.827,1291.65Z" style="fill:rgb(52,101,164);"/>
        </g>
        <g transform="matrix(1.25899,0,0,1,-257.828,472.441)">
            <path d="M826.772,1440.94L767.717,1440.94" style="fill:none;stroke:rgb(52,101,164);stroke-width:3.74px;"/>
        </g>
        <g transform="matrix(1.25899,0,0,1,-257.828,472.441)">
            <path d="M826.772,1511.81L767.717,1511.81" style="fill:none;stroke:rgb(52,101,164);stroke-width:3.74px;"/>
        </g>
        <g transform="matrix(0.600933,0,0,1,341.638,472.441)">
            <path d="M944.882,1476.38L1003.94,1476.38" style="fill:none;stroke:rgb(52,101,164);stroke-width:5.15px;"/>
        </g>
        <g transform="matrix(1,0,0,1,-59,236.22)">
            <path d="M826.772,1653.54C908.072,1653.82 944.882,1712.6 944.882,1712.6" style="fill:none;stroke:rgb(52,101,164);stroke-width:4.25px;"/>
        </g>
        <g transform="matrix(1,0,0,-1,-59,3661.42)">
            <path d="M826.772,1653.54C908.072,1653.82 944.882,1712.6 944.882,1712.6" style="fill:none;stroke:rgb(52,101,164);stroke-width:4.25px;"/>
        </g>
        <g transform="matrix(1,0,0,1,-59,236.22)">
            <path d="M826.772,1653.54C836.801,1665.59 850.394,1689.75 850.394,1712.6" style="fill:none;stroke:rgb(52,101,164);stroke-width:4.25px;"/>
        </g>
        <g transform="matrix(1,0,0,-1,-59,3661.42)">
            <path d="M826.772,1653.54C836.801,1665.59 850.394,1689.75 850.394,1712.6" style="fill:none;stroke:rgb(52,101,164);stroke-width:4.25px;"/>
        </g>
    </g>
    <g id="gate-nor4" serif:id="gate-nor" transform="matrix(1,0,0,1,-318.953,-1688.98)">
        <g transform="matrix(1,0,0,1,11.811,649.606)">
            <path d="M885.827,1287.4C892.345,1287.4 897.638,1292.69 897.638,1299.21C897.638,1305.73 892.345,1311.02 885.827,1311.02C879.308,1311.02 874.016,1305.73 874.016,1299.21C874.016,1292.69 879.308,1287.4 885.827,1287.4ZM885.827,1291.65C890,1291.65 893.389,1295.04 893.389,1299.21C893.389,1303.39 890,1306.77 885.827,1306.77C881.653,1306.77 878.265,1303.39 878.265,1299.21C878.265,1295.04 881.653,1291.65 885.827,1291.65Z" style="fill:rgb(52,101,164);"/>
        </g>
        <g transform="matrix(1.25899,0,0,1,-257.828,472.441)">
            <path d="M826.772,1440.94L767.717,1440.94" style="fill:none;stroke:rgb(52,101,164);stroke-width:3.74px;"/>
        </g>
        <g transform="matrix(1.25899,0,0,1,-257.828,472.441)">
            <path d="M826.772,1511.81L767.717,1511.81" style="fill:none;stroke:rgb(52,101,164);stroke-width:3.74px;"/>
        </g>
        <g transform="matrix(0.600933,0,0,1,341.638,472.441)">
            <path d="M944.882,1476.38L1003.94,1476.38" style="fill:none;stroke:rgb(52,101,164);stroke-width:5.15px;"/>
        </g>
        <g transform="matrix(1,0,0,1,-59,236.22)">
            <path d="M826.772,1653.54C908.072,1653.82 944.882,1712.6 944.882,1712.6" style="fill:none;stroke:rgb(52,101,164);stroke-width:4.25px;"/>
        </g>
        <g transform="matrix(1,0,0,-1,-59,3661.42)">
            <path d="M826.772,1653.54C908.072,1653.82 944.882,1712.6 944.882,1712.6" style="fill:none;stroke:rgb(52,101,164);stroke-width:4.25px;"/>
        </g>
        <g transform="matrix(1,0,0,1,-59,236.22)">
            <path d="M826.772,1653.54C836.801,1665.59 850.394,1689.75 850.394,1712.6" style="fill:none;stroke:rgb(52,101,164);stroke-width:4.25px;"/>
        </g>
        <g transform="matrix(1,0,0,-1,-59,3661.42)">
            <path d="M826.772,1653.54C836.801,1665.59 850.394,1689.75 850.394,1712.6" style="fill:none;stroke:rgb(52,101,164);stroke-width:4.25px;"/>
        </g>
    </g>
    <path d="M862.205,141.732L862.205,212.598" style="fill:none;stroke:rgb(52,101,164);stroke-width:4.17px;"/>
</svg>
