<?xml version="1.0" encoding="UTF-8" standalone="no"?>
<!DOCTYPE svg PUBLIC "-//W3C//DTD SVG 1.1//EN" "http://www.w3.org/Graphics/SVG/1.1/DTD/svg11.dtd">
<svg width="100%" height="100%" viewBox="0 0 1182 1418" version="1.1" xmlns="http://www.w3.org/2000/svg" xmlns:xlink="http://www.w3.org/1999/xlink" xml:space="preserve" xmlns:serif="http://www.serif.com/" style="fill-rule:evenodd;clip-rule:evenodd;stroke-linecap:round;stroke-linejoin:round;stroke-miterlimit:1.5;">
    <g transform="matrix(1,0,0,2,118.11,-354.331)">
        <path d="M236.22,472.441L236.22,826.772L472.441,826.772L472.441,236.22L236.22,236.22L236.22,472.441" style="fill:none;stroke:rgb(52,101,164);stroke-width:5.27px;"/>
    </g>
    <g transform="matrix(0.666667,0,0,0.666667,216.535,-19.685)">
        <rect x="259.843" y="259.843" width="70.866" height="70.866" style="fill:none;stroke:rgb(52,101,164);stroke-width:6.25px;"/>
    </g>
    <g transform="matrix(0.666667,0,0,0.666667,216.535,570.866)">
        <rect x="259.843" y="259.843" width="70.866" height="70.866" style="fill:none;stroke:rgb(52,101,164);stroke-width:6.25px;"/>
    </g>
    <g transform="matrix(0.666667,0,0,0.666667,334.646,570.866)">
        <rect x="259.843" y="259.843" width="70.866" height="70.866" style="fill:none;stroke:rgb(52,101,164);stroke-width:6.25px;"/>
    </g>
    <g transform="matrix(0.666667,0,0,0.666667,334.646,-19.685)">
        <rect x="259.843" y="259.843" width="70.866" height="70.866" style="fill:none;stroke:rgb(52,101,164);stroke-width:6.25px;"/>
    </g>
    <g transform="matrix(0.666667,0,0,0.666667,216.535,98.4252)">
        <rect x="259.843" y="259.843" width="70.866" height="70.866" style="fill:none;stroke:rgb(52,101,164);stroke-width:6.25px;"/>
    </g>
    <g transform="matrix(0.666667,0,0,0.666667,216.535,688.976)">
        <rect x="259.843" y="259.843" width="70.866" height="70.866" style="fill:none;stroke:rgb(52,101,164);stroke-width:6.25px;"/>
    </g>
    <g transform="matrix(0.666667,0,0,0.666667,334.646,688.976)">
        <rect x="259.843" y="259.843" width="70.866" height="70.866" style="fill:none;stroke:rgb(52,101,164);stroke-width:6.25px;"/>
    </g>
    <g transform="matrix(0.666667,0,0,0.666667,334.646,98.4252)">
        <rect x="259.843" y="259.843" width="70.866" height="70.866" style="fill:none;stroke:rgb(52,101,164);stroke-width:6.25px;"/>
    </g>
    <g transform="matrix(0.666667,0,0,0.666667,216.535,216.535)">
        <rect x="259.843" y="259.843" width="70.866" height="70.866" style="fill:none;stroke:rgb(52,101,164);stroke-width:6.25px;"/>
    </g>
    <g transform="matrix(0.666667,0,0,0.666667,216.535,807.087)">
        <rect x="259.843" y="259.843" width="70.866" height="70.866" style="fill:none;stroke:rgb(52,101,164);stroke-width:6.25px;"/>
    </g>
    <g transform="matrix(0.666667,0,0,0.666667,334.646,807.087)">
        <rect x="259.843" y="259.843" width="70.866" height="70.866" style="fill:none;stroke:rgb(52,101,164);stroke-width:6.25px;"/>
    </g>
    <g transform="matrix(0.666667,0,0,0.666667,334.646,216.535)">
        <rect x="259.843" y="259.843" width="70.866" height="70.866" style="fill:none;stroke:rgb(52,101,164);stroke-width:6.25px;"/>
    </g>
    <g transform="matrix(0.666667,0,0,0.666667,216.535,925.197)">
        <rect x="259.843" y="259.843" width="70.866" height="70.866" style="fill:none;stroke:rgb(52,101,164);stroke-width:6.25px;"/>
    </g>
    <g transform="matrix(0.666667,0,0,0.666667,334.646,925.197)">
        <rect x="259.843" y="259.843" width="70.866" height="70.866" style="fill:none;stroke:rgb(52,101,164);stroke-width:6.25px;"/>
    </g>
    <g transform="matrix(0.666667,0,0,0.666667,334.646,334.646)">
        <rect x="259.843" y="259.843" width="70.866" height="70.866" style="fill:none;stroke:rgb(52,101,164);stroke-width:6.25px;"/>
    </g>
    <g transform="matrix(0.666667,0,0,0.666667,216.535,452.756)">
        <rect x="259.843" y="259.843" width="70.866" height="70.866" style="fill:none;stroke:rgb(52,101,164);stroke-width:6.25px;"/>
    </g>
    <g transform="matrix(0.666667,0,0,0.666667,216.535,1043.31)">
        <rect x="259.843" y="259.843" width="70.866" height="70.866" style="fill:none;stroke:rgb(52,101,164);stroke-width:6.25px;"/>
    </g>
    <g transform="matrix(0.666667,0,0,0.666667,334.646,1043.31)">
        <rect x="259.843" y="259.843" width="70.866" height="70.866" style="fill:none;stroke:rgb(52,101,164);stroke-width:6.25px;"/>
    </g>
    <g transform="matrix(0.666667,0,0,0.666667,334.646,452.756)">
        <rect x="259.843" y="259.843" width="70.866" height="70.866" style="fill:none;stroke:rgb(52,101,164);stroke-width:6.25px;"/>
    </g>
    <g transform="matrix(1,0,0,1,-535.934,-65.2552)">
        <text x="677.227px" y="258.937px" style="font-family:'TimesNewRomanPSMT', 'Times New Roman', serif;font-size:50px;fill:rgb(234,117,0);">VTREF 1</text>
    </g>
    <g transform="matrix(1,0,0,1,-64.1282,-65.2186)">
        <text x="677.227px" y="258.937px" style="font-family:'TimesNewRomanPSMT', 'Times New Roman', serif;font-size:50px;fill:rgb(234,117,0);">2 <tspan x="713.824px 744.366px " y="258.937px 258.937px ">TM</tspan>S/</text>
        <text x="830.523px" y="258.937px" style="font-family:'TimesNewRomanPSMT', 'Times New Roman', serif;font-size:50px;fill:rgb(234,0,187);">SWDIO</text>
    </g>
    <g transform="matrix(1,0,0,1,-61.7051,52.8916)">
        <text x="677.227px" y="258.937px" style="font-family:'TimesNewRomanPSMT', 'Times New Roman', serif;font-size:50px;fill:rgb(234,117,0);">4 <tspan x="713.824px 744.366px " y="258.937px 258.937px ">TC</tspan>LK/</text>
        <text x="858.258px" y="258.937px" style="font-family:'TimesNewRomanPSMT', 'Times New Roman', serif;font-size:50px;fill:rgb(234,0,187);">SWDCLK</text>
    </g>
    <g transform="matrix(1,0,0,1,-61.7051,171.002)">
        <text x="677.227px" y="258.937px" style="font-family:'TimesNewRomanPSMT', 'Times New Roman', serif;font-size:50px;fill:rgb(234,117,0);">6 <tspan x="713.824px 744.366px " y="258.937px 258.937px ">TD</tspan>O/</text>
        <text x="830.474px" y="258.937px" style="font-family:'TimesNewRomanPSMT', 'Times New Roman', serif;font-size:50px;fill:rgb(234,0,187);">SWO</text>
    </g>
    <g transform="matrix(1,0,0,1,-64.1282,289.112)">
        <text x="677.227px" y="258.937px" style="font-family:'TimesNewRomanPSMT', 'Times New Roman', serif;font-size:50px;fill:rgb(234,117,0);">8 <tspan x="713.824px 744.366px " y="258.937px 258.937px ">TD</tspan>I/</text>
        <text x="811.016px" y="258.937px" style="font-family:'TimesNewRomanPSMT', 'Times New Roman', serif;font-size:50px;fill:rgb(234,0,187);">NC</text>
    </g>
    <g transform="matrix(1,0,0,1,-64.1282,407.222)">
        <text x="677.227px" y="258.937px" style="font-family:'TimesNewRomanPSMT', 'Times New Roman', serif;font-size:50px;fill:rgb(234,117,0);">10 nRESET</text>
    </g>
    <g transform="matrix(1,0,0,1,-68.9134,525.333)">
        <text x="677.227px" y="258.937px" style="font-family:'TimesNewRomanPSMT', 'Times New Roman', serif;font-size:50px;fill:rgb(234,117,0);">12 <tspan x="738.824px 769.366px " y="258.937px 258.937px ">TR</tspan>ACECLK</text>
    </g>
    <g transform="matrix(1,0,0,1,-68.9134,643.443)">
        <text x="677.227px" y="258.937px" style="font-family:'TimesNewRomanPSMT', 'Times New Roman', serif;font-size:50px;fill:rgb(234,117,0);">14 <tspan x="738.824px 769.366px " y="258.937px 258.937px ">TR</tspan>ACEDA<tspan x="969.39px 995.928px 1032.04px " y="258.937px 258.937px 258.937px ">TA[</tspan>0]</text>
    </g>
    <g transform="matrix(1,0,0,1,-68.9134,756.963)">
        <text x="677.227px" y="258.937px" style="font-family:'TimesNewRomanPSMT', 'Times New Roman', serif;font-size:50px;fill:rgb(234,117,0);">16 <tspan x="738.824px 769.366px " y="258.937px 258.937px ">TR</tspan>ACEDA<tspan x="969.39px 995.928px 1032.04px " y="258.937px 258.937px 258.937px ">TA[</tspan>1]</text>
    </g>
    <g transform="matrix(1,0,0,1,-68.9134,874.922)">
        <text x="677.227px" y="258.937px" style="font-family:'TimesNewRomanPSMT', 'Times New Roman', serif;font-size:50px;fill:rgb(234,117,0);">18 <tspan x="738.824px 769.366px " y="258.937px 258.937px ">TR</tspan>ACEDA<tspan x="969.39px 995.928px 1032.04px " y="258.937px 258.937px 258.937px ">TA[</tspan>2]</text>
    </g>
    <g transform="matrix(1,0,0,1,-68.9134,993.184)">
        <text x="677.227px" y="258.937px" style="font-family:'TimesNewRomanPSMT', 'Times New Roman', serif;font-size:50px;fill:rgb(234,117,0);">20 <tspan x="738.824px 769.366px " y="258.937px 258.937px ">TR</tspan>ACEDA<tspan x="969.39px 995.928px 1032.04px " y="258.937px 258.937px 258.937px ">TA[</tspan>3]</text>
    </g>
    <g transform="matrix(1,0,0,1,-488.193,52.8916)">
        <text x="677.227px" y="258.937px" style="font-family:'TimesNewRomanPSMT', 'Times New Roman', serif;font-size:50px;fill:rgb(234,117,0);">GND 3</text>
    </g>
    <g transform="matrix(1,0,0,1,-489.048,171.002)">
        <text x="677.227px" y="258.937px" style="font-family:'TimesNewRomanPSMT', 'Times New Roman', serif;font-size:50px;fill:rgb(234,117,0);">GND 5</text>
    </g>
    <g transform="matrix(1,0,0,1,-482.7,288.428)">
        <text x="677.227px" y="258.937px" style="font-family:'TimesNewRomanPSMT', 'Times New Roman', serif;font-size:50px;fill:rgb(234,117,0);">KEY<tspan x="778.131px 790.631px " y="258.937px 258.937px "> 7</tspan></text>
    </g>
    <g transform="matrix(1,0,0,1,-620.664,407.222)">
        <text x="677.227px" y="258.937px" style="font-family:'TimesNewRomanPSMT', 'Times New Roman', serif;font-size:50px;fill:rgb(234,117,0);">GNDDetect 9</text>
    </g>
    <g transform="matrix(1,0,0,1,-509.385,525.333)">
        <text x="677.227px" y="258.937px" style="font-family:'TimesNewRomanPSMT', 'Times New Roman', serif;font-size:50px;fill:rgb(234,117,0);">GND 1<tspan x="821.197px " y="258.937px ">1</tspan></text>
    </g>
    <g transform="matrix(1,0,0,1,-513.631,643.443)">
        <text x="677.227px" y="258.937px" style="font-family:'TimesNewRomanPSMT', 'Times New Roman', serif;font-size:50px;fill:rgb(234,117,0);">GND 13</text>
    </g>
    <g transform="matrix(1,0,0,1,-514.485,761.553)">
        <text x="677.227px" y="258.937px" style="font-family:'TimesNewRomanPSMT', 'Times New Roman', serif;font-size:50px;fill:rgb(234,117,0);">GND 15</text>
    </g>
    <g transform="matrix(1,0,0,1,-515.559,879.663)">
        <text x="677.227px" y="258.937px" style="font-family:'TimesNewRomanPSMT', 'Times New Roman', serif;font-size:50px;fill:rgb(234,117,0);">GND 17</text>
    </g>
    <g transform="matrix(1,0,0,1,-515.559,997.773)">
        <text x="677.227px" y="258.937px" style="font-family:'TimesNewRomanPSMT', 'Times New Roman', serif;font-size:50px;fill:rgb(234,117,0);">GND 19</text>
    </g>
</svg>
