<?xml version="1.0" encoding="UTF-8" standalone="no"?>
<!DOCTYPE svg PUBLIC "-//W3C//DTD SVG 1.1//EN" "http://www.w3.org/Graphics/SVG/1.1/DTD/svg11.dtd">
<svg width="100%" height="100%" viewBox="0 0 1063 945" version="1.1" xmlns="http://www.w3.org/2000/svg" xmlns:xlink="http://www.w3.org/1999/xlink" xml:space="preserve" xmlns:serif="http://www.serif.com/" style="fill-rule:evenodd;clip-rule:evenodd;stroke-linecap:round;stroke-linejoin:round;stroke-miterlimit:1.5;">
    <g transform="matrix(1,0,0,1,-1370.68,235.535)">
        <path d="M1771.65,590.551L1771.65,625.984" style="fill:none;stroke:rgb(52,101,164);stroke-width:4.25px;"/>
        <path d="M1724.41,625.984L1818.9,625.984" style="fill:none;stroke:rgb(52,101,164);stroke-width:4.25px;"/>
        <path d="M1736.22,649.606L1807.09,649.606" style="fill:none;stroke:rgb(52,101,164);stroke-width:4.25px;"/>
        <path d="M1748.03,673.228L1795.28,673.228" style="fill:none;stroke:rgb(52,101,164);stroke-width:4.25px;"/>
    </g>
    <g transform="matrix(6.12323e-17,-1,1,6.12323e-17,-213.199,707.976)">
        <path d="M354.331,354.331L354.331,401.575L330.709,413.386L377.953,437.008L330.709,460.63L377.953,484.252L330.709,507.874L377.953,531.496L354.331,543.307L354.331,590.551" style="fill:none;stroke:rgb(52,101,164);stroke-width:4.25px;"/>
    </g>
    <g transform="matrix(6.12323e-17,-1,1,6.12323e-17,-213.199,589.866)">
        <path d="M354.331,354.331L354.331,401.575L330.709,413.386L377.953,437.008L330.709,460.63L377.953,484.252L330.709,507.874L377.953,531.496L354.331,543.307L354.331,590.551" style="fill:none;stroke:rgb(52,101,164);stroke-width:4.25px;"/>
    </g>
    <g transform="matrix(6.12323e-17,-1,1,6.12323e-17,-213.199,471.755)">
        <path d="M354.331,354.331L354.331,401.575L330.709,413.386L377.953,437.008L330.709,460.63L377.953,484.252L330.709,507.874L377.953,531.496L354.331,543.307L354.331,590.551" style="fill:none;stroke:rgb(52,101,164);stroke-width:4.25px;"/>
    </g>
    <g transform="matrix(6.12323e-17,-1,1,6.12323e-17,164.93,944.196)">
        <path d="M354.331,354.331L354.331,401.575L330.709,413.386L377.953,437.008L330.709,460.63L377.953,484.252L330.709,507.874L377.953,531.496L354.331,543.307L354.331,590.551" style="fill:none;stroke:rgb(52,101,164);stroke-width:4.25px;"/>
    </g>
    <g transform="matrix(1,0,0,1,46.6434,235.535)">
        <path d="M354.331,354.331L354.331,401.575L330.709,413.386L377.953,437.008L330.709,460.63L377.953,484.252L330.709,507.874L377.953,531.496L354.331,543.307L354.331,590.551" style="fill:none;stroke:rgb(52,101,164);stroke-width:4.25px;"/>
    </g>
    <g transform="matrix(1,0,0,1,-441.115,47.8223)">
        <text x="677.227px" y="258.937px" style="font-family:'TimesNewRomanPSMT', 'Times New Roman', serif;font-size:50px;fill:rgb(234,117,0);">R</text>
        <text x="710.577px" y="275.587px" style="font-family:'TimesNewRomanPSMT', 'Times New Roman', serif;font-size:29.15px;fill:rgb(234,117,0);">3</text>
    </g>
    <g transform="matrix(1,0,0,1,-445.538,-70.2879)">
        <text x="677.227px" y="258.937px" style="font-family:'TimesNewRomanPSMT', 'Times New Roman', serif;font-size:50px;fill:rgb(234,117,0);">R</text>
        <text x="710.577px" y="275.587px" style="font-family:'TimesNewRomanPSMT', 'Times New Roman', serif;font-size:29.15px;fill:rgb(234,117,0);">2</text>
    </g>
    <g transform="matrix(1,0,0,1,-445.36,-188.398)">
        <text x="677.227px" y="258.937px" style="font-family:'TimesNewRomanPSMT', 'Times New Roman', serif;font-size:50px;fill:rgb(234,117,0);">R</text>
        <text x="710.577px" y="275.587px" style="font-family:'TimesNewRomanPSMT', 'Times New Roman', serif;font-size:29.15px;fill:rgb(234,117,0);">1</text>
    </g>
    <g transform="matrix(1,0,0,1,-604.776,-129.701)">
        <text x="677.227px" y="258.937px" style="font-family:'TimesNewRomanPSMT', 'Times New Roman', serif;font-size:50px;fill:rgb(234,117,0);">v</text>
        <text x="702.227px" y="275.587px" style="font-family:'TimesNewRomanPSMT', 'Times New Roman', serif;font-size:29.15px;fill:rgb(234,117,0);">1</text>
    </g>
    <g transform="matrix(1,0,0,1,-306.312,-165.134)">
        <text x="677.227px" y="258.937px" style="font-family:'TimesNewRomanPSMT', 'Times New Roman', serif;font-size:33.333px;fill:rgb(234,117,0);">i</text>
        <text x="686.488px" y="270.037px" style="font-family:'TimesNewRomanPSMT', 'Times New Roman', serif;font-size:19.433px;fill:rgb(234,117,0);">1</text>
    </g>
    <g transform="matrix(1,0,0,1,-306.312,-47.0238)">
        <text x="677.227px" y="258.937px" style="font-family:'TimesNewRomanPSMT', 'Times New Roman', serif;font-size:33.333px;fill:rgb(234,117,0);">i</text>
        <text x="686.488px" y="270.037px" style="font-family:'TimesNewRomanPSMT', 'Times New Roman', serif;font-size:19.433px;fill:rgb(234,117,0);">2</text>
    </g>
    <g transform="matrix(1,0,0,1,-306.312,71.325)">
        <text x="677.227px" y="258.937px" style="font-family:'TimesNewRomanPSMT', 'Times New Roman', serif;font-size:33.333px;fill:rgb(234,117,0);">i</text>
        <text x="686.488px" y="270.037px" style="font-family:'TimesNewRomanPSMT', 'Times New Roman', serif;font-size:19.433px;fill:rgb(234,117,0);">3</text>
    </g>
    <g transform="matrix(1,0,0,1,-604.776,-11.5908)">
        <text x="677.227px" y="258.937px" style="font-family:'TimesNewRomanPSMT', 'Times New Roman', serif;font-size:50px;fill:rgb(234,117,0);">v</text>
        <text x="702.227px" y="275.587px" style="font-family:'TimesNewRomanPSMT', 'Times New Roman', serif;font-size:29.15px;fill:rgb(234,117,0);">2</text>
    </g>
    <g transform="matrix(1,0,0,1,-604.776,106.519)">
        <text x="677.227px" y="258.937px" style="font-family:'TimesNewRomanPSMT', 'Times New Roman', serif;font-size:50px;fill:rgb(234,117,0);">v</text>
        <text x="702.227px" y="275.587px" style="font-family:'TimesNewRomanPSMT', 'Times New Roman', serif;font-size:29.15px;fill:rgb(234,117,0);">3</text>
    </g>
    <g transform="matrix(1,0,0,1,-211.76,66.5914)">
        <text x="677.227px" y="258.937px" style="font-family:'TimesNewRomanPSMT', 'Times New Roman', serif;font-size:50px;fill:rgb(234,117,0);">v</text>
        <text x="702.227px" y="275.587px" style="font-family:'TimesNewRomanPSMT', 'Times New Roman', serif;font-size:29.15px;fill:rgb(234,117,0);">+</text>
    </g>
    <g transform="matrix(1,0,0,1,253.594,160.337)">
        <text x="677.227px" y="258.937px" style="font-family:'TimesNewRomanPSMT', 'Times New Roman', serif;font-size:50px;fill:rgb(234,117,0);">v</text>
        <text x="702.227px" y="275.587px" style="font-family:'TimesNewRomanPSMT', 'Times New Roman', serif;font-size:29.15px;fill:rgb(234,117,0);">out</text>
    </g>
    <g transform="matrix(1,0,0,1,-56.7906,281.444)">
        <text x="677.227px" y="258.937px" style="font-family:'TimesNewRomanPSMT', 'Times New Roman', serif;font-size:50px;fill:rgb(234,117,0);">R</text>
        <text x="710.577px" y="275.587px" style="font-family:'TimesNewRomanPSMT', 'Times New Roman', serif;font-size:29.15px;fill:rgb(234,117,0);">f</text>
    </g>
    <g transform="matrix(1,0,0,1,-239.417,467.822)">
        <text x="677.227px" y="258.937px" style="font-family:'TimesNewRomanPSMT', 'Times New Roman', serif;font-size:50px;fill:rgb(234,117,0);">R</text>
        <text x="710.577px" y="275.587px" style="font-family:'TimesNewRomanPSMT', 'Times New Roman', serif;font-size:29.15px;fill:rgb(234,117,0);">i</text>
    </g>
    <g transform="matrix(1,0,0,1,330.285,-284.15)">
        <circle cx="484.252" cy="696.85" r="11.811" style="fill:rgb(52,101,164);"/>
    </g>
    <g transform="matrix(1,0,0,1,-83.2779,-106.985)">
        <circle cx="484.252" cy="696.85" r="11.811" style="fill:rgb(52,101,164);"/>
    </g>
    <g transform="matrix(1,0,0,1,-59.8999,-343.205)">
        <circle cx="484.252" cy="696.85" r="11.811" style="fill:rgb(52,101,164);"/>
    </g>
    <g transform="matrix(1,0,0,1,-12.6558,-166.04)">
        <path d="M437.008,283.465L437.008,519.685L472.441,519.685" style="fill:none;stroke:rgb(52,101,164);stroke-width:4.17px;"/>
    </g>
    <g transform="matrix(0.983288,-9.937e-18,-9.937e-18,1,75.9429,-0.685547)">
        <path d="M306.532,118.11L354.331,118.11" style="fill:none;stroke:rgb(52,101,164);stroke-width:4.2px;"/>
    </g>
    <g transform="matrix(1,0,0,1,70.8202,-0.685547)">
        <path d="M307.087,236.22L353.532,236.22" style="fill:none;stroke:rgb(52,101,164);stroke-width:4.17px;"/>
    </g>
    <g transform="matrix(1,0,0,1,70.8202,-0.685547)">
        <path d="M306.532,354.331L354.331,354.331" style="fill:none;stroke:rgb(52,101,164);stroke-width:4.17px;"/>
    </g>
    <g transform="matrix(6.12323e-17,1,-1,6.12323e-17,495.462,-189.662)">
        <path d="M307.087,106.299L318.898,118.11L295.276,118.11L307.087,106.299Z" style="fill:rgb(52,101,164);"/>
    </g>
    <g transform="matrix(6.12323e-17,1,-1,6.12323e-17,495.462,-71.5517)">
        <path d="M307.087,106.299L318.898,118.11L295.276,118.11L307.087,106.299Z" style="fill:rgb(52,101,164);"/>
    </g>
    <g transform="matrix(6.12323e-17,1,-1,6.12323e-17,495.462,46.7972)">
        <path d="M307.087,106.299L318.898,118.11L295.276,118.11L307.087,106.299Z" style="fill:rgb(52,101,164);"/>
    </g>
    <g transform="matrix(1,0,0,1,-413.81,-366.827)">
        <path d="M543.307,708.717C549.826,708.717 555.118,713.997 555.118,720.5C555.118,727.004 549.826,732.283 543.307,732.283C536.788,732.283 531.496,727.004 531.496,720.5C531.496,713.997 536.788,708.717 543.307,708.717ZM543.307,712.966C547.478,712.966 550.869,716.339 550.869,720.5C550.869,724.661 547.478,728.034 543.307,728.034C539.136,728.034 535.745,724.661 535.745,720.5C535.745,716.339 539.136,712.966 543.307,712.966Z" style="fill:rgb(52,101,164);"/>
    </g>
    <g transform="matrix(1,0,0,1,-413.81,-484.938)">
        <path d="M543.307,708.717C549.826,708.717 555.118,713.997 555.118,720.5C555.118,727.004 549.826,732.283 543.307,732.283C536.788,732.283 531.496,727.004 531.496,720.5C531.496,713.997 536.788,708.717 543.307,708.717ZM543.307,712.966C547.478,712.966 550.869,716.339 550.869,720.5C550.869,724.661 547.478,728.034 543.307,728.034C539.136,728.034 535.745,724.661 535.745,720.5C535.745,716.339 539.136,712.966 543.307,712.966Z" style="fill:rgb(52,101,164);"/>
    </g>
    <g transform="matrix(1,0,0,1,-413.81,-601.845)">
        <path d="M543.307,708.717C549.826,708.717 555.118,713.997 555.118,720.5C555.118,727.004 549.826,732.283 543.307,732.283C536.788,732.283 531.496,727.004 531.496,720.5C531.496,713.997 536.788,708.717 543.307,708.717ZM543.307,712.966C547.478,712.966 550.869,716.339 550.869,720.5C550.869,724.661 547.478,728.034 543.307,728.034C539.136,728.034 535.745,724.661 535.745,720.5C535.745,716.339 539.136,712.966 543.307,712.966Z" style="fill:rgb(52,101,164);"/>
    </g>
    <g transform="matrix(1,0,0,1,365.718,-307.828)">
        <path d="M543.307,708.717C549.826,708.717 555.118,713.997 555.118,720.5C555.118,727.004 549.826,732.283 543.307,732.283C536.788,732.283 531.496,727.004 531.496,720.5C531.496,713.997 536.788,708.717 543.307,708.717ZM543.307,712.966C547.478,712.966 550.869,716.339 550.869,720.5C550.869,724.661 547.478,728.034 543.307,728.034C539.136,728.034 535.745,724.661 535.745,720.5C535.745,716.339 539.136,712.966 543.307,712.966Z" style="fill:rgb(52,101,164);"/>
    </g>
    <g transform="matrix(1,0,0,1,-957.117,-1417.98)">
        <g transform="matrix(0.5,0,0,1,708.661,236.22)">
            <path d="M1417.32,1535.43L1535.43,1535.43" style="fill:none;stroke:rgb(52,101,164);stroke-width:5.37px;"/>
        </g>
        <g transform="matrix(0.5,0,0,1,708.661,236.22)">
            <path d="M1417.32,1653.54L1535.43,1653.54" style="fill:none;stroke:rgb(52,101,164);stroke-width:5.37px;"/>
        </g>
        <g transform="matrix(1,0,0,1,-59.0551,236.22)">
            <path d="M1535.43,1476.38L1535.43,1712.6" style="fill:none;stroke:rgb(52,101,164);stroke-width:4.25px;"/>
        </g>
        <g transform="matrix(1,0,0,0.997409,0,240.045)">
            <path d="M1476.38,1713.21L1712.6,1595.1L1476.38,1476.38" style="fill:none;stroke:rgb(52,101,164);stroke-width:4.25px;"/>
        </g>
        <g transform="matrix(1,0,0,1,0,233.827)">
            <path d="M1712.6,1596.88L1771.65,1596.88" style="fill:none;stroke:rgb(52,101,164);stroke-width:4.25px;"/>
        </g>
        <g transform="matrix(1.39492,0,0,1.39492,-601.123,-237.499)">
            <text x="1498.34px" y="1537.96px" style="font-family:'ArialMT', 'Arial', sans-serif;font-size:50px;fill:rgb(52,101,164);">-</text>
        </g>
        <g transform="matrix(1,0,0,1,-9.96459,251.328)">
            <text x="1498.34px" y="1537.96px" style="font-family:'ArialMT', 'Arial', sans-serif;font-size:50px;fill:rgb(52,101,164);">+</text>
        </g>
    </g>
    <g transform="matrix(1,0,0,1,46.8202,-0.685547)">
        <path d="M413.386,472.469L354.331,472.469L354.154,590.551L472.441,590.551" style="fill:none;stroke:rgb(52,101,164);stroke-width:4.17px;"/>
    </g>
    <g transform="matrix(1,0,0,1,46.8202,-0.685547)">
        <path d="M708.661,590.551L767.717,590.551L767.717,413.386" style="fill:none;stroke:rgb(52,101,164);stroke-width:4.17px;"/>
    </g>
    <g transform="matrix(0.65049,-7.6722e-05,-7.6722e-05,1,315.177,-0.626639)">
        <path d="M767.717,413.386L894.816,413.414" style="fill:none;stroke:rgb(52,101,164);stroke-width:4.94px;"/>
    </g>
</svg>
