<?xml version="1.0" encoding="UTF-8" standalone="no"?>
<!DOCTYPE svg PUBLIC "-//W3C//DTD SVG 1.1//EN" "http://www.w3.org/Graphics/SVG/1.1/DTD/svg11.dtd">
<svg width="100%" height="100%" viewBox="0 0 945 591" version="1.1" xmlns="http://www.w3.org/2000/svg" xmlns:xlink="http://www.w3.org/1999/xlink" xml:space="preserve" xmlns:serif="http://www.serif.com/" style="fill-rule:evenodd;clip-rule:evenodd;stroke-linecap:round;stroke-linejoin:round;stroke-miterlimit:1.5;">
    <g transform="matrix(1,0,0,1,-980.468,-1181.1)">
        <g transform="matrix(0.5,0,0,1,708.661,0)">
            <path d="M1417.32,1535.43L1535.43,1535.43" style="fill:none;stroke:rgb(52,101,164);stroke-width:5.37px;"/>
        </g>
        <g transform="matrix(0.5,0,0,1,708.661,-47.2441)">
            <path d="M1417.32,1653.54L1535.43,1653.54" style="fill:none;stroke:rgb(52,101,164);stroke-width:5.37px;"/>
        </g>
        <g transform="matrix(1,0,0,0.800149,-59.0551,295.056)">
            <path d="M1535.43,1476.38L1535.43,1712.6" style="fill:none;stroke:rgb(52,101,164);stroke-width:4.69px;"/>
        </g>
        <g transform="matrix(0.75,0,0,0.798076,369.094,298.116)">
            <path d="M1476.38,1713.21L1712.6,1595.1L1476.38,1476.38" style="fill:none;stroke:rgb(52,101,164);stroke-width:5.49px;"/>
        </g>
        <g transform="matrix(1,0,0,1,-59.0551,-25.9983)">
            <path d="M1712.6,1596.88L1771.65,1596.88" style="fill:none;stroke:rgb(52,101,164);stroke-width:4.25px;"/>
        </g>
        <g transform="matrix(1.39492,0,0,1.39492,-596.322,-590.958)">
            <text x="1498.34px" y="1537.96px" style="font-family:'ArialMT', 'Arial', sans-serif;font-size:50px;fill:rgb(52,101,164);">-</text>
        </g>
        <g transform="matrix(1,0,0,1,-7.56458,85.9736)">
            <text x="1498.34px" y="1537.96px" style="font-family:'ArialMT', 'Arial', sans-serif;font-size:50px;fill:rgb(52,101,164);">+</text>
        </g>
    </g>
    <g transform="matrix(1,0,0,1,-1358.69,-165.354)">
        <path d="M1771.65,590.551L1771.65,625.984" style="fill:none;stroke:rgb(52,101,164);stroke-width:4.25px;"/>
        <path d="M1724.41,625.984L1818.9,625.984" style="fill:none;stroke:rgb(52,101,164);stroke-width:4.25px;"/>
        <path d="M1736.22,649.606L1807.09,649.606" style="fill:none;stroke:rgb(52,101,164);stroke-width:4.25px;"/>
        <path d="M1748.03,673.228L1795.28,673.228" style="fill:none;stroke:rgb(52,101,164);stroke-width:4.25px;"/>
    </g>
    <g transform="matrix(1,0,0,1,115.909,-200.787)">
        <path d="M330.709,425.197L354.331,425.197" style="fill:none;stroke:rgb(52,101,164);stroke-width:4.17px;"/>
    </g>
    <g transform="matrix(6.12323e-17,-1,1,6.12323e-17,-260.019,708.661)">
        <path d="M354.331,354.331L354.331,401.575L330.709,413.386L377.953,437.008L330.709,460.63L377.953,484.252L330.709,507.874L377.953,531.496L354.331,543.307L354.331,590.551" style="fill:none;stroke:rgb(52,101,164);stroke-width:4.25px;"/>
    </g>
    <g transform="matrix(6.12323e-17,-1,1,6.12323e-17,-260.019,590.551)">
        <path d="M354.331,354.331L354.331,401.575L330.709,413.386L377.953,437.008L330.709,460.63L377.953,484.252L330.709,507.874L377.953,531.496L354.331,543.307L354.331,590.551" style="fill:none;stroke:rgb(52,101,164);stroke-width:4.25px;"/>
    </g>
    <g transform="matrix(6.12323e-17,-1,1,6.12323e-17,-260.019,472.441)">
        <path d="M354.331,354.331L354.331,401.575L330.709,413.386L377.953,437.008L330.709,460.63L377.953,484.252L330.709,507.874L377.953,531.496L354.331,543.307L354.331,590.551" style="fill:none;stroke:rgb(52,101,164);stroke-width:4.25px;"/>
    </g>
    <g transform="matrix(6.12323e-17,-1,1,6.12323e-17,115.909,578.74)">
        <path d="M354.331,354.331L354.331,401.575L330.709,413.386L377.953,437.008L330.709,460.63L377.953,484.252L330.709,507.874L377.953,531.496L354.331,543.307L354.331,590.551" style="fill:none;stroke:rgb(52,101,164);stroke-width:4.25px;"/>
    </g>
    <g transform="matrix(1,0,0,1,-487.935,48.5078)">
        <text x="677.227px" y="258.937px" style="font-family:'TimesNewRomanPSMT', 'Times New Roman', serif;font-size:50px;fill:rgb(234,117,0);">R</text>
        <text x="710.577px" y="275.587px" style="font-family:'TimesNewRomanPSMT', 'Times New Roman', serif;font-size:29.15px;fill:rgb(234,117,0);">i</text>
    </g>
    <g transform="matrix(1,0,0,1,-492.358,-69.6024)">
        <text x="677.227px" y="258.937px" style="font-family:'TimesNewRomanPSMT', 'Times New Roman', serif;font-size:50px;fill:rgb(234,117,0);">R</text>
        <text x="710.577px" y="275.587px" style="font-family:'TimesNewRomanPSMT', 'Times New Roman', serif;font-size:29.15px;fill:rgb(234,117,0);">i</text>
    </g>
    <g transform="matrix(1,0,0,1,-492.18,-187.713)">
        <text x="677.227px" y="258.937px" style="font-family:'TimesNewRomanPSMT', 'Times New Roman', serif;font-size:50px;fill:rgb(234,117,0);">R</text>
        <text x="710.577px" y="275.587px" style="font-family:'TimesNewRomanPSMT', 'Times New Roman', serif;font-size:29.15px;fill:rgb(234,117,0);">i</text>
    </g>
    <g transform="matrix(1,0,0,1,-651.596,-129.015)">
        <text x="677.227px" y="258.937px" style="font-family:'TimesNewRomanPSMT', 'Times New Roman', serif;font-size:50px;fill:rgb(234,117,0);">v</text>
        <text x="702.227px" y="275.587px" style="font-family:'TimesNewRomanPSMT', 'Times New Roman', serif;font-size:29.15px;fill:rgb(234,117,0);">1</text>
    </g>
    <g transform="matrix(1,0,0,1,-353.132,-164.449)">
        <text x="677.227px" y="258.937px" style="font-family:'TimesNewRomanPSMT', 'Times New Roman', serif;font-size:33.333px;fill:rgb(234,117,0);">i</text>
        <text x="686.488px" y="270.037px" style="font-family:'TimesNewRomanPSMT', 'Times New Roman', serif;font-size:19.433px;fill:rgb(234,117,0);">1</text>
    </g>
    <g transform="matrix(1,0,0,1,-234.467,-58.5048)">
        <text x="677.227px" y="258.937px" style="font-family:'TimesNewRomanPSMT', 'Times New Roman', serif;font-size:33.333px;fill:rgb(234,117,0);">i</text>
        <text x="686.488px" y="270.037px" style="font-family:'TimesNewRomanPSMT', 'Times New Roman', serif;font-size:19.433px;fill:rgb(234,117,0);">f</text>
    </g>
    <g transform="matrix(1,0,0,1,-353.132,-46.3383)">
        <text x="677.227px" y="258.937px" style="font-family:'TimesNewRomanPSMT', 'Times New Roman', serif;font-size:33.333px;fill:rgb(234,117,0);">i</text>
        <text x="686.488px" y="270.037px" style="font-family:'TimesNewRomanPSMT', 'Times New Roman', serif;font-size:19.433px;fill:rgb(234,117,0);">2</text>
    </g>
    <g transform="matrix(1,0,0,1,-353.132,72.0106)">
        <text x="677.227px" y="258.937px" style="font-family:'TimesNewRomanPSMT', 'Times New Roman', serif;font-size:33.333px;fill:rgb(234,117,0);">i</text>
        <text x="686.488px" y="270.037px" style="font-family:'TimesNewRomanPSMT', 'Times New Roman', serif;font-size:19.433px;fill:rgb(234,117,0);">3</text>
    </g>
    <g transform="matrix(1,0,0,1,-651.596,-10.9052)">
        <text x="677.227px" y="258.937px" style="font-family:'TimesNewRomanPSMT', 'Times New Roman', serif;font-size:50px;fill:rgb(234,117,0);">v</text>
        <text x="702.227px" y="275.587px" style="font-family:'TimesNewRomanPSMT', 'Times New Roman', serif;font-size:29.15px;fill:rgb(234,117,0);">2</text>
    </g>
    <g transform="matrix(1,0,0,1,-651.596,107.205)">
        <text x="677.227px" y="258.937px" style="font-family:'TimesNewRomanPSMT', 'Times New Roman', serif;font-size:50px;fill:rgb(234,117,0);">v</text>
        <text x="702.227px" y="275.587px" style="font-family:'TimesNewRomanPSMT', 'Times New Roman', serif;font-size:29.15px;fill:rgb(234,117,0);">3</text>
    </g>
    <g transform="matrix(1,0,0,1,160.94,137.401)">
        <text x="677.227px" y="258.937px" style="font-family:'TimesNewRomanPSMT', 'Times New Roman', serif;font-size:50px;fill:rgb(234,117,0);">v</text>
        <text x="702.227px" y="275.587px" style="font-family:'TimesNewRomanPSMT', 'Times New Roman', serif;font-size:29.15px;fill:rgb(234,117,0);">out</text>
    </g>
    <g transform="matrix(1,0,0,1,-108.693,-84.0119)">
        <text x="677.227px" y="258.937px" style="font-family:'TimesNewRomanPSMT', 'Times New Roman', serif;font-size:50px;fill:rgb(234,117,0);">R</text>
        <text x="710.577px" y="275.587px" style="font-family:'TimesNewRomanPSMT', 'Times New Roman', serif;font-size:29.15px;fill:rgb(234,117,0);">f</text>
    </g>
    <g transform="matrix(1,0,0,1,-59.476,4.26326e-14)">
        <path d="M496.063,354.331L472.709,354.331L472.709,224.409L506.093,224.409" style="fill:none;stroke:rgb(52,101,164);stroke-width:4.17px;"/>
    </g>
    <g transform="matrix(0.806481,0,0,1,88.7472,1.13687e-13)">
        <path d="M765.936,224.409L791.339,224.409L791.339,389.764L885.827,389.764" style="fill:none;stroke:rgb(52,101,164);stroke-width:4.59px;"/>
    </g>
    <g transform="matrix(1,0,0,1,247.611,-307.087)">
        <circle cx="484.252" cy="696.85" r="11.811" style="fill:rgb(52,101,164);"/>
    </g>
    <g transform="matrix(1,0,0,1,-71.287,-342.52)">
        <circle cx="484.252" cy="696.85" r="11.811" style="fill:rgb(52,101,164);"/>
    </g>
    <g transform="matrix(1,0,0,1,-106.72,-342.52)">
        <circle cx="484.252" cy="696.85" r="11.811" style="fill:rgb(52,101,164);"/>
    </g>
    <g transform="matrix(1.01133,2.72722e-17,2.72722e-17,1,-65.101,4.26326e-14)">
        <path d="M496.331,425.197L472.709,425.197" style="fill:none;stroke:rgb(52,101,164);stroke-width:4.14px;"/>
    </g>
    <g transform="matrix(1,0,0,1,-59.476,-165.354)">
        <path d="M437.008,283.465L437.008,519.685L472.441,519.685" style="fill:none;stroke:rgb(52,101,164);stroke-width:4.17px;"/>
    </g>
    <g transform="matrix(0.983288,-9.937e-18,-9.937e-18,1,29.1227,0)">
        <path d="M306.532,118.11L354.331,118.11" style="fill:none;stroke:rgb(52,101,164);stroke-width:4.2px;"/>
    </g>
    <g transform="matrix(1,0,0,1,24,0)">
        <path d="M307.087,236.22L353.532,236.22" style="fill:none;stroke:rgb(52,101,164);stroke-width:4.17px;"/>
    </g>
    <g transform="matrix(1,0,0,1,24,0)">
        <path d="M306.532,354.331L354.331,354.331" style="fill:none;stroke:rgb(52,101,164);stroke-width:4.17px;"/>
    </g>
    <g transform="matrix(6.12323e-17,1,-1,6.12323e-17,448.642,-188.976)">
        <path d="M307.087,106.299L318.898,118.11L295.276,118.11L307.087,106.299Z" style="fill:rgb(52,101,164);"/>
    </g>
    <g transform="matrix(-6.12323e-17,1,1,6.12323e-17,342.898,-83.0327)">
        <path d="M307.087,106.299L318.898,118.11L295.276,118.11L307.087,106.299Z" style="fill:rgb(52,101,164);"/>
    </g>
    <g transform="matrix(6.12323e-17,1,-1,6.12323e-17,448.642,-70.8661)">
        <path d="M307.087,106.299L318.898,118.11L295.276,118.11L307.087,106.299Z" style="fill:rgb(52,101,164);"/>
    </g>
    <g transform="matrix(6.12323e-17,1,-1,6.12323e-17,448.642,47.4827)">
        <path d="M307.087,106.299L318.898,118.11L295.276,118.11L307.087,106.299Z" style="fill:rgb(52,101,164);"/>
    </g>
    <g transform="matrix(1,0,0,1,-460.63,-366.142)">
        <path d="M543.307,708.717C549.826,708.717 555.118,713.997 555.118,720.5C555.118,727.004 549.826,732.283 543.307,732.283C536.788,732.283 531.496,727.004 531.496,720.5C531.496,713.997 536.788,708.717 543.307,708.717ZM543.307,712.966C547.478,712.966 550.869,716.339 550.869,720.5C550.869,724.661 547.478,728.034 543.307,728.034C539.136,728.034 535.745,724.661 535.745,720.5C535.745,716.339 539.136,712.966 543.307,712.966Z" style="fill:rgb(52,101,164);"/>
    </g>
    <g transform="matrix(1,0,0,1,-460.63,-484.252)">
        <path d="M543.307,708.717C549.826,708.717 555.118,713.997 555.118,720.5C555.118,727.004 549.826,732.283 543.307,732.283C536.788,732.283 531.496,727.004 531.496,720.5C531.496,713.997 536.788,708.717 543.307,708.717ZM543.307,712.966C547.478,712.966 550.869,716.339 550.869,720.5C550.869,724.661 547.478,728.034 543.307,728.034C539.136,728.034 535.745,724.661 535.745,720.5C535.745,716.339 539.136,712.966 543.307,712.966Z" style="fill:rgb(52,101,164);"/>
    </g>
    <g transform="matrix(1,0,0,1,-460.63,-601.159)">
        <path d="M543.307,708.717C549.826,708.717 555.118,713.997 555.118,720.5C555.118,727.004 549.826,732.283 543.307,732.283C536.788,732.283 531.496,727.004 531.496,720.5C531.496,713.997 536.788,708.717 543.307,708.717ZM543.307,712.966C547.478,712.966 550.869,716.339 550.869,720.5C550.869,724.661 547.478,728.034 543.307,728.034C539.136,728.034 535.745,724.661 535.745,720.5C535.745,716.339 539.136,712.966 543.307,712.966Z" style="fill:rgb(52,101,164);"/>
    </g>
    <g transform="matrix(1,0,0,1,271.654,-330.709)">
        <path d="M543.307,708.717C549.826,708.717 555.118,713.997 555.118,720.5C555.118,727.004 549.826,732.283 543.307,732.283C536.788,732.283 531.496,727.004 531.496,720.5C531.496,713.997 536.788,708.717 543.307,708.717ZM543.307,712.966C547.478,712.966 550.869,716.339 550.869,720.5C550.869,724.661 547.478,728.034 543.307,728.034C539.136,728.034 535.745,724.661 535.745,720.5C535.745,716.339 539.136,712.966 543.307,712.966Z" style="fill:rgb(52,101,164);"/>
    </g>
</svg>
