<?xml version="1.0" encoding="UTF-8" standalone="no"?>
<!DOCTYPE svg PUBLIC "-//W3C//DTD SVG 1.1//EN" "http://www.w3.org/Graphics/SVG/1.1/DTD/svg11.dtd">
<svg width="100%" height="100%" viewBox="0 0 2599 827" version="1.1" xmlns="http://www.w3.org/2000/svg" xmlns:xlink="http://www.w3.org/1999/xlink" xml:space="preserve" xmlns:serif="http://www.serif.com/" style="fill-rule:evenodd;clip-rule:evenodd;stroke-linecap:round;stroke-linejoin:round;stroke-miterlimit:1.5;">
    <g transform="matrix(1.2,0,0,1,-7.81597e-14,-354.331)">
        <path d="M337.458,826.772L590.551,826.772L590.551,590.551L337.458,590.551L295.276,708.661L337.458,826.772Z" style="fill:rgb(163,255,191);stroke:black;stroke-width:3.77px;"/>
    </g>
    <g transform="matrix(1,0,0,1,62.2526,-31.6561)">
        <text x="337.076px" y="378.064px" style="font-family:'ArialMT', 'Arial', sans-serif;font-size:50px;">SYNC_</text>
        <text x="337.076px" y="429.7px" style="font-family:'ArialMT', 'Arial', sans-serif;font-size:50px;">SEG</text>
    </g>
    <g transform="matrix(1.5,0,0,1,-472.441,-354.331)">
        <rect x="708.661" y="590.551" width="472.441" height="236.22" style="fill:rgb(193,252,255);stroke:black;stroke-width:3.27px;"/>
    </g>
    <g transform="matrix(1,0,0,1,468.538,-11.9227)">
        <text x="337.076px" y="378.064px" style="font-family:'ArialMT', 'Arial', sans-serif;font-size:50px;">PROP_SEG</text>
    </g>
    <g transform="matrix(0.571429,0,0,1,624.297,-354.331)">
        <rect x="1181.1" y="590.551" width="826.772" height="236.22" style="fill:rgb(255,253,219);stroke:black;stroke-width:5.12px;"/>
    </g>
    <g transform="matrix(0.508042,0,0,1,1171.6,-354.331)">
        <path d="M1181.1,590.551L1181.1,826.772L2007.87,826.772L2111.03,708.661L2007.87,590.551L1181.1,590.551Z" style="fill:rgb(237,211,255);stroke:black;stroke-width:5.25px;"/>
    </g>
    <g transform="matrix(1,0,0,1,1021.76,-11.9227)">
        <text x="337.076px" y="378.064px" style="font-family:'ArialMT', 'Arial', sans-serif;font-size:50px;">PHASE_SEG_1</text>
    </g>
    <g transform="matrix(1,0,0,1,1477.96,-10.0482)">
        <text x="337.076px" y="378.064px" style="font-family:'ArialMT', 'Arial', sans-serif;font-size:50px;">PHASE_SEG_2</text>
    </g>
    <g transform="matrix(1,0,0,1,1466.86,-246.855)">
        <text x="337.076px" y="378.064px" style="font-family:'ArialMT', 'Arial', sans-serif;font-size:50px;">sampling point</text>
    </g>
    <g transform="matrix(1,0,0,1,1181.91,330.597)">
        <text x="337.076px" y="378.064px" style="font-family:'ArialMT', 'Arial', sans-serif;font-size:58.333px;">t</text>
        <text x="353.283px" y="397.489px" style="font-family:'ArialMT', 'Arial', sans-serif;font-size:34.008px;">bit</text>
    </g>
    <g transform="matrix(1,0,0,1,82.6764,247.92)">
        <text x="337.076px" y="378.064px" style="font-family:'ArialMT', 'Arial', sans-serif;font-size:50px;">1 t</text>
        <text x="392.667px" y="394.714px" style="font-family:'ArialMT', 'Arial', sans-serif;font-size:29.15px;">q</text>
    </g>
    <g transform="matrix(1,0,0,1,59.0551,-354.331)">
        <path d="M0,826.772L0,590.551" style="fill:none;"/>
    </g>
    <g transform="matrix(1,0,0,1,59.0551,-354.331)">
        <path d="M0,590.551L236.22,590.551L295.276,708.661L236.22,826.772L0,826.772" style="fill:rgb(231,231,231);stroke:black;stroke-width:4.17px;"/>
    </g>
    <g transform="matrix(-1,0,0,1,2539.37,-354.331)">
        <path d="M0,826.772L0,590.551" style="fill:none;"/>
    </g>
    <g transform="matrix(-1,0,0,1,2539.37,-354.331)">
        <path d="M0,590.551L236.22,590.551L295.276,708.661L236.22,826.772L0,826.772" style="fill:rgb(231,231,231);stroke:black;stroke-width:4.17px;"/>
    </g>
    <g transform="matrix(1,0,0,0.75,59.0551,-177.165)">
        <path d="M295.276,472.441L295.276,944.882" style="fill:none;stroke:black;stroke-width:4.71px;stroke-linecap:butt;stroke-dasharray:4.71,4.71,4.71,0;"/>
    </g>
    <g transform="matrix(-1,0,0,0.75,2539.37,-177.165)">
        <path d="M295.276,472.441L295.276,944.882" style="fill:none;stroke:black;stroke-width:4.71px;stroke-linecap:butt;stroke-dasharray:4.71,4.71,4.71,0;"/>
    </g>
    <g transform="matrix(1,0,0,1,-224.811,-31.6561)">
        <text x="337.076px" y="378.064px" style="font-family:'ArialMT', 'Arial', sans-serif;font-size:50px;">PREV</text>
        <text x="366.263px" y="429.7px" style="font-family:'ArialMT', 'Arial', sans-serif;font-size:50px;">BIT</text>
    </g>
    <g transform="matrix(1,0,0,1,2002.56,-33.0897)">
        <text x="338.48px" y="378.064px" style="font-family:'ArialMT', 'Arial', sans-serif;font-size:50px;">NEXT</text>
        <text x="366.263px" y="429.7px" style="font-family:'ArialMT', 'Arial', sans-serif;font-size:50px;">BIT</text>
    </g>
    <g transform="matrix(-1,1.22465e-16,-1.22465e-16,-1,4133.86,708.661)">
        <g transform="matrix(-1,-1.22465e-16,1.22465e-16,-1,4133.86,708.661)">
            <path d="M1790.4,163.287L1771.65,200.787L1752.9,163.287L1790.4,163.287Z"/>
            <path d="M1771.65,59.055L1771.65,170.787" style="fill:none;stroke:black;stroke-width:4.17px;stroke-linecap:butt;"/>
        </g>
    </g>
    <path d="M413.386,708.661L2893.7,708.661" style="fill:none;"/>
    <g transform="matrix(0.761905,0,0,1,39.3701,-59.0551)">
        <g transform="matrix(1.3125,-0,-0,1,-51.6732,59.0551)">
            <path d="M391.831,630.856L354.331,649.606L391.831,668.356L391.831,630.856Z"/>
            <path d="M2206.59,630.856L2244.09,649.606L2206.59,668.356L2206.59,630.856Z"/>
            <path d="M384.331,649.606L2214.09,649.606" style="fill:none;stroke:black;stroke-width:4.17px;stroke-linecap:butt;"/>
        </g>
    </g>
    <g transform="matrix(1,0,0,1,-141.732,-11.811)">
        <path d="M496.063,566.929L496.063,614.173" style="fill:none;stroke:black;stroke-width:4.17px;stroke-linecap:butt;"/>
    </g>
    <g transform="matrix(1,0,0,1,94.4882,-11.811)">
        <path d="M496.063,566.929L496.063,614.173" style="fill:none;stroke:black;stroke-width:4.17px;stroke-linecap:butt;"/>
    </g>
    <g transform="matrix(1,0,0,1,330.709,-11.811)">
        <path d="M496.063,566.929L496.063,614.173" style="fill:none;stroke:black;stroke-width:4.17px;stroke-linecap:butt;"/>
    </g>
    <g transform="matrix(1,0,0,1,566.929,-11.811)">
        <path d="M496.063,566.929L496.063,614.173" style="fill:none;stroke:black;stroke-width:4.17px;stroke-linecap:butt;"/>
    </g>
    <g transform="matrix(1,0,0,1,803.15,-11.811)">
        <path d="M496.063,566.929L496.063,614.173" style="fill:none;stroke:black;stroke-width:4.17px;stroke-linecap:butt;"/>
    </g>
    <g transform="matrix(1,0,0,1,1039.37,-11.811)">
        <path d="M496.063,566.929L496.063,614.173" style="fill:none;stroke:black;stroke-width:4.17px;stroke-linecap:butt;"/>
    </g>
    <g transform="matrix(1,0,0,1,1275.59,-11.811)">
        <path d="M496.063,566.929L496.063,614.173" style="fill:none;stroke:black;stroke-width:4.17px;stroke-linecap:butt;"/>
    </g>
    <g transform="matrix(1,0,0,1,1511.81,-11.811)">
        <path d="M496.063,566.929L496.063,614.173" style="fill:none;stroke:black;stroke-width:4.17px;stroke-linecap:butt;"/>
    </g>
    <g transform="matrix(1,0,0,1,1748.03,-11.811)">
        <path d="M496.063,566.929L496.063,614.173" style="fill:none;stroke:black;stroke-width:4.17px;stroke-linecap:butt;"/>
    </g>
    <g transform="matrix(0.571429,0,0,1,118.11,-59.0551)">
        <g transform="matrix(1.75,-0,-0,1,-206.693,59.0551)">
            <path d="M379.331,566.24L354.331,578.74L379.331,591.24L379.331,566.24Z"/>
            <path d="M565.551,566.24L590.551,578.74L565.551,591.24L565.551,566.24Z"/>
            <path d="M374.331,578.74L570.551,578.74" style="fill:none;stroke:black;stroke-width:4.17px;stroke-linecap:butt;"/>
        </g>
    </g>
</svg>
