<?xml version="1.0" encoding="UTF-8" standalone="no"?>
<!DOCTYPE svg PUBLIC "-//W3C//DTD SVG 1.1//EN" "http://www.w3.org/Graphics/SVG/1.1/DTD/svg11.dtd">
<svg width="100%" height="100%" viewBox="0 0 3189 1654" version="1.1" xmlns="http://www.w3.org/2000/svg" xmlns:xlink="http://www.w3.org/1999/xlink" xml:space="preserve" xmlns:serif="http://www.serif.com/" style="fill-rule:evenodd;clip-rule:evenodd;stroke-linecap:round;stroke-linejoin:round;stroke-miterlimit:1.5;">
    <g transform="matrix(1,0,0,1,1146.34,-232.176)">
        <text x="337.076px" y="378.064px" style="font-family:'ArialMT', 'Arial', sans-serif;font-size:50px;fill:rgb(255,0,7);">(3) Returned signal has to</text>
        <text x="337.076px" y="429.7px" style="font-family:'ArialMT', 'Arial', sans-serif;font-size:50px;fill:rgb(255,0,7);">reach the transmitter before</text>
        <text x="337.076px" y="481.336px" style="font-family:'ArialMT', 'Arial', sans-serif;font-size:50px;fill:rgb(255,0,7);">the end of PROP_SEG, as this</text>
        <text x="337.076px" y="532.972px" style="font-family:'ArialMT', 'Arial', sans-serif;font-size:50px;fill:rgb(255,0,7);">is the earliest time the transmitter</text>
        <text x="337.076px" y="584.607px" style="font-family:'ArialMT', 'Arial', sans-serif;font-size:50px;fill:rgb(255,0,7);">may sample the bus (due to resync)</text>
    </g>
    <g transform="matrix(1.2,0,0,1,259.843,-141.732)">
        <path d="M337.458,826.772L590.551,826.772L590.551,590.551L337.458,590.551L295.276,708.661L337.458,826.772Z" style="fill:rgb(163,255,191);stroke:black;stroke-width:3.77px;"/>
    </g>
    <g transform="matrix(1.2,0,0,1,543.307,645.6)">
        <path d="M337.458,826.772L590.551,826.772L590.551,590.551L337.458,590.551L295.276,708.661L337.458,826.772Z" style="fill:rgb(163,255,191);stroke:black;stroke-width:3.77px;"/>
    </g>
    <g transform="matrix(1,0,0,1,322.095,180.942)">
        <text x="337.076px" y="378.064px" style="font-family:'ArialMT', 'Arial', sans-serif;font-size:50px;">SYNC_</text>
        <text x="337.076px" y="429.7px" style="font-family:'ArialMT', 'Arial', sans-serif;font-size:50px;">SEG</text>
    </g>
    <g transform="matrix(1,0,0,1,605.56,968.275)">
        <text x="337.076px" y="378.064px" style="font-family:'ArialMT', 'Arial', sans-serif;font-size:50px;">SYNC_</text>
        <text x="337.076px" y="429.7px" style="font-family:'ArialMT', 'Arial', sans-serif;font-size:50px;">SEG</text>
    </g>
    <g transform="matrix(1.5,0,0,1,-212.598,-141.732)">
        <rect x="708.661" y="590.551" width="472.441" height="236.22" style="fill:rgb(193,252,255);stroke:black;stroke-width:3.27px;"/>
    </g>
    <g transform="matrix(1.5,0,0,1,70.8661,645.6)">
        <rect x="708.661" y="590.551" width="472.441" height="236.22" style="fill:rgb(193,252,255);stroke:black;stroke-width:3.27px;"/>
    </g>
    <g transform="matrix(1,0,0,1,728.38,200.676)">
        <text x="337.076px" y="378.064px" style="font-family:'ArialMT', 'Arial', sans-serif;font-size:50px;">PROP_SEG</text>
    </g>
    <g transform="matrix(1,0,0,1,1011.84,988.008)">
        <text x="337.076px" y="378.064px" style="font-family:'ArialMT', 'Arial', sans-serif;font-size:50px;">PROP_SEG</text>
    </g>
    <g transform="matrix(0.571429,0,0,1,884.139,-141.732)">
        <rect x="1181.1" y="590.551" width="826.772" height="236.22" style="fill:rgb(255,253,219);stroke:black;stroke-width:5.12px;"/>
    </g>
    <g transform="matrix(0.571429,0,0,1,1167.6,645.6)">
        <rect x="1181.1" y="590.551" width="826.772" height="236.22" style="fill:rgb(255,253,219);stroke:black;stroke-width:5.12px;"/>
    </g>
    <g transform="matrix(0.508042,0,0,1,1431.45,-141.732)">
        <path d="M1181.1,590.551L1181.1,826.772L2007.87,826.772L2111.03,708.661L2007.87,590.551L1181.1,590.551Z" style="fill:rgb(237,211,255);stroke:black;stroke-width:5.25px;"/>
    </g>
    <g transform="matrix(0.508042,0,0,1,1714.91,645.6)">
        <path d="M1181.1,590.551L1181.1,826.772L2007.87,826.772L2111.03,708.661L2007.87,590.551L1181.1,590.551Z" style="fill:rgb(237,211,255);stroke:black;stroke-width:5.25px;"/>
    </g>
    <g transform="matrix(1,0,0,1,1281.6,200.676)">
        <text x="337.076px" y="378.064px" style="font-family:'ArialMT', 'Arial', sans-serif;font-size:50px;">PHASE_SEG_1</text>
    </g>
    <g transform="matrix(1,0,0,1,1565.06,988.008)">
        <text x="337.076px" y="378.064px" style="font-family:'ArialMT', 'Arial', sans-serif;font-size:50px;">PHASE_SEG_1</text>
    </g>
    <g transform="matrix(1,0,0,1,1737.81,202.55)">
        <text x="337.076px" y="378.064px" style="font-family:'ArialMT', 'Arial', sans-serif;font-size:50px;">PHASE_SEG_2</text>
    </g>
    <g transform="matrix(1,0,0,1,2021.27,989.883)">
        <text x="337.076px" y="378.064px" style="font-family:'ArialMT', 'Arial', sans-serif;font-size:50px;">PHASE_SEG_2</text>
    </g>
    <g transform="matrix(1,0,0,1,846.669,642)">
        <text x="337.076px" y="378.064px" style="font-family:'ArialMT', 'Arial', sans-serif;font-size:50px;fill:rgb(255,0,7);">(2) Due to bus propagation delay<tspan x="1061.61px 1075.5px " y="378.064px 378.064px ">, </tspan>the reciever</text>
        <text x="350.968px" y="429.7px" style="font-family:'ArialMT', 'Arial', sans-serif;font-size:50px;fill:rgb(255,0,7);">thinks the bit time starts here, and drives</text>
        <text x="350.968px" y="481.336px" style="font-family:'ArialMT', 'Arial', sans-serif;font-size:50px;fill:rgb(255,0,7);">the bus to the dominant state for the acknowledge bit.</text>
    </g>
    <g transform="matrix(1,0,0,1,-267.382,-264.346)">
        <text x="337.076px" y="378.064px" style="font-family:'ArialMT', 'Arial', sans-serif;font-size:50px;fill:rgb(255,0,7);">(1) Start of bit, according to the transmitter<tspan x="1270.82px " y="378.064px ">.</tspan></text>
        <text x="337.076px" y="429.7px" style="font-family:'ArialMT', 'Arial', sans-serif;font-size:50px;fill:rgb(255,0,7);">This is the acknowledge bit so the transmitter</text>
        <text x="337.076px" y="481.336px" style="font-family:'ArialMT', 'Arial', sans-serif;font-size:50px;fill:rgb(255,0,7);">leaves it in the recessive state.</text>
    </g>
    <g transform="matrix(1,0,0,1,318.898,-141.732)">
        <path d="M0,826.772L0,590.551" style="fill:none;"/>
    </g>
    <g transform="matrix(1,0,0,1,602.362,645.6)">
        <path d="M0,826.772L0,590.551" style="fill:none;"/>
    </g>
    <g transform="matrix(1,0,0,1,318.898,-141.732)">
        <path d="M0,590.551L236.22,590.551L295.276,708.661L236.22,826.772L0,826.772" style="fill:rgb(231,231,231);stroke:black;stroke-width:4.17px;"/>
    </g>
    <g transform="matrix(1,0,0,1,602.362,645.6)">
        <path d="M0,590.551L236.22,590.551L295.276,708.661L236.22,826.772L0,826.772" style="fill:rgb(231,231,231);stroke:black;stroke-width:4.17px;"/>
    </g>
    <g transform="matrix(-1,0,0,1,2799.21,-141.732)">
        <path d="M0,826.772L0,590.551" style="fill:none;"/>
    </g>
    <g transform="matrix(-1,0,0,1,3082.68,645.6)">
        <path d="M0,826.772L0,590.551" style="fill:none;"/>
    </g>
    <g transform="matrix(-1,0,0,1,2799.21,-141.732)">
        <path d="M0,590.551L236.22,590.551L295.276,708.661L236.22,826.772L0,826.772" style="fill:rgb(231,231,231);stroke:black;stroke-width:4.17px;"/>
    </g>
    <g transform="matrix(-1,0,0,1,3082.68,645.6)">
        <path d="M0,590.551L236.22,590.551L295.276,708.661L236.22,826.772L0,826.772" style="fill:rgb(231,231,231);stroke:black;stroke-width:4.17px;"/>
    </g>
    <g transform="matrix(1,0,0,0.75,318.898,35.4331)">
        <path d="M295.276,472.441L295.276,944.882" style="fill:none;stroke:black;stroke-width:4.71px;stroke-linecap:butt;stroke-dasharray:4.71,4.71,4.71,0;"/>
    </g>
    <g transform="matrix(1,0,0,0.75,602.362,822.765)">
        <path d="M295.276,472.441L295.276,944.882" style="fill:none;stroke:black;stroke-width:4.71px;stroke-linecap:butt;stroke-dasharray:4.71,4.71,4.71,0;"/>
    </g>
    <g transform="matrix(-1,0,0,0.75,2799.21,35.4331)">
        <path d="M295.276,472.441L295.276,944.882" style="fill:none;stroke:black;stroke-width:4.71px;stroke-linecap:butt;stroke-dasharray:4.71,4.71,4.71,0;"/>
    </g>
    <g transform="matrix(-1,0,0,0.75,3082.68,822.765)">
        <path d="M295.276,472.441L295.276,944.882" style="fill:none;stroke:black;stroke-width:4.71px;stroke-linecap:butt;stroke-dasharray:4.71,4.71,4.71,0;"/>
    </g>
    <g transform="matrix(1,0,0,1,35.0313,180.942)">
        <text x="337.076px" y="378.064px" style="font-family:'ArialMT', 'Arial', sans-serif;font-size:50px;">PREV</text>
        <text x="366.263px" y="429.7px" style="font-family:'ArialMT', 'Arial', sans-serif;font-size:50px;">BIT</text>
    </g>
    <g transform="matrix(1,0,0,1,38.0442,519.573)">
        <text x="148.209px" y="378.064px" style="font-family:'Arial-ItalicMT', 'Arial', sans-serif;font-style:italic;font-size:50px;">TRANSMITTER NODE</text>
    </g>
    <g transform="matrix(1,0,0,1,30.8569,603.219)">
        <text x="198.172px" y="378.064px" style="font-family:'Arial-ItalicMT', 'Arial', sans-serif;font-style:italic;font-size:50px;">RECEIVER NODE</text>
    </g>
    <g transform="matrix(1,0,0,1,318.496,968.275)">
        <text x="337.076px" y="378.064px" style="font-family:'ArialMT', 'Arial', sans-serif;font-size:50px;">PREV</text>
        <text x="366.263px" y="429.7px" style="font-family:'ArialMT', 'Arial', sans-serif;font-size:50px;">BIT</text>
    </g>
    <g transform="matrix(1,0,0,1,2262.4,179.509)">
        <text x="338.48px" y="378.064px" style="font-family:'ArialMT', 'Arial', sans-serif;font-size:50px;">NEXT</text>
        <text x="366.263px" y="429.7px" style="font-family:'ArialMT', 'Arial', sans-serif;font-size:50px;">BIT</text>
    </g>
    <g transform="matrix(1,0,0,1,2545.87,966.841)">
        <text x="338.48px" y="378.064px" style="font-family:'ArialMT', 'Arial', sans-serif;font-size:50px;">NEXT</text>
        <text x="366.263px" y="429.7px" style="font-family:'ArialMT', 'Arial', sans-serif;font-size:50px;">BIT</text>
    </g>
    <g transform="matrix(-0.930261,0.366899,-1.6704,-4.23524,4026.13,2255.4)">
        <g transform="matrix(-0.930261,-0.0805885,0.366899,-0.20433,2917.85,785.306)">
            <path d="M978.19,929.252L980.315,971.124L945.542,947.701L978.19,929.252Z" style="fill:rgb(255,0,7);"/>
            <path d="M738.262,398.955C1036.41,673.556 803.26,646.913 965.556,945.006" style="fill:none;stroke:rgb(255,0,7);stroke-width:4.17px;stroke-linecap:butt;"/>
        </g>
    </g>
    <g transform="matrix(1,0,0,1,118.11,200.787)">
        <path d="M496.063,566.929L496.063,614.173" style="fill:none;stroke:black;stroke-width:4.17px;stroke-linecap:butt;"/>
    </g>
    <g transform="matrix(1,0,0,1,401.575,988.12)">
        <path d="M496.063,566.929L496.063,614.173" style="fill:none;stroke:black;stroke-width:4.17px;stroke-linecap:butt;"/>
    </g>
    <g transform="matrix(1,0,0,1,354.331,200.787)">
        <path d="M496.063,566.929L496.063,614.173" style="fill:none;stroke:black;stroke-width:4.17px;stroke-linecap:butt;"/>
    </g>
    <g transform="matrix(1,0,0,1,637.795,988.12)">
        <path d="M496.063,566.929L496.063,614.173" style="fill:none;stroke:black;stroke-width:4.17px;stroke-linecap:butt;"/>
    </g>
    <g transform="matrix(1,0,0,1,590.551,200.787)">
        <path d="M496.063,566.929L496.063,614.173" style="fill:none;stroke:black;stroke-width:4.17px;stroke-linecap:butt;"/>
    </g>
    <g transform="matrix(1,0,0,1,874.016,988.12)">
        <path d="M496.063,566.929L496.063,614.173" style="fill:none;stroke:black;stroke-width:4.17px;stroke-linecap:butt;"/>
    </g>
    <g transform="matrix(1,0,0,1,826.772,200.787)">
        <path d="M496.063,566.929L496.063,614.173" style="fill:none;stroke:black;stroke-width:4.17px;stroke-linecap:butt;"/>
    </g>
    <g transform="matrix(1,0,0,1,1110.24,988.12)">
        <path d="M496.063,566.929L496.063,614.173" style="fill:none;stroke:black;stroke-width:4.17px;stroke-linecap:butt;"/>
    </g>
    <g transform="matrix(1,0,0,1,1062.99,200.787)">
        <path d="M496.063,566.929L496.063,614.173" style="fill:none;stroke:black;stroke-width:4.17px;stroke-linecap:butt;"/>
    </g>
    <g transform="matrix(1,0,0,1,1346.46,988.12)">
        <path d="M496.063,566.929L496.063,614.173" style="fill:none;stroke:black;stroke-width:4.17px;stroke-linecap:butt;"/>
    </g>
    <g transform="matrix(1,0,0,1,1299.21,200.787)">
        <path d="M496.063,566.929L496.063,614.173" style="fill:none;stroke:black;stroke-width:4.17px;stroke-linecap:butt;"/>
    </g>
    <g transform="matrix(1,0,0,1,1582.68,988.12)">
        <path d="M496.063,566.929L496.063,614.173" style="fill:none;stroke:black;stroke-width:4.17px;stroke-linecap:butt;"/>
    </g>
    <g transform="matrix(1,0,0,1,1535.43,200.787)">
        <path d="M496.063,566.929L496.063,614.173" style="fill:none;stroke:black;stroke-width:4.17px;stroke-linecap:butt;"/>
    </g>
    <g transform="matrix(1,0,0,1,1818.9,988.12)">
        <path d="M496.063,566.929L496.063,614.173" style="fill:none;stroke:black;stroke-width:4.17px;stroke-linecap:butt;"/>
    </g>
    <g transform="matrix(1,0,0,1,1771.65,200.787)">
        <path d="M496.063,566.929L496.063,614.173" style="fill:none;stroke:black;stroke-width:4.17px;stroke-linecap:butt;"/>
    </g>
    <g transform="matrix(1,0,0,1,2055.12,988.12)">
        <path d="M496.063,566.929L496.063,614.173" style="fill:none;stroke:black;stroke-width:4.17px;stroke-linecap:butt;"/>
    </g>
    <g transform="matrix(1,0,0,1,2007.87,200.787)">
        <path d="M496.063,566.929L496.063,614.173" style="fill:none;stroke:black;stroke-width:4.17px;stroke-linecap:butt;"/>
    </g>
    <g transform="matrix(1,0,0,1,2291.34,988.12)">
        <path d="M496.063,566.929L496.063,614.173" style="fill:none;stroke:black;stroke-width:4.17px;stroke-linecap:butt;"/>
    </g>
    <g transform="matrix(1,0,0,1,259.843,212.598)">
        <path d="M354.331,153.543L472.441,153.543L472.441,35.433L590.551,35.433" style="fill:none;stroke:rgb(255,0,58);stroke-width:4.17px;stroke-linecap:butt;"/>
    </g>
    <g transform="matrix(1,0,0,1,555.118,952.461)">
        <path d="M354.331,153.543L472.441,153.543L472.441,35.433L590.551,35.433" style="fill:none;stroke:rgb(255,0,58);stroke-width:4.17px;stroke-linecap:butt;"/>
    </g>
    <g transform="matrix(1,0,0,1,838.583,212.598)">
        <path d="M354.331,153.543L472.441,153.543L472.441,35.433L590.551,35.433" style="fill:none;stroke:rgb(255,0,58);stroke-width:4.17px;stroke-linecap:butt;"/>
    </g>
    <g transform="matrix(1,0,0,1.26316,259.843,136.138)">
        <g transform="matrix(1,-0,-0,0.791667,-259.843,-107.776)">
            <path d="M1221.43,427.274L1240.16,389.764L1258.93,427.253L1221.43,427.274Z" style="fill:rgb(255,0,7);"/>
            <path d="M1086.61,956.693C1028.49,411.924 1234.54,751.767 1240.17,419.764" style="fill:none;stroke:rgb(255,0,7);stroke-width:4.17px;stroke-linecap:butt;"/>
        </g>
    </g>
    <g transform="matrix(1.17619,0,0,1,-147.919,-23.622)">
        <path d="M236.22,944.882L2716.53,944.882" style="fill:none;stroke:black;stroke-width:15.27px;stroke-linecap:butt;stroke-dasharray:15.27,15.27;"/>
    </g>
</svg>
