<?xml version="1.0" encoding="UTF-8" standalone="no"?>
<!DOCTYPE svg PUBLIC "-//W3C//DTD SVG 1.1//EN" "http://www.w3.org/Graphics/SVG/1.1/DTD/svg11.dtd">
<svg width="100%" height="100%" viewBox="0 0 1182 1418" version="1.1" xmlns="http://www.w3.org/2000/svg" xmlns:xlink="http://www.w3.org/1999/xlink" xml:space="preserve" xmlns:serif="http://www.serif.com/" style="fill-rule:evenodd;clip-rule:evenodd;stroke-linecap:round;stroke-linejoin:round;stroke-miterlimit:1.5;">
    <g transform="matrix(1,0,0,2,236.22,-354.331)">
        <path d="M236.22,590.551L236.22,826.772L472.441,826.772L472.441,236.22L236.22,236.22L236.22,472.441" style="fill:none;stroke:rgb(52,101,164);stroke-width:5.27px;"/>
    </g>
    <g transform="matrix(0.666667,0,0,0.666667,334.646,-19.685)">
        <rect x="259.843" y="259.843" width="70.866" height="70.866" style="fill:none;stroke:rgb(52,101,164);stroke-width:6.25px;"/>
    </g>
    <g transform="matrix(0.666667,0,0,0.666667,334.646,570.866)">
        <rect x="259.843" y="259.843" width="70.866" height="70.866" style="fill:none;stroke:rgb(52,101,164);stroke-width:6.25px;"/>
    </g>
    <g transform="matrix(0.666667,0,0,0.666667,452.756,570.866)">
        <rect x="259.843" y="259.843" width="70.866" height="70.866" style="fill:none;stroke:rgb(52,101,164);stroke-width:6.25px;"/>
    </g>
    <g transform="matrix(0.666667,0,0,0.666667,452.756,-19.685)">
        <rect x="259.843" y="259.843" width="70.866" height="70.866" style="fill:none;stroke:rgb(52,101,164);stroke-width:6.25px;"/>
    </g>
    <g transform="matrix(0.666667,0,0,0.666667,334.646,98.4252)">
        <rect x="259.843" y="259.843" width="70.866" height="70.866" style="fill:none;stroke:rgb(52,101,164);stroke-width:6.25px;"/>
    </g>
    <g transform="matrix(0.666667,0,0,0.666667,334.646,688.976)">
        <rect x="259.843" y="259.843" width="70.866" height="70.866" style="fill:none;stroke:rgb(52,101,164);stroke-width:6.25px;"/>
    </g>
    <g transform="matrix(0.666667,0,0,0.666667,452.756,688.976)">
        <rect x="259.843" y="259.843" width="70.866" height="70.866" style="fill:none;stroke:rgb(52,101,164);stroke-width:6.25px;"/>
    </g>
    <g transform="matrix(0.666667,0,0,0.666667,452.756,98.4252)">
        <rect x="259.843" y="259.843" width="70.866" height="70.866" style="fill:none;stroke:rgb(52,101,164);stroke-width:6.25px;"/>
    </g>
    <g transform="matrix(0.666667,0,0,0.666667,334.646,216.535)">
        <rect x="259.843" y="259.843" width="70.866" height="70.866" style="fill:none;stroke:rgb(52,101,164);stroke-width:6.25px;"/>
    </g>
    <g transform="matrix(0.666667,0,0,0.666667,334.646,807.087)">
        <rect x="259.843" y="259.843" width="70.866" height="70.866" style="fill:none;stroke:rgb(52,101,164);stroke-width:6.25px;"/>
    </g>
    <g transform="matrix(0.666667,0,0,0.666667,452.756,807.087)">
        <rect x="259.843" y="259.843" width="70.866" height="70.866" style="fill:none;stroke:rgb(52,101,164);stroke-width:6.25px;"/>
    </g>
    <g transform="matrix(0.666667,0,0,0.666667,452.756,216.535)">
        <rect x="259.843" y="259.843" width="70.866" height="70.866" style="fill:none;stroke:rgb(52,101,164);stroke-width:6.25px;"/>
    </g>
    <g transform="matrix(0.666667,0,0,0.666667,334.646,334.646)">
        <rect x="259.843" y="259.843" width="70.866" height="70.866" style="fill:none;stroke:rgb(52,101,164);stroke-width:6.25px;"/>
    </g>
    <g transform="matrix(0.666667,0,0,0.666667,334.646,925.197)">
        <rect x="259.843" y="259.843" width="70.866" height="70.866" style="fill:none;stroke:rgb(52,101,164);stroke-width:6.25px;"/>
    </g>
    <g transform="matrix(0.666667,0,0,0.666667,452.756,925.197)">
        <rect x="259.843" y="259.843" width="70.866" height="70.866" style="fill:none;stroke:rgb(52,101,164);stroke-width:6.25px;"/>
    </g>
    <g transform="matrix(0.666667,0,0,0.666667,452.756,334.646)">
        <rect x="259.843" y="259.843" width="70.866" height="70.866" style="fill:none;stroke:rgb(52,101,164);stroke-width:6.25px;"/>
    </g>
    <g transform="matrix(0.666667,0,0,0.666667,334.646,452.756)">
        <rect x="259.843" y="259.843" width="70.866" height="70.866" style="fill:none;stroke:rgb(52,101,164);stroke-width:6.25px;"/>
    </g>
    <g transform="matrix(0.666667,0,0,0.666667,334.646,1043.31)">
        <rect x="259.843" y="259.843" width="70.866" height="70.866" style="fill:none;stroke:rgb(52,101,164);stroke-width:6.25px;"/>
    </g>
    <g transform="matrix(0.666667,0,0,0.666667,452.756,1043.31)">
        <rect x="259.843" y="259.843" width="70.866" height="70.866" style="fill:none;stroke:rgb(52,101,164);stroke-width:6.25px;"/>
    </g>
    <g transform="matrix(0.666667,0,0,0.666667,452.756,452.756)">
        <rect x="259.843" y="259.843" width="70.866" height="70.866" style="fill:none;stroke:rgb(52,101,164);stroke-width:6.25px;"/>
    </g>
    <g transform="matrix(1,0,0,1,-362.612,-65.2186)">
        <text x="677.227px" y="258.937px" style="font-family:'TimesNewRomanPSMT', 'Times New Roman', serif;font-size:50px;fill:rgb(234,117,0);">VCC 1</text>
    </g>
    <g transform="matrix(1,0,0,1,-544.623,289.539)">
        <text x="677.227px" y="258.937px" style="font-family:'TimesNewRomanPSMT', 'Times New Roman', serif;font-size:50px;fill:rgb(234,117,0);">TMS/</text>
        <text x="793.926px" y="258.937px" style="font-family:'TimesNewRomanPSMT', 'Times New Roman', serif;font-size:50px;fill:rgb(234,0,187);">SWDIO</text>
        <text x="970.294px" y="258.937px" style="font-family:'TimesNewRomanPSMT', 'Times New Roman', serif;font-size:50px;fill:rgb(234,117,0);">7</text>
    </g>
    <g transform="matrix(1,0,0,1,-619.302,407.65)">
        <text x="677.227px" y="258.937px" style="font-family:'TimesNewRomanPSMT', 'Times New Roman', serif;font-size:50px;fill:rgb(234,117,0);">TCLK/</text>
        <text x="821.661px" y="258.937px" style="font-family:'TimesNewRomanPSMT', 'Times New Roman', serif;font-size:50px;fill:rgb(234,0,187);">SWDCLK</text>
        <text x="1045.27px" y="258.937px" style="font-family:'TimesNewRomanPSMT', 'Times New Roman', serif;font-size:50px;fill:rgb(234,117,0);">9</text>
    </g>
    <g transform="matrix(1,0,0,1,-514.517,643.87)">
        <text x="677.227px" y="258.937px" style="font-family:'TimesNewRomanPSMT', 'Times New Roman', serif;font-size:50px;fill:rgb(234,117,0);">TDO/</text>
        <text x="793.878px" y="258.937px" style="font-family:'TimesNewRomanPSMT', 'Times New Roman', serif;font-size:50px;fill:rgb(234,0,187);">SWO</text>
        <text x="917.486px" y="258.937px" style="font-family:'TimesNewRomanPSMT', 'Times New Roman', serif;font-size:50px;fill:rgb(234,117,0);">13</text>
    </g>
    <g transform="matrix(1,0,0,1,-429.263,171.429)">
        <text x="677.227px" y="258.937px" style="font-family:'TimesNewRomanPSMT', 'Times New Roman', serif;font-size:50px;fill:rgb(234,117,0);">TDI/</text>
        <text x="774.42px" y="258.937px" style="font-family:'TimesNewRomanPSMT', 'Times New Roman', serif;font-size:50px;fill:rgb(234,0,187);">NC</text>
        <text x="856.378px" y="258.937px" style="font-family:'TimesNewRomanPSMT', 'Times New Roman', serif;font-size:50px;fill:rgb(234,117,0);">5</text>
    </g>
    <g transform="matrix(1,0,0,1,-440.677,761.553)">
        <text x="677.227px" y="258.937px" style="font-family:'TimesNewRomanPSMT', 'Times New Roman', serif;font-size:50px;fill:rgb(234,117,0);">RESET<tspan x="829.107px 841.607px " y="258.937px 258.937px "> 1</tspan>5</text>
    </g>
    <g transform="matrix(1,0,0,1,49.1969,525.333)">
        <text x="677.227px" y="258.937px" style="font-family:'TimesNewRomanPSMT', 'Times New Roman', serif;font-size:50px;fill:rgb(234,117,0);">12 GND</text>
    </g>
    <g transform="matrix(1,0,0,1,49.1969,643.443)">
        <text x="677.227px" y="258.937px" style="font-family:'TimesNewRomanPSMT', 'Times New Roman', serif;font-size:50px;fill:rgb(234,117,0);">14 GND</text>
    </g>
    <g transform="matrix(1,0,0,1,49.1969,756.963)">
        <text x="677.227px" y="258.937px" style="font-family:'TimesNewRomanPSMT', 'Times New Roman', serif;font-size:50px;fill:rgb(234,117,0);">16 GND</text>
    </g>
    <g transform="matrix(1,0,0,1,49.1969,874.922)">
        <text x="677.227px" y="258.937px" style="font-family:'TimesNewRomanPSMT', 'Times New Roman', serif;font-size:50px;fill:rgb(234,117,0);">18 GND</text>
    </g>
    <g transform="matrix(1,0,0,1,49.1969,993.184)">
        <text x="677.227px" y="258.937px" style="font-family:'TimesNewRomanPSMT', 'Times New Roman', serif;font-size:50px;fill:rgb(234,117,0);">20 GND</text>
    </g>
    <g transform="matrix(1,0,0,1,-383.465,52.8916)">
        <text x="677.227px" y="258.937px" style="font-family:'TimesNewRomanPSMT', 'Times New Roman', serif;font-size:50px;fill:rgb(234,117,0);">TRST<tspan x="798.565px 811.065px " y="258.937px 258.937px "> 3</tspan></text>
    </g>
    <g transform="matrix(1,0,0,1,-413.296,525.333)">
        <text x="677.227px" y="258.937px" style="font-family:'TimesNewRomanPSMT', 'Times New Roman', serif;font-size:50px;fill:rgb(234,117,0);">R<tspan x="707.574px 738.116px " y="258.937px 258.937px ">TC</tspan>K 1<tspan x="843.218px " y="258.937px ">1</tspan></text>
    </g>
    <g transform="matrix(1,0,0,1,-357.67,879.663)">
        <text x="677.227px" y="258.937px" style="font-family:'TimesNewRomanPSMT', 'Times New Roman', serif;font-size:50px;fill:rgb(234,117,0);">NC 17</text>
    </g>
    <g transform="matrix(1,0,0,1,-359.402,997.773)">
        <text x="677.227px" y="258.937px" style="font-family:'TimesNewRomanPSMT', 'Times New Roman', serif;font-size:50px;fill:rgb(234,117,0);">NC 19</text>
    </g>
    <g transform="matrix(1,0,0,1,55.7154,-65.2186)">
        <text x="677.227px" y="258.937px" style="font-family:'TimesNewRomanPSMT', 'Times New Roman', serif;font-size:50px;fill:rgb(234,117,0);">2 <tspan x="713.824px 749.932px " y="258.937px 258.937px ">VC</tspan>C (optional)</text>
    </g>
    <g transform="matrix(1,0,0,1,53.982,48.3506)">
        <text x="677.227px" y="258.937px" style="font-family:'TimesNewRomanPSMT', 'Times New Roman', serif;font-size:50px;fill:rgb(234,117,0);">4 GND</text>
    </g>
    <g transform="matrix(1,0,0,1,54.275,171.002)">
        <text x="677.227px" y="258.937px" style="font-family:'TimesNewRomanPSMT', 'Times New Roman', serif;font-size:50px;fill:rgb(234,117,0);">6 GND</text>
    </g>
    <g transform="matrix(1,0,0,1,52.6148,289.112)">
        <text x="677.227px" y="258.937px" style="font-family:'TimesNewRomanPSMT', 'Times New Roman', serif;font-size:50px;fill:rgb(234,117,0);">8 GND</text>
    </g>
    <g transform="matrix(1,0,0,1,51.7359,407.222)">
        <text x="677.227px" y="258.937px" style="font-family:'TimesNewRomanPSMT', 'Times New Roman', serif;font-size:50px;fill:rgb(234,117,0);">10 GND</text>
    </g>
</svg>
