<?xml version="1.0" encoding="UTF-8" standalone="no"?>
<!DOCTYPE svg PUBLIC "-//W3C//DTD SVG 1.1//EN" "http://www.w3.org/Graphics/SVG/1.1/DTD/svg11.dtd">
<svg width="100%" height="100%" viewBox="0 0 473 355" version="1.1" xmlns="http://www.w3.org/2000/svg" xmlns:xlink="http://www.w3.org/1999/xlink" xml:space="preserve" xmlns:serif="http://www.serif.com/" style="fill-rule:evenodd;clip-rule:evenodd;stroke-linecap:round;stroke-linejoin:round;stroke-miterlimit:1.5;">
    <g id="i-source-independent" transform="matrix(1,0,0,1,-2125.98,-1027.56)">
        <g transform="matrix(1,0,0,1,295.276,413.386)">
            <circle cx="1948.82" cy="767.717" r="59.055" style="fill:none;stroke:rgb(52,101,164);stroke-width:4.25px;"/>
        </g>
        <g transform="matrix(1,0,0,1,236.22,354.331)">
            <path d="M2007.87,767.717L2007.87,708.661" style="fill:none;stroke:rgb(52,101,164);stroke-width:4.25px;"/>
        </g>
        <g transform="matrix(1,0,0,1,236.22,354.331)">
            <path d="M2007.87,885.827L2007.87,944.882" style="fill:none;stroke:rgb(52,101,164);stroke-width:4.25px;"/>
        </g>
        <g transform="matrix(1,-1.54008e-15,-1.54008e-15,1.2,236.22,82.6772)">
            <g transform="matrix(1,1.2834e-15,1.2834e-15,0.833333,1889.76,787.402)">
                <path d="M130.858,143.605L118.11,118.11L105.363,143.605L130.858,143.605Z" style="fill:rgb(52,101,164);"/>
                <path d="M118.11,138.506L118.11,188.976" style="fill:none;stroke:rgb(52,101,164);stroke-width:4.25px;"/>
            </g>
        </g>
    </g>
    <g id="i-source-controlled" transform="matrix(1,0,0,1,-2114.17,-1027.56)">
        <g transform="matrix(1,0,0,1,460.63,354.331)">
            <path d="M2007.87,767.717L2007.87,708.661" style="fill:none;stroke:rgb(52,101,164);stroke-width:4.25px;"/>
        </g>
        <g transform="matrix(1,0,0,1,460.63,354.331)">
            <path d="M2007.87,885.827L2007.87,944.882" style="fill:none;stroke:rgb(52,101,164);stroke-width:4.25px;"/>
        </g>
        <g transform="matrix(1,-1.54008e-15,-1.54008e-15,1.2,460.63,82.6772)">
            <g transform="matrix(1,1.2834e-15,1.2834e-15,0.833333,1653.54,787.402)">
                <path d="M367.078,143.605L354.331,118.11L341.583,143.605L367.078,143.605Z" style="fill:rgb(52,101,164);"/>
                <path d="M354.331,138.506L354.331,188.976" style="fill:none;stroke:rgb(52,101,164);stroke-width:4.25px;"/>
            </g>
        </g>
        <path d="M2468.5,1122.05L2527.56,1181.1L2468.5,1240.16L2409.45,1181.1L2468.5,1122.05Z" style="fill:none;stroke:rgb(52,101,164);stroke-width:4.17px;"/>
    </g>
    <g transform="matrix(1,0,0,1,-141.732,-236.22)">
        <text x="190.33px" y="537.593px" style="font-family:'ArialMT', 'Arial', sans-serif;font-size:25px;fill:rgb(234,117,0);">Independent</text>
        <text x="179.948px" y="563.411px" style="font-family:'ArialMT', 'Arial', sans-serif;font-size:25px;fill:rgb(234,117,0);">current source</text>
    </g>
    <g transform="matrix(1,0,0,1,94.4882,-236.22)">
        <text x="202.866px" y="537.593px" style="font-family:'ArialMT', 'Arial', sans-serif;font-size:25px;fill:rgb(234,117,0);">Controlled</text>
        <text x="179.948px" y="563.411px" style="font-family:'ArialMT', 'Arial', sans-serif;font-size:25px;fill:rgb(234,117,0);">current source</text>
    </g>
</svg>
