<?xml version="1.0" encoding="UTF-8" standalone="no"?>
<!DOCTYPE svg PUBLIC "-//W3C//DTD SVG 1.1//EN" "http://www.w3.org/Graphics/SVG/1.1/DTD/svg11.dtd">
<svg width="100%" height="100%" viewBox="0 0 945 1063" version="1.1" xmlns="http://www.w3.org/2000/svg" xmlns:xlink="http://www.w3.org/1999/xlink" xml:space="preserve" xmlns:serif="http://www.serif.com/" style="fill-rule:evenodd;clip-rule:evenodd;stroke-linecap:round;stroke-linejoin:round;stroke-miterlimit:1.5;">
    <g transform="matrix(1,0,0,1.4,118.11,-212.598)">
        <path d="M236.22,573.678L236.22,826.772L472.441,826.772L472.441,236.22L236.22,236.22L236.22,489.314" style="fill:none;stroke:rgb(52,101,164);stroke-width:6.85px;"/>
    </g>
    <g transform="matrix(0.666667,0,0,0.666667,216.535,-19.685)">
        <rect x="259.843" y="259.843" width="70.866" height="70.866" style="fill:none;stroke:rgb(52,101,164);stroke-width:6.25px;"/>
    </g>
    <g transform="matrix(0.666667,0,0,0.666667,216.535,570.866)">
        <rect x="259.843" y="259.843" width="70.866" height="70.866" style="fill:none;stroke:rgb(52,101,164);stroke-width:6.25px;"/>
    </g>
    <g transform="matrix(0.666667,0,0,0.666667,334.646,570.866)">
        <rect x="259.843" y="259.843" width="70.866" height="70.866" style="fill:none;stroke:rgb(52,101,164);stroke-width:6.25px;"/>
    </g>
    <g transform="matrix(0.666667,0,0,0.666667,334.646,-19.685)">
        <rect x="259.843" y="259.843" width="70.866" height="70.866" style="fill:none;stroke:rgb(52,101,164);stroke-width:6.25px;"/>
    </g>
    <g transform="matrix(0.666667,0,0,0.666667,216.535,98.4252)">
        <rect x="259.843" y="259.843" width="70.866" height="70.866" style="fill:none;stroke:rgb(52,101,164);stroke-width:6.25px;"/>
    </g>
    <g transform="matrix(0.666667,0,0,0.666667,216.535,688.976)">
        <rect x="259.843" y="259.843" width="70.866" height="70.866" style="fill:none;stroke:rgb(52,101,164);stroke-width:6.25px;"/>
    </g>
    <g transform="matrix(0.666667,0,0,0.666667,334.646,688.976)">
        <rect x="259.843" y="259.843" width="70.866" height="70.866" style="fill:none;stroke:rgb(52,101,164);stroke-width:6.25px;"/>
    </g>
    <g transform="matrix(0.666667,0,0,0.666667,334.646,98.4252)">
        <rect x="259.843" y="259.843" width="70.866" height="70.866" style="fill:none;stroke:rgb(52,101,164);stroke-width:6.25px;"/>
    </g>
    <g transform="matrix(0.666667,0,0,0.666667,216.535,216.535)">
        <rect x="259.843" y="259.843" width="70.866" height="70.866" style="fill:none;stroke:rgb(52,101,164);stroke-width:6.25px;"/>
    </g>
    <g transform="matrix(0.666667,0,0,0.666667,334.646,216.535)">
        <rect x="259.843" y="259.843" width="70.866" height="70.866" style="fill:none;stroke:rgb(52,101,164);stroke-width:6.25px;"/>
    </g>
    <g transform="matrix(0.666667,0,0,0.666667,216.535,334.646)">
        <rect x="259.843" y="259.843" width="70.866" height="70.866" style="fill:none;stroke:rgb(52,101,164);stroke-width:6.25px;"/>
    </g>
    <g transform="matrix(0.666667,0,0,0.666667,334.646,334.646)">
        <rect x="259.843" y="259.843" width="70.866" height="70.866" style="fill:none;stroke:rgb(52,101,164);stroke-width:6.25px;"/>
    </g>
    <g transform="matrix(0.666667,0,0,0.666667,216.535,452.756)">
        <rect x="259.843" y="259.843" width="70.866" height="70.866" style="fill:none;stroke:rgb(52,101,164);stroke-width:6.25px;"/>
    </g>
    <g transform="matrix(0.666667,0,0,0.666667,334.646,452.756)">
        <rect x="259.843" y="259.843" width="70.866" height="70.866" style="fill:none;stroke:rgb(52,101,164);stroke-width:6.25px;"/>
    </g>
    <g transform="matrix(1,0,0,1,-480.723,-65.2186)">
        <text x="677.227px" y="258.937px" style="font-family:'TimesNewRomanPSMT', 'Times New Roman', serif;font-size:50px;fill:rgb(234,117,0);">TMS 1</text>
    </g>
    <g transform="matrix(1,0,0,1,-484.556,289.112)">
        <text x="677.227px" y="258.937px" style="font-family:'TimesNewRomanPSMT', 'Times New Roman', serif;font-size:50px;fill:rgb(234,117,0);">TDO 7</text>
    </g>
    <g transform="matrix(1,0,0,1,-512.217,407.222)">
        <text x="677.227px" y="258.937px" style="font-family:'TimesNewRomanPSMT', 'Times New Roman', serif;font-size:50px;fill:rgb(234,117,0);">R<tspan x="707.574px 738.116px " y="258.937px 258.937px ">TC</tspan>K 9</text>
    </g>
    <g transform="matrix(1,0,0,1,-540.977,643.443)">
        <text x="677.227px" y="258.937px" style="font-family:'TimesNewRomanPSMT', 'Times New Roman', serif;font-size:50px;fill:rgb(234,117,0);">EMU0 13</text>
    </g>
    <g transform="matrix(1,0,0,1,-512.312,171.002)">
        <text x="677.227px" y="258.937px" style="font-family:'TimesNewRomanPSMT', 'Times New Roman', serif;font-size:50px;fill:rgb(234,117,0);">VCCS 5</text>
    </g>
    <g transform="matrix(1,0,0,1,-68.9134,525.333)">
        <text x="677.227px" y="258.937px" style="font-family:'TimesNewRomanPSMT', 'Times New Roman', serif;font-size:50px;fill:rgb(234,117,0);">12 GND</text>
    </g>
    <g transform="matrix(1,0,0,1,-68.9134,643.443)">
        <text x="677.227px" y="258.937px" style="font-family:'TimesNewRomanPSMT', 'Times New Roman', serif;font-size:50px;fill:rgb(234,117,0);">14 EMU1</text>
    </g>
    <g transform="matrix(1,0,0,1,-463.169,52.9404)">
        <text x="677.227px" y="258.937px" style="font-family:'TimesNewRomanPSMT', 'Times New Roman', serif;font-size:50px;fill:rgb(234,117,0);">TDI 3</text>
    </g>
    <g transform="matrix(1,0,0,1,-489.534,525.333)">
        <text x="677.227px" y="258.937px" style="font-family:'TimesNewRomanPSMT', 'Times New Roman', serif;font-size:50px;fill:rgb(234,117,0);">TCK1<tspan x="800.372px " y="258.937px ">1</tspan></text>
    </g>
    <g transform="matrix(1,0,0,1,-62.3948,-65.2186)">
        <text x="677.227px" y="258.937px" style="font-family:'TimesNewRomanPSMT', 'Times New Roman', serif;font-size:50px;fill:rgb(234,117,0);">2 <tspan x="713.824px 744.366px " y="258.937px 258.937px ">TR</tspan>ST</text>
    </g>
    <g transform="matrix(1,0,0,1,-64.1282,48.3506)">
        <text x="677.227px" y="258.937px" style="font-family:'TimesNewRomanPSMT', 'Times New Roman', serif;font-size:50px;fill:rgb(234,117,0);">4 GND</text>
    </g>
    <g transform="matrix(1,0,0,1,-63.8353,171.002)">
        <text x="677.227px" y="258.937px" style="font-family:'TimesNewRomanPSMT', 'Times New Roman', serif;font-size:50px;fill:rgb(234,117,0);">6 NC</text>
    </g>
    <g transform="matrix(1,0,0,1,-65.4954,289.112)">
        <text x="677.227px" y="258.937px" style="font-family:'TimesNewRomanPSMT', 'Times New Roman', serif;font-size:50px;fill:rgb(234,117,0);">8 GND</text>
    </g>
    <g transform="matrix(1,0,0,1,-66.3743,407.222)">
        <text x="677.227px" y="258.937px" style="font-family:'TimesNewRomanPSMT', 'Times New Roman', serif;font-size:50px;fill:rgb(234,117,0);">10 GND</text>
    </g>
</svg>
