<?xml version="1.0" encoding="UTF-8" standalone="no"?>
<!DOCTYPE svg PUBLIC "-//W3C//DTD SVG 1.1//EN" "http://www.w3.org/Graphics/SVG/1.1/DTD/svg11.dtd">
<svg width="100%" height="100%" viewBox="0 0 709 709" version="1.1" xmlns="http://www.w3.org/2000/svg" xmlns:xlink="http://www.w3.org/1999/xlink" xml:space="preserve" xmlns:serif="http://www.serif.com/" style="fill-rule:evenodd;clip-rule:evenodd;stroke-linecap:round;stroke-linejoin:round;stroke-miterlimit:1.5;">
    <g id="TranBjtNpn" transform="matrix(1,0,0,1,-1421.1,-828.661)">
        <path d="M1889.76,1181.1L1889.76,1240.16L1830.71,1275.59" style="fill:none;stroke:rgb(52,101,164);stroke-width:4.25px;"/>
        <path d="M1771.65,1299.21L1818.9,1299.21" style="fill:none;stroke:rgb(52,101,164);stroke-width:4.25px;"/>
        <path d="M1889.76,1417.32L1889.76,1358.27L1830.71,1322.84" style="fill:none;stroke:rgb(52,101,164);stroke-width:4.25px;"/>
        <rect x="1818.9" y="1263.78" width="11.811" height="70.866" style="fill:rgb(52,101,164);"/>
        <path d="M1830.71,1263.78L1818.9,1263.78L1818.9,1334.65L1830.71,1334.65L1830.71,1263.78ZM1826.46,1268.03L1826.46,1330.4C1826.46,1330.4 1823.15,1330.4 1823.15,1330.4C1823.15,1330.4 1823.15,1268.03 1823.15,1268.03L1826.46,1268.03Z" style="fill:rgb(52,101,164);"/>
        <g transform="matrix(-0.521732,0.85311,-0.85311,-0.521732,3988.96,510.556)">
            <path d="M1818.9,1370.08L1830.71,1393.7L1807.09,1393.7L1818.9,1370.08Z" style="fill:rgb(52,101,164);"/>
            <path d="M1818.9,1370.08L1830.71,1393.7L1807.09,1393.7L1818.9,1370.08ZM1818.9,1379.58L1823.83,1389.45C1823.83,1389.45 1813.96,1389.45 1813.96,1389.45L1818.9,1379.58Z" style="fill:rgb(52,101,164);"/>
        </g>
    </g>
    <g transform="matrix(1,0,0,1,114.331,-238.11)">
        <path d="M354.331,354.331L354.331,401.575L330.709,413.386L377.953,437.008L330.709,460.63L377.953,484.252L330.709,507.874L377.953,531.496L354.331,543.307L354.331,590.551" style="fill:none;stroke:rgb(52,101,164);stroke-width:4.25px;"/>
    </g>
    <g transform="matrix(6.12323e-17,-1,1,6.12323e-17,-240,824.882)">
        <path d="M354.331,354.331L354.331,401.575L330.709,413.386L377.953,437.008L330.709,460.63L377.953,484.252L330.709,507.874L377.953,531.496L354.331,543.307L354.331,590.551" style="fill:none;stroke:rgb(52,101,164);stroke-width:4.25px;"/>
    </g>
    <g id="GndSignal" transform="matrix(1,0,0,1,-1539.21,-1.88976)">
        <path d="M2007.87,590.551L2007.87,625.984L2043.31,625.984L2007.87,676.359L1972.44,625.984L2007.87,625.984" style="fill:none;stroke:rgb(52,101,164);stroke-width:4.25px;"/>
    </g>
    <g id="Pwr" transform="matrix(1,0,0,1,-1421.1,-474.331)">
        <g transform="matrix(1,0,0,1,-2.27374e-13,-35.4331)">
            <path d="M1854.33,590.551L1925.2,590.551" style="fill:none;stroke:rgb(52,101,164);stroke-width:4.25px;"/>
        </g>
        <g transform="matrix(1,0,0,1,-2.27374e-13,-35.4331)">
            <path d="M1889.76,590.551L1889.76,625.984" style="fill:none;stroke:rgb(52,101,164);stroke-width:4.25px;"/>
        </g>
    </g>
    <g transform="matrix(1,0,0,1,-15.5906,-332.598)">
        <circle cx="484.252" cy="696.85" r="11.811" style="fill:rgb(52,101,164);"/>
    </g>
    <g transform="matrix(1,0,0,1,-240,-120)">
        <path d="M708.661,484.252L826.772,484.252" style="fill:none;stroke:rgb(52,101,164);stroke-width:4.17px;"/>
    </g>
    <g transform="matrix(1,0,0,1,-440.787,-249.977)">
        <path d="M543.307,708.717C549.826,708.717 555.118,713.997 555.118,720.5C555.118,727.004 549.826,732.283 543.307,732.283C536.788,732.283 531.496,727.004 531.496,720.5C531.496,713.997 536.788,708.717 543.307,708.717ZM543.307,712.966C547.478,712.966 550.869,716.339 550.869,720.5C550.869,724.661 547.478,728.034 543.307,728.034C539.136,728.034 535.745,724.661 535.745,720.5C535.745,716.339 539.136,712.966 543.307,712.966Z" style="fill:rgb(52,101,164);"/>
    </g>
    <g transform="matrix(1,0,0,1,55.2756,-356.276)">
        <path d="M543.307,708.717C549.826,708.717 555.118,713.997 555.118,720.5C555.118,727.004 549.826,732.283 543.307,732.283C536.788,732.283 531.496,727.004 531.496,720.5C531.496,713.997 536.788,708.717 543.307,708.717ZM543.307,712.966C547.478,712.966 550.869,716.339 550.869,720.5C550.869,724.661 547.478,728.034 543.307,728.034C539.136,728.034 535.745,724.661 535.745,720.5C535.745,716.339 539.136,712.966 543.307,712.966Z" style="fill:rgb(52,101,164);"/>
    </g>
    <g transform="matrix(1,0,0,1,-254.68,-192.614)">
        <text x="677.227px" y="258.937px" style="font-family:'ArialMT', 'Arial', sans-serif;font-size:50px;fill:rgb(234,117,0);">+5V</text>
    </g>
    <g transform="matrix(1,0,0,1,-141.599,-41.6118)">
        <text x="677.227px" y="258.937px" style="font-family:'ArialMT', 'Arial', sans-serif;font-size:50px;fill:rgb(234,117,0);">R</text>
        <text x="713.336px" y="275.587px" style="font-family:'ArialMT', 'Arial', sans-serif;font-size:29.15px;fill:rgb(234,117,0);">C</text>
    </g>
    <g transform="matrix(1,0,0,1,-465.613,88.6374)">
        <text x="677.227px" y="258.937px" style="font-family:'ArialMT', 'Arial', sans-serif;font-size:50px;fill:rgb(234,117,0);">R</text>
        <text x="713.336px" y="275.587px" style="font-family:'ArialMT', 'Arial', sans-serif;font-size:29.15px;fill:rgb(234,117,0);">B</text>
    </g>
    <g transform="matrix(1,0,0,1,-638.626,229.51)">
        <text x="677.227px" y="258.937px" style="font-family:'ArialMT', 'Arial', sans-serif;font-size:50px;fill:rgb(234,117,0);">A</text>
    </g>
    <g transform="matrix(1,0,0,1,-48.0753,123.183)">
        <text x="677.227px" y="258.937px" style="font-family:'ArialMT', 'Arial', sans-serif;font-size:50px;fill:rgb(234,117,0);">Y</text>
    </g>
    <g transform="matrix(1,0,0,1,-158.273,29.2543)">
        <text x="677.227px" y="258.937px" style="font-family:'ArialMT', 'Arial', sans-serif;font-size:50px;fill:rgb(234,117,0);">1kΩ</text>
    </g>
    <g transform="matrix(1,0,0,1,-497.195,165.339)">
        <text x="677.227px" y="258.937px" style="font-family:'ArialMT', 'Arial', sans-serif;font-size:50px;fill:rgb(234,117,0);">10kΩ</text>
    </g>
</svg>
