<?xml version="1.0" encoding="UTF-8" standalone="no"?><!DOCTYPE svg PUBLIC "-//W3C//DTD SVG 1.1//EN" "http://www.w3.org/Graphics/SVG/1.1/DTD/svg11.dtd"><svg width="100%" height="100%" viewBox="0 0 1276 662" version="1.1" xmlns="http://www.w3.org/2000/svg" xmlns:xlink="http://www.w3.org/1999/xlink" xml:space="preserve" xmlns:serif="http://www.serif.com/" style="fill-rule:evenodd;clip-rule:evenodd;stroke-linecap:round;stroke-linejoin:round;stroke-miterlimit:1.5;"><path id="wire-v" d="M141.732,188.976l0,354.331" style="fill:none;stroke:#3465a4;stroke-width:4.25px;"/><path id="wire-v1" serif:id="wire-v" d="M496.063,188.976l-0,354.331" style="fill:none;stroke:#3465a4;stroke-width:4.25px;"/><path id="wire-v2" serif:id="wire-v" d="M850.394,188.976l-0,354.331" style="fill:none;stroke:#3465a4;stroke-width:4.25px;"/><path id="wire-v3" serif:id="wire-v" d="M141.732,307.087l897.638,-0" style="fill:none;stroke:#3465a4;stroke-width:4.25px;"/><path id="wire-v4" serif:id="wire-v" d="M141.732,188.976l897.638,0" style="fill:none;stroke:#3465a4;stroke-width:4.25px;"/><path id="wire-v5" serif:id="wire-v" d="M141.732,425.197l895.419,-0" style="fill:none;stroke:#3465a4;stroke-width:4.25px;"/><path id="wire-v6" serif:id="wire-v" d="M141.732,543.307l895.419,0" style="fill:none;stroke:#3465a4;stroke-width:4.25px;"/><g transform="matrix(50,0,0,50,122.381,265.683)"></g><text x="66.766px" y="265.683px" style="font-family:'ArialMT', 'Arial', sans-serif;font-size:50px;fill:#ea7500;">37</text><g transform="matrix(6.12323e-17,-1,1,6.12323e-17,-2267.78,1017.1)"><g transform="matrix(33.3333,0,0,33.3333,806.843,2315.66)"></g><text x="508.52px" y="2315.66px" style="font-family:'ArialMT', 'Arial', sans-serif;font-size:33.333px;fill:#ea7500;">Advertising Channel</text></g><g transform="matrix(33.3333,0,0,33.3333,462.974,614.412)"></g><text x="181.366px" y="614.412px" style="font-family:'ArialMT', 'Arial', sans-serif;font-size:33.333px;fill:#ea7500;">Advertising interval</text><g transform="matrix(1.5625,0,0,1.5625,-989.373,-634.693)"><text x="809.559px" y="430.866px" style="font-family:'ArialMT', 'Arial', sans-serif;font-size:13.333px;fill:#ea7500;">Peripheral switches</text><text x="825.484px" y="444.636px" style="font-family:'ArialMT', 'Arial', sans-serif;font-size:13.333px;fill:#ea7500;">to receive and</text><g transform="matrix(13.3333,0,0,13.3333,925.168,458.405)"></g><text x="809.556px" y="458.405px" style="font-family:'ArialMT', 'Arial', sans-serif;font-size:13.333px;fill:#ea7500;">listens for response</text></g><g transform="matrix(1.5625,0,0,1.5625,-800.139,-575.374)"><text x="828.833px" y="430.866px" style="font-family:'ArialMT', 'Arial', sans-serif;font-size:13.333px;fill:#ea7500;">SCAN_REQ:</text><g transform="matrix(13.3333,0,0,13.3333,913.313,444.636)"></g><text x="821.411px" y="444.636px" style="font-family:'ArialMT', 'Arial', sans-serif;font-size:13.333px;fill:#ea7500;">Sent by Central</text></g><g transform="matrix(1.5625,0,0,1.5625,-1226.89,-614.343)"><text x="836.613px" y="430.866px" style="font-family:'ArialMT', 'Arial', sans-serif;font-size:13.333px;fill:#ea7500;">ADV_IND:</text><text x="824.751px" y="444.636px" style="font-family:'ArialMT', 'Arial', sans-serif;font-size:13.333px;fill:#ea7500;">Advertisement</text><g transform="matrix(13.3333,0,0,13.3333,925.536,458.405)"></g><text x="809.188px" y="458.405px" style="font-family:'ArialMT', 'Arial', sans-serif;font-size:13.333px;fill:#ea7500;">(sent by Peripheral)</text></g><g transform="matrix(1.5625,0,0,1.5625,-612.715,-554.846)"><text x="829.572px" y="430.866px" style="font-family:'ArialMT', 'Arial', sans-serif;font-size:13.333px;fill:#ea7500;">SCAN_RSP:</text><g transform="matrix(13.3333,0,0,13.3333,922.209,444.636)"></g><text x="812.515px" y="444.636px" style="font-family:'ArialMT', 'Arial', sans-serif;font-size:13.333px;fill:#ea7500;">Sent by Peripheral</text></g><g transform="matrix(20.8333,0,0,20.8333,693.144,381.309)"></g><text x="586.617px" y="381.309px" style="font-family:'ArialMT', 'Arial', sans-serif;font-size:20.833px;fill:#ea7500;">Active scan</text><g transform="matrix(1.5625,0,0,1.5625,-199.945,-319.068)"><text x="817.359px" y="430.866px" style="font-family:'ArialMT', 'Arial', sans-serif;font-size:13.333px;fill:#ea7500;">CONNECT_IND:</text><text x="812.141px" y="444.636px" style="font-family:'ArialMT', 'Arial', sans-serif;font-size:13.333px;fill:#ea7500;">Connect Indication</text><g transform="matrix(13.3333,0,0,13.3333,917.753,458.405)"></g><text x="816.971px" y="458.405px" style="font-family:'ArialMT', 'Arial', sans-serif;font-size:13.333px;fill:#ea7500;">(Sent by Central)</text></g><g transform="matrix(1.5625,0,0,1.5625,-353.504,-175.313)"><text x="822.548px" y="430.866px" style="font-family:'ArialMT', 'Arial', sans-serif;font-size:13.333px;fill:#ea7500;">CONNECTION</text><g transform="matrix(13.3333,0,0,13.3333,893.046,444.636)"></g><text x="841.678px" y="444.636px" style="font-family:'ArialMT', 'Arial', sans-serif;font-size:13.333px;fill:#ea7500;">ST<tspan x="857.727px 866.62px 876.008px 884.152px " y="444.636px 444.636px 444.636px 444.636px ">ARTS</tspan></text></g><g transform="matrix(50,0,0,50,124.382,383.793)"></g><text x="68.767px" y="383.793px" style="font-family:'ArialMT', 'Arial', sans-serif;font-size:50px;fill:#ea7500;">38</text><g transform="matrix(50,0,0,50,124.382,501.903)"></g><text x="68.767px" y="501.903px" style="font-family:'ArialMT', 'Arial', sans-serif;font-size:50px;fill:#ea7500;">39</text><rect x="153.543" y="200.787" width="35.433" height="94.488" style="fill:#ebebeb;stroke:#3465a4;stroke-width:4.17px;"/><rect x="507.874" y="200.787" width="35.433" height="94.488" style="fill:#ebebeb;stroke:#3465a4;stroke-width:4.17px;"/><rect x="862.205" y="200.787" width="35.433" height="94.488" style="fill:#ebebeb;stroke:#3465a4;stroke-width:4.17px;"/><rect x="944.882" y="318.898" width="35.433" height="94.488" style="fill:#ebebeb;stroke:#3465a4;stroke-width:4.17px;"/><rect x="194.882" y="200.787" width="35.433" height="94.488" style="fill:#ebebeb;stroke:#3465a4;stroke-width:4.17px;stroke-linecap:butt;stroke-dasharray:4.17,4.17;"/><rect x="903.543" y="200.787" width="35.433" height="94.488" style="fill:#ebebeb;stroke:#3465a4;stroke-width:4.17px;stroke-linecap:butt;stroke-dasharray:4.17,4.17;"/><rect x="549.213" y="200.787" width="35.433" height="94.488" style="fill:#fff9bf;stroke:#d79f01;stroke-width:4.17px;stroke-linecap:butt;"/><rect x="590.551" y="200.787" width="35.433" height="94.488" style="fill:#dcffc0;stroke:#499c00;stroke-width:4.17px;stroke-linecap:butt;"/><rect x="986.22" y="318.898" width="35.433" height="94.488" style="fill:#dcffc0;stroke:#499c00;stroke-width:4.17px;stroke-linecap:butt;"/><rect x="277.559" y="319.142" width="35.433" height="94.488" style="fill:#ebebeb;stroke:#3465a4;stroke-width:4.17px;stroke-linecap:butt;stroke-dasharray:4.17,4.17;"/><rect x="501.969" y="183.071" width="135.827" height="129.921" style="fill:none;stroke:#ea7500;stroke-width:4.17px;stroke-linecap:butt;stroke-dasharray:4.17,4.17;"/><rect x="360.236" y="437.008" width="35.433" height="94.488" style="fill:#ebebeb;stroke:#3465a4;stroke-width:4.17px;stroke-linecap:butt;stroke-dasharray:4.17,4.17;"/><rect x="236.22" y="319.142" width="35.433" height="94.488" style="fill:#ebebeb;stroke:#3465a4;stroke-width:4.17px;"/><rect x="318.898" y="437.008" width="35.433" height="94.488" style="fill:#ebebeb;stroke:#3465a4;stroke-width:4.17px;"/><path d="M237.481,197.786l-18.977,8.907l4.26,-20.526l14.717,11.619Z" style="fill:#ea7500;"/><path d="M307.087,94.488c-0,0 -56.557,71.638 -79.288,100.432" style="fill:none;stroke:#ea7500;stroke-width:4.17px;stroke-linecap:butt;"/><path d="M563.988,197.751l-2.964,20.753l-14.824,-14.823l17.788,-5.93Z" style="fill:#ea7500;"/><path d="M531.496,129.921c0,0 16.438,49.313 24.784,74.353" style="fill:none;stroke:#ea7500;stroke-width:4.17px;stroke-linecap:butt;"/><path d="M634.474,207.37l-20.301,5.228l7.997,-19.377l12.304,14.149Z" style="fill:#ea7500;"/><path d="M682.087,153.543c-0,0 -37.275,32.413 -56.595,49.213" style="fill:none;stroke:#ea7500;stroke-width:4.17px;stroke-linecap:butt;"/><path d="M176.901,189.456l-5.641,20.19l-12.767,-16.627l18.408,-3.563Z" style="fill:#ea7500;"/><path d="M153.543,118.11c0,0 9.857,50.928 14.867,76.809" style="fill:none;stroke:#ea7500;stroke-width:4.17px;stroke-linecap:butt;"/><path d="M1029.37,385.027l-18.059,-10.644l19.351,-8.061l-1.292,18.705Z" style="fill:#ea7500;"/><path d="M1062.99,377.953c0,-0 -21.454,-1.482 -36.717,-2.537" style="fill:none;stroke:#ea7500;stroke-width:4.17px;stroke-linecap:butt;"/><path d="M994.562,443.947l9.375,-18.75l9.375,18.75l-18.75,-0Z" style="fill:#ea7500;"/><path d="M1003.94,472.441l0,-32.244" style="fill:none;stroke:#ea7500;stroke-width:4.17px;stroke-linecap:butt;"/><path d="M614.219,340.115l-0.046,-20.963l16.798,12.542l-16.752,8.421Z" style="fill:#ea7500;"/><path d="M637.795,366.142c0,-0 -9.903,-19.699 -16.885,-33.588" style="fill:none;stroke:#ea7500;stroke-width:4.17px;stroke-linecap:butt;"/><path d="M477.313,576.304l18.75,-9.375l-18.75,-9.375l-0,18.75Z" style="fill:#ea7500;"/><path d="M160.482,576.304l-18.75,-9.375l18.75,-9.375l0,18.75Z" style="fill:#ea7500;"/><path d="M481.063,566.929l-324.331,0" style="fill:none;stroke:#ea7500;stroke-width:4.17px;stroke-linecap:butt;"/><path d="M831.644,576.304l18.75,-9.375l-18.75,-9.375l-0,18.75Z" style="fill:#ea7500;"/><path d="M514.813,576.304l-18.75,-9.375l18.75,-9.375l-0,18.75Z" style="fill:#ea7500;"/><path d="M835.394,566.929l-324.331,0" style="fill:none;stroke:#ea7500;stroke-width:4.17px;stroke-linecap:butt;"/><path d="M869.144,576.304l-18.75,-9.375l18.75,-9.375l-0,18.75Z" style="fill:#ea7500;"/><path d="M1039.37,566.929l-173.976,0" style="fill:none;stroke:#ea7500;stroke-width:4.17px;stroke-linecap:butt;"/></svg>