<?xml version="1.0" encoding="UTF-8" standalone="no"?><!DOCTYPE svg PUBLIC "-//W3C//DTD SVG 1.1//EN" "http://www.w3.org/Graphics/SVG/1.1/DTD/svg11.dtd"><svg width="100%" height="100%" viewBox="0 0 674 745" version="1.1" xmlns="http://www.w3.org/2000/svg" xmlns:xlink="http://www.w3.org/1999/xlink" xml:space="preserve" xmlns:serif="http://www.serif.com/" style="fill-rule:evenodd;clip-rule:evenodd;stroke-linecap:round;stroke-linejoin:round;stroke-miterlimit:1.5;"><g id="opamp-small"><path d="M307.087,224.374l59.055,0" style="fill:none;stroke:#3465a4;stroke-width:4.25px;"/><path d="M307.087,295.24l59.055,0" style="fill:none;stroke:#3465a4;stroke-width:4.25px;"/><path d="M366.142,165.319l-0,189.012" style="fill:none;stroke:#3465a4;stroke-width:4.25px;"/><path d="M366.142,354.331l177.165,-94.261l-177.165,-94.751" style="fill:none;stroke:#3465a4;stroke-width:4.25px;"/><path d="M543.307,259.825l59.055,-0" style="fill:none;stroke:#3465a4;stroke-width:4.25px;"/><g transform="matrix(69.746,0,0,69.746,406.739,243.313)"></g><text x="383.513px" y="243.313px" style="font-family:'ArialMT', 'Arial', sans-serif;font-size:69.746px;fill:#3465a4;">-</text><g transform="matrix(50,0,0,50,409.743,312.873)"></g><text x="380.543px" y="312.873px" style="font-family:'ArialMT', 'Arial', sans-serif;font-size:50px;fill:#3465a4;">+</text></g><path id="wire-v" d="M307.087,106.299l-0,118.11" style="fill:none;stroke:#3465a4;stroke-width:4.25px;"/><path id="wire-v1" serif:id="wire-v" d="M307.087,295.276l-0,147.5" style="fill:none;stroke:#3465a4;stroke-width:4.25px;"/><path id="wire-v2" serif:id="wire-v" d="M602.362,106.299l0,307.087" style="fill:none;stroke:#3465a4;stroke-width:4.25px;"/><path id="wire-h" d="M543.307,106.299l59.055,0" style="fill:none;stroke:#3465a4;stroke-width:4.25px;"/><path id="wire-h1" serif:id="wire-h" d="M259.843,106.299l106.299,0" style="fill:none;stroke:#3465a4;stroke-width:4.25px;"/><path id="wire-h2" serif:id="wire-h" d="M59.055,106.299l59.055,0" style="fill:none;stroke:#3465a4;stroke-width:4.25px;"/><path id="wire-h3" serif:id="wire-h" d="M531.496,413.386l70.866,-0" style="fill:none;stroke:#3465a4;stroke-width:4.25px;"/><path id="wire-h4" serif:id="wire-h" d="M303.264,413.386l62.878,-0" style="fill:none;stroke:#3465a4;stroke-width:4.25px;"/><path id="wire-h5" serif:id="wire-h" d="M307.087,295.248l-0,-0" style="fill:none;stroke:#3465a4;stroke-width:4.25px;"/><path id="wire-h6" serif:id="wire-h" d="M271.654,413.358l35.433,-0" style="fill:none;stroke:#3465a4;stroke-width:4.25px;"/><circle id="connection-inside" cx="602.362" cy="259.843" r="11.811" style="fill:#3465a4;"/><circle id="connection-inside1" serif:id="connection-inside" cx="307.087" cy="106.299" r="11.811" style="fill:#3465a4;"/><circle id="connection-inside2" serif:id="connection-inside" cx="307.087" cy="413.386" r="11.811" style="fill:#3465a4;"/><g id="resistor-american-short"><path d="M543.307,106.299l-23.622,0l-11.811,-23.622l-23.622,47.244l-23.622,-47.244l-23.622,47.244l-23.622,-47.244l-23.622,47.244l-11.811,-23.622l-23.622,0" style="fill:none;stroke:#3465a4;stroke-width:4.25px;"/></g><g id="resistor-american-short1" serif:id="resistor-american-short"><path d="M283.465,106.299l-23.622,0l-11.812,-23.622l-23.622,47.244l-23.622,-47.244l-23.622,47.244l-23.622,-47.244l-23.622,47.244l-11.811,-23.622l-23.622,0" style="fill:none;stroke:#3465a4;stroke-width:4.25px;"/></g><g id="resistor-american-short2" serif:id="resistor-american-short"><path d="M543.307,413.386l-23.622,-0l-11.811,-23.622l-23.622,47.244l-23.622,-47.244l-23.622,47.244l-23.622,-47.244l-23.622,47.244l-11.811,-23.622l-23.622,-0" style="fill:none;stroke:#3465a4;stroke-width:4.25px;"/></g><g id="resistor-american-short3" serif:id="resistor-american-short"><path d="M271.654,413.33l-23.623,0l-11.811,-23.622l-23.622,47.244l-23.622,-47.244l-23.622,47.244l-23.622,-47.244l-23.622,47.244l-11.811,-23.622l-23.622,0" style="fill:none;stroke:#3465a4;stroke-width:4.25px;"/></g><g transform="matrix(1,0,0,1,-998.031,-248.031)"><text x="1126.66px" y="307.214px" style="font-family:'ArialMT', 'Arial', sans-serif;font-size:33.333px;fill:#ea7500;">R</text><text x="1150.74px" y="318.314px" style="font-family:'ArialMT', 'Arial', sans-serif;font-size:19.433px;fill:#ea7500;">3</text><text x="1170.81px" y="307.214px" style="font-family:'ArialMT', 'Arial', sans-serif;font-size:33.333px;fill:#ea7500;">(=R</text><text x="1225.44px" y="318.314px" style="font-family:'ArialMT', 'Arial', sans-serif;font-size:19.433px;fill:#ea7500;">1</text><g transform="matrix(33.3333,0,0,33.3333,1247.35,307.214)"></g><text x="1236.25px" y="307.214px" style="font-family:'ArialMT', 'Arial', sans-serif;font-size:33.333px;fill:#ea7500;">)</text></g><g transform="matrix(1,0,0,1,-998.031,58.9277)"><text x="1169.57px" y="307.214px" style="font-family:'ArialMT', 'Arial', sans-serif;font-size:33.333px;fill:#ea7500;">R</text><g transform="matrix(19.4333,0,0,19.4333,1204.45,318.314)"></g><text x="1193.64px" y="318.314px" style="font-family:'ArialMT', 'Arial', sans-serif;font-size:19.433px;fill:#ea7500;">1</text></g><g transform="matrix(1,0,0,1,-738.189,-248.031)"><text x="1126.66px" y="307.214px" style="font-family:'ArialMT', 'Arial', sans-serif;font-size:33.333px;fill:#ea7500;">R</text><text x="1150.74px" y="318.314px" style="font-family:'ArialMT', 'Arial', sans-serif;font-size:19.433px;fill:#ea7500;">4</text><text x="1170.81px" y="307.214px" style="font-family:'ArialMT', 'Arial', sans-serif;font-size:33.333px;fill:#ea7500;">(=R</text><text x="1225.44px" y="318.314px" style="font-family:'ArialMT', 'Arial', sans-serif;font-size:19.433px;fill:#ea7500;">2</text><g transform="matrix(33.3333,0,0,33.3333,1247.35,307.214)"></g><text x="1236.25px" y="307.214px" style="font-family:'ArialMT', 'Arial', sans-serif;font-size:33.333px;fill:#ea7500;">)</text></g><g transform="matrix(1,0,0,1,-738.189,59.0551)"><text x="1169.57px" y="307.214px" style="font-family:'ArialMT', 'Arial', sans-serif;font-size:33.333px;fill:#ea7500;">R</text><g transform="matrix(19.4333,0,0,19.4333,1204.45,318.314)"></g><text x="1193.64px" y="318.314px" style="font-family:'ArialMT', 'Arial', sans-serif;font-size:19.433px;fill:#ea7500;">2</text></g><g id="gnd-signal"><path d="M59.055,106.299l0,35.433l35.433,0l-35.433,50.375l-35.433,-50.375l35.433,0" style="fill:none;stroke:#3465a4;stroke-width:4.25px;"/></g><g id="gnd-signal1" serif:id="gnd-signal"><path d="M82.677,625.984l0,35.433l35.433,0l-35.433,50.375l-35.433,-50.375l35.433,0" style="fill:none;stroke:#3465a4;stroke-width:4.25px;"/></g><g id="gnd-signal2" serif:id="gnd-signal"><path d="M307.087,625.984l-0,35.433l35.433,0l-35.433,50.375l-35.433,-50.375l35.433,0" style="fill:none;stroke:#3465a4;stroke-width:4.25px;"/></g><g id="volt-meter"><circle cx="82.677" cy="531.44" r="59.055" style="fill:none;stroke:#3465a4;stroke-width:4.25px;"/><path d="M82.677,472.385l0,-59.055" style="fill:none;stroke:#3465a4;stroke-width:4.25px;"/><path d="M82.677,590.495l0,59.055" style="fill:none;stroke:#3465a4;stroke-width:4.25px;"/><g transform="matrix(50,0,0,50,99.352,549.221)"></g><text x="66.002px" y="549.221px" style="font-family:'ArialMT', 'Arial', sans-serif;font-size:50px;fill:#3465a4;">V</text><g transform="matrix(33.3333,0,0,33.3333,110.127,466.48)"></g><text x="90.661px" y="466.48px" style="font-family:'ArialMT', 'Arial', sans-serif;font-size:33.333px;fill:#3465a4;">+</text><g transform="matrix(33.3333,0,0,33.3333,105.944,614.245)"></g><text x="94.844px" y="614.245px" style="font-family:'ArialMT', 'Arial', sans-serif;font-size:33.333px;fill:#3465a4;">-</text></g><g id="load"><path d="M307.087,442.776l-0,70.866" style="fill:none;stroke:#3465a4;stroke-width:4.17px;"/><rect x="248.031" y="513.642" width="118.11" height="47.244" style="fill:none;stroke:#3465a4;stroke-width:4.17px;"/><path d="M307.087,560.886l-0,70.866" style="fill:none;stroke:#3465a4;stroke-width:4.17px;"/><g transform="matrix(33.3333,0,0,33.3333,352.139,549.202)"></g><text x="261.367px" y="549.202px" style="font-family:'ArialMT', 'Arial', sans-serif;font-size:33.333px;fill:#3465a4;">LOAD</text></g></svg>