<?xml version="1.0" encoding="UTF-8" standalone="no"?>
<!DOCTYPE svg PUBLIC "-//W3C//DTD SVG 1.1//EN" "http://www.w3.org/Graphics/SVG/1.1/DTD/svg11.dtd">
<svg width="100%" height="100%" viewBox="0 0 343 237" version="1.1" xmlns="http://www.w3.org/2000/svg" xmlns:xlink="http://www.w3.org/1999/xlink" xml:space="preserve" xmlns:serif="http://www.serif.com/" style="fill-rule:evenodd;clip-rule:evenodd;stroke-linecap:round;stroke-linejoin:round;stroke-miterlimit:1.5;">
    <g id="flipflop-d" transform="matrix(1,0,0,1,-1157.68,-2421.26)">
        <g transform="matrix(1,0,0,1,0.195596,354.331)">
            <path d="M1181.1,2125.98L1240.16,2125.98" style="fill:none;stroke:rgb(52,101,164);stroke-width:4.25px;"/>
        </g>
        <g transform="matrix(1,0,0,1,0.195596,354.331)">
            <path d="M1181.1,2244.09L1240.16,2244.09" style="fill:none;stroke:rgb(52,101,164);stroke-width:4.25px;"/>
        </g>
        <g transform="matrix(0.75,0,0,1,310.235,354.331)">
            <rect x="1240.16" y="2090.55" width="236.22" height="188.976" style="fill:none;stroke:rgb(52,101,164);stroke-width:4.81px;"/>
        </g>
        <g transform="matrix(1,0,0,1,-58.8595,354.331)">
            <path d="M1476.38,2125.98L1535.43,2125.98" style="fill:none;stroke:rgb(52,101,164);stroke-width:4.25px;"/>
        </g>
        <g transform="matrix(1,0,0,1,-58.8595,354.331)">
            <path d="M1476.38,2244.09L1535.43,2244.09" style="fill:none;stroke:rgb(52,101,164);stroke-width:4.25px;"/>
        </g>
        <g transform="matrix(1,0,0,1,-3.31252,341.334)">
            <text x="1259.43px" y="2152.92px" style="font-family:'SourceSerifPro-Regular', 'Source Serif Pro', serif;font-size:41.667px;fill:rgb(52,101,164);">D</text>
        </g>
        <g transform="matrix(1,0,0,1,118.775,342.019)">
            <text x="1259.43px" y="2152.92px" style="font-family:'CambriaMath', 'Cambria Math', serif;font-size:41.667px;fill:rgb(52,101,164);">Q</text>
        </g>
        <g transform="matrix(1,0,0,1,451.963,2570.8)">
            <g transform="matrix(0.500232,0,0,0.499284,925.929,40.9413)">
                <text x="0px" y="0px" style="font-family:'CambriaMath', 'Cambria Math', serif;font-size:83px;fill:rgb(52,101,164);">𝑄</text>
            </g>
            <g transform="matrix(0.500232,0,0,0.499284,934.433,32.9528)">
                <g transform="matrix(83,0,0,83,0,0)">
                    <rect x="0" y="-0.636" width="0.43" height="0.052" style="fill:rgb(52,101,164);fill-rule:nonzero;"/>
                </g>
            </g>
        </g>
        <g transform="matrix(1.50417,0,0,1,-625.355,118.11)">
            <path d="M1240.35,2456.69L1263.78,2480.32L1240.35,2503.94" style="fill:none;stroke:rgb(52,101,164);stroke-width:3.33px;"/>
        </g>
    </g>
</svg>
