<?xml version="1.0" encoding="UTF-8" standalone="no"?>
<!DOCTYPE svg PUBLIC "-//W3C//DTD SVG 1.1//EN" "http://www.w3.org/Graphics/SVG/1.1/DTD/svg11.dtd">
<svg width="100%" height="100%" viewBox="0 0 1063 591" version="1.1" xmlns="http://www.w3.org/2000/svg" xmlns:xlink="http://www.w3.org/1999/xlink" xml:space="preserve" xmlns:serif="http://www.serif.com/" style="fill-rule:evenodd;clip-rule:evenodd;stroke-linecap:round;stroke-linejoin:round;stroke-miterlimit:1.5;">
    <g id="gate-nand" transform="matrix(1,0,0,1,-401.575,-1594.49)">
        <g transform="matrix(1,0,0,1,-59.0551,236.22)">
            <path d="M885.827,1417.32C918.42,1417.32 944.882,1443.79 944.882,1476.38C944.882,1508.97 918.42,1535.43 885.827,1535.43" style="fill:none;stroke:rgb(52,101,164);stroke-width:4.25px;"/>
        </g>
        <g transform="matrix(1,0,0,1,-118.11,236.22)">
            <path d="M885.827,1417.32L885.827,1535.43" style="fill:none;stroke:rgb(52,101,164);stroke-width:4.25px;"/>
        </g>
        <g transform="matrix(1,0,0,1,-59.0551,236.22)">
            <path d="M826.772,1417.32L885.827,1417.32" style="fill:none;stroke:rgb(52,101,164);stroke-width:4.25px;"/>
        </g>
        <g transform="matrix(1,0,0,1,-59.0551,236.22)">
            <path d="M826.772,1535.43L885.827,1535.43" style="fill:none;stroke:rgb(52,101,164);stroke-width:4.25px;"/>
        </g>
        <g transform="matrix(1,0,0,1,-59.0551,236.22)">
            <path d="M826.772,1440.94L767.717,1440.94" style="fill:none;stroke:rgb(52,101,164);stroke-width:4.25px;"/>
        </g>
        <g transform="matrix(1,0,0,1,-59.0551,236.22)">
            <path d="M826.772,1511.81L767.717,1511.81" style="fill:none;stroke:rgb(52,101,164);stroke-width:4.25px;"/>
        </g>
        <g transform="matrix(0.6,0,0,1,342.52,236.22)">
            <path d="M944.882,1476.38L1003.94,1476.38" style="fill:none;stroke:rgb(52,101,164);stroke-width:5.15px;"/>
        </g>
        <g id="terminal-center" transform="matrix(1,0,0,1,354.331,992.07)">
            <ellipse cx="543.307" cy="720.5" rx="11.811" ry="11.783" style="fill:none;stroke:rgb(52,101,164);stroke-width:4.25px;"/>
        </g>
    </g>
    <g id="gate-nand1" serif:id="gate-nand" transform="matrix(1,0,0,1,-118.11,-1559.06)">
        <g transform="matrix(1,0,0,1,-59.0551,236.22)">
            <path d="M885.827,1417.32C918.42,1417.32 944.882,1443.79 944.882,1476.38C944.882,1508.97 918.42,1535.43 885.827,1535.43" style="fill:none;stroke:rgb(52,101,164);stroke-width:4.25px;"/>
        </g>
        <g transform="matrix(1,0,0,1,-118.11,236.22)">
            <path d="M885.827,1417.32L885.827,1535.43" style="fill:none;stroke:rgb(52,101,164);stroke-width:4.25px;"/>
        </g>
        <g transform="matrix(1,0,0,1,-59.0551,236.22)">
            <path d="M826.772,1417.32L885.827,1417.32" style="fill:none;stroke:rgb(52,101,164);stroke-width:4.25px;"/>
        </g>
        <g transform="matrix(1,0,0,1,-59.0551,236.22)">
            <path d="M826.772,1535.43L885.827,1535.43" style="fill:none;stroke:rgb(52,101,164);stroke-width:4.25px;"/>
        </g>
        <g transform="matrix(1,0,0,1,-59.0551,236.22)">
            <path d="M826.772,1440.94L767.717,1440.94" style="fill:none;stroke:rgb(52,101,164);stroke-width:4.25px;"/>
        </g>
        <g transform="matrix(1,0,0,1,-59.0551,236.22)">
            <path d="M826.772,1511.81L767.717,1511.81" style="fill:none;stroke:rgb(52,101,164);stroke-width:4.25px;"/>
        </g>
        <g transform="matrix(0.6,0,0,1,342.52,236.22)">
            <path d="M944.882,1476.38L1003.94,1476.38" style="fill:none;stroke:rgb(52,101,164);stroke-width:5.15px;"/>
        </g>
        <g id="terminal-center1" serif:id="terminal-center" transform="matrix(1,0,0,1,354.331,992.07)">
            <ellipse cx="543.307" cy="720.5" rx="11.811" ry="11.783" style="fill:none;stroke:rgb(52,101,164);stroke-width:4.25px;"/>
        </g>
    </g>
    <g id="gate-nand2" serif:id="gate-nand" transform="matrix(1,0,0,1,-401.575,-1263.78)">
        <g transform="matrix(1,0,0,1,-59.0551,236.22)">
            <path d="M885.827,1417.32C918.42,1417.32 944.882,1443.79 944.882,1476.38C944.882,1508.97 918.42,1535.43 885.827,1535.43" style="fill:none;stroke:rgb(52,101,164);stroke-width:4.25px;"/>
        </g>
        <g transform="matrix(1,0,0,1,-118.11,236.22)">
            <path d="M885.827,1417.32L885.827,1535.43" style="fill:none;stroke:rgb(52,101,164);stroke-width:4.25px;"/>
        </g>
        <g transform="matrix(1,0,0,1,-59.0551,236.22)">
            <path d="M826.772,1417.32L885.827,1417.32" style="fill:none;stroke:rgb(52,101,164);stroke-width:4.25px;"/>
        </g>
        <g transform="matrix(1,0,0,1,-59.0551,236.22)">
            <path d="M826.772,1535.43L885.827,1535.43" style="fill:none;stroke:rgb(52,101,164);stroke-width:4.25px;"/>
        </g>
        <g transform="matrix(1,0,0,1,-59.0551,236.22)">
            <path d="M826.772,1440.94L767.717,1440.94" style="fill:none;stroke:rgb(52,101,164);stroke-width:4.25px;"/>
        </g>
        <g transform="matrix(1,0,0,1,-59.0551,236.22)">
            <path d="M826.772,1511.81L767.717,1511.81" style="fill:none;stroke:rgb(52,101,164);stroke-width:4.25px;"/>
        </g>
        <g transform="matrix(0.6,0,0,1,342.52,236.22)">
            <path d="M944.882,1476.38L1003.94,1476.38" style="fill:none;stroke:rgb(52,101,164);stroke-width:5.15px;"/>
        </g>
        <g id="terminal-center2" serif:id="terminal-center" transform="matrix(1,0,0,1,354.331,992.07)">
            <ellipse cx="543.307" cy="720.5" rx="11.811" ry="11.783" style="fill:none;stroke:rgb(52,101,164);stroke-width:4.25px;"/>
        </g>
    </g>
    <g id="gate-nand3" serif:id="gate-nand" transform="matrix(1,0,0,1,-118.11,-1299.21)">
        <g transform="matrix(1,0,0,1,-59.0551,236.22)">
            <path d="M885.827,1417.32C918.42,1417.32 944.882,1443.79 944.882,1476.38C944.882,1508.97 918.42,1535.43 885.827,1535.43" style="fill:none;stroke:rgb(52,101,164);stroke-width:4.25px;"/>
        </g>
        <g transform="matrix(1,0,0,1,-118.11,236.22)">
            <path d="M885.827,1417.32L885.827,1535.43" style="fill:none;stroke:rgb(52,101,164);stroke-width:4.25px;"/>
        </g>
        <g transform="matrix(1,0,0,1,-59.0551,236.22)">
            <path d="M826.772,1417.32L885.827,1417.32" style="fill:none;stroke:rgb(52,101,164);stroke-width:4.25px;"/>
        </g>
        <g transform="matrix(1,0,0,1,-59.0551,236.22)">
            <path d="M826.772,1535.43L885.827,1535.43" style="fill:none;stroke:rgb(52,101,164);stroke-width:4.25px;"/>
        </g>
        <g transform="matrix(1,0,0,1,-59.0551,236.22)">
            <path d="M826.772,1440.94L767.717,1440.94" style="fill:none;stroke:rgb(52,101,164);stroke-width:4.25px;"/>
        </g>
        <g transform="matrix(1,0,0,1,-59.0551,236.22)">
            <path d="M826.772,1511.81L767.717,1511.81" style="fill:none;stroke:rgb(52,101,164);stroke-width:4.25px;"/>
        </g>
        <g transform="matrix(0.6,0,0,1,342.52,236.22)">
            <path d="M944.882,1476.38L1003.94,1476.38" style="fill:none;stroke:rgb(52,101,164);stroke-width:5.15px;"/>
        </g>
        <g id="terminal-center3" serif:id="terminal-center" transform="matrix(1,0,0,1,354.331,992.07)">
            <ellipse cx="543.307" cy="720.5" rx="11.811" ry="11.783" style="fill:none;stroke:rgb(52,101,164);stroke-width:4.25px;"/>
        </g>
    </g>
    <g transform="matrix(1,0,0,1,118.11,-94.4882)">
        <path d="M472.441,283.465L472.441,342.52L566.929,342.52L744.094,472.441" style="fill:none;stroke:rgb(52,101,164);stroke-width:4.17px;"/>
    </g>
    <g transform="matrix(1,0,0,1,118.11,-94.4882)">
        <path d="M472.441,472.441L472.441,413.386L566.929,413.386L744.094,283.465" style="fill:none;stroke:rgb(52,101,164);stroke-width:4.17px;"/>
    </g>
    <g transform="matrix(1,0,0,1,118.11,-94.4882)">
        <path d="M708.661,248.031L791.339,248.031" style="fill:none;stroke:rgb(52,101,164);stroke-width:4.17px;"/>
    </g>
    <g transform="matrix(1,0,0,1,118.11,-94.4882)">
        <path d="M708.661,507.874L791.339,507.874" style="fill:none;stroke:rgb(52,101,164);stroke-width:4.17px;"/>
    </g>
    <g transform="matrix(1,0,0,1,118.11,-94.4882)">
        <path d="M744.094,283.465L744.094,248.031" style="fill:none;stroke:rgb(52,101,164);stroke-width:4.17px;"/>
    </g>
    <g transform="matrix(1,0,0,1,118.11,-94.4882)">
        <path d="M744.094,472.441L744.094,507.874" style="fill:none;stroke:rgb(52,101,164);stroke-width:4.17px;"/>
    </g>
    <g transform="matrix(1,0,0,1,377.953,-543.307)">
        <circle cx="484.252" cy="696.85" r="11.811" style="fill:rgb(52,101,164);"/>
    </g>
    <g transform="matrix(1,0,0,1,-236.22,-212.598)">
        <circle cx="484.252" cy="696.85" r="11.811" style="fill:rgb(52,101,164);"/>
    </g>
    <g transform="matrix(1,0,0,1,377.953,-283.465)">
        <circle cx="484.252" cy="696.85" r="11.811" style="fill:rgb(52,101,164);"/>
    </g>
    <g transform="matrix(1,0,0,1,47.2441,11.811)">
        <path d="M496.063,437.008L543.307,437.008" style="fill:none;stroke:rgb(52,101,164);stroke-width:4.17px;"/>
    </g>
    <g transform="matrix(1,0,0,1,47.2441,11.811)">
        <path d="M496.063,106.299L543.307,106.299" style="fill:none;stroke:rgb(52,101,164);stroke-width:4.17px;"/>
    </g>
    <g transform="matrix(1,0,0,1,47.2441,11.811)">
        <path d="M259.843,472.441L118.11,472.441" style="fill:none;stroke:rgb(52,101,164);stroke-width:4.17px;"/>
    </g>
    <g transform="matrix(1,0,0,1,47.2441,11.811)">
        <path d="M259.843,70.866L118.11,70.866" style="fill:none;stroke:rgb(52,101,164);stroke-width:4.17px;"/>
    </g>
    <g transform="matrix(2.5,0,0,1,-342.52,11.811)">
        <path d="M259.843,141.732L236.22,141.732L236.22,472.441" style="fill:none;stroke:rgb(52,101,164);stroke-width:2.19px;"/>
    </g>
    <g transform="matrix(1,0,0,2.75,153.543,-690.945)">
        <path d="M153.543,354.331L153.543,401.575" style="fill:none;stroke:rgb(52,101,164);stroke-width:2.01px;"/>
    </g>
    <g transform="matrix(1,0,0,1,-581.752,-159.597)">
        <text x="677.227px" y="258.937px" style="font-family:'CambriaMath', 'Cambria Math', serif;font-size:50px;fill:rgb(234,117,0);">D</text>
    </g>
    <g transform="matrix(1,0,0,1,-639.216,241.95)">
        <text x="677.227px" y="258.937px" style="font-family:'CambriaMath', 'Cambria Math', serif;font-size:50px;fill:rgb(234,117,0);">CLK</text>
    </g>
    <g transform="matrix(1,0,0,1,275.717,-88.7308)">
        <text x="677.227px" y="258.937px" style="font-family:'CambriaMath', 'Cambria Math', serif;font-size:50px;fill:rgb(234,117,0);">Q</text>
    </g>
    <g id="terminal-center4" serif:id="terminal-center" transform="matrix(1,0,0,1,-389.764,-637.851)">
        <ellipse cx="543.307" cy="720.5" rx="11.811" ry="11.783" style="fill:none;stroke:rgb(52,101,164);stroke-width:4.25px;"/>
    </g>
    <g id="terminal-center5" serif:id="terminal-center" transform="matrix(1,0,0,1,-389.764,-236.276)">
        <ellipse cx="543.307" cy="720.5" rx="11.811" ry="11.783" style="fill:none;stroke:rgb(52,101,164);stroke-width:4.25px;"/>
    </g>
    <g id="terminal-center6" serif:id="terminal-center" transform="matrix(1,0,0,1,377.953,-566.985)">
        <ellipse cx="543.307" cy="720.5" rx="11.811" ry="11.783" style="fill:none;stroke:rgb(52,101,164);stroke-width:4.25px;"/>
    </g>
    <g id="terminal-center7" serif:id="terminal-center" transform="matrix(1,0,0,1,377.953,-307.142)">
        <ellipse cx="543.307" cy="720.5" rx="11.811" ry="11.783" style="fill:none;stroke:rgb(52,101,164);stroke-width:4.25px;"/>
    </g>
    <g transform="matrix(1,0,0,1,25.3641,378.765)">
        <g transform="matrix(0.500232,0,0,0.499284,922.927,48.9298)">
            <text x="0px" y="0px" style="font-family:'CambriaMath', 'Cambria Math', serif;font-size:100px;fill:rgb(234,117,0);">𝑄</text>
        </g>
        <g transform="matrix(0.500232,0,0,0.499284,933.432,39.4435)">
            <g transform="matrix(100,0,0,100,0,0)">
                <rect x="0" y="-0.636" width="0.43" height="0.052" style="fill:rgb(234,117,0);fill-rule:nonzero;"/>
            </g>
        </g>
    </g>
    <path d="M307.087,283.465L531.496,283.465L531.496,118.11" style="fill:none;stroke:rgb(52,101,164);stroke-width:4.17px;"/>
</svg>
