<?xml version="1.0" encoding="UTF-8" standalone="no"?>
<!DOCTYPE svg PUBLIC "-//W3C//DTD SVG 1.1//EN" "http://www.w3.org/Graphics/SVG/1.1/DTD/svg11.dtd">
<svg width="100%" height="100%" viewBox="0 0 1182 827" version="1.1" xmlns="http://www.w3.org/2000/svg" xmlns:xlink="http://www.w3.org/1999/xlink" xml:space="preserve" xmlns:serif="http://www.serif.com/" style="fill-rule:evenodd;clip-rule:evenodd;stroke-linecap:round;stroke-linejoin:round;stroke-miterlimit:1.5;">
    <g id="diode-general-purpose" transform="matrix(6.12323e-17,-1,1,6.12323e-17,377.953,1145.64)">
        <path d="M708.661,354.331L708.661,590.551" style="fill:none;stroke:rgb(52,101,164);stroke-width:4.25px;"/>
        <path d="M673.228,496.063L744.094,496.063L708.661,496.063L673.228,437.008L744.094,437.008L708.661,496.063" style="fill:rgb(52,101,164);stroke:rgb(52,101,164);stroke-width:4.25px;"/>
    </g>
    <g id="diode-general-purpose1" serif:id="diode-general-purpose" transform="matrix(6.12323e-17,-1,1,6.12323e-17,129.921,992.126)">
        <path d="M708.661,354.331L708.661,590.551" style="fill:none;stroke:rgb(52,101,164);stroke-width:4.25px;"/>
        <path d="M673.228,496.063L744.094,496.063L708.661,496.063L673.228,437.008L744.094,437.008L708.661,496.063" style="fill:rgb(52,101,164);stroke:rgb(52,101,164);stroke-width:4.25px;"/>
    </g>
    <g transform="matrix(1,0,0,1,614.173,82.6772)">
        <path d="M354.331,354.331L354.331,401.575L330.709,413.386L377.953,437.008L330.709,460.63L377.953,484.252L330.709,507.874L377.953,531.496L354.331,543.307L354.331,590.551" style="fill:none;stroke:rgb(52,101,164);stroke-width:4.25px;"/>
    </g>
    <g transform="matrix(1,0,0,1,-803.15,82.6772)">
        <path d="M1771.65,590.551L1771.65,625.984" style="fill:none;stroke:rgb(52,101,164);stroke-width:4.25px;"/>
        <path d="M1724.41,625.984L1818.9,625.984" style="fill:none;stroke:rgb(52,101,164);stroke-width:4.25px;"/>
        <path d="M1736.22,649.606L1807.09,649.606" style="fill:none;stroke:rgb(52,101,164);stroke-width:4.25px;"/>
        <path d="M1748.03,673.228L1795.28,673.228" style="fill:none;stroke:rgb(52,101,164);stroke-width:4.25px;"/>
    </g>
    <g transform="matrix(1,0,0,1,-1358.27,-118.11)">
        <path d="M1771.65,590.551L1771.65,625.984" style="fill:none;stroke:rgb(52,101,164);stroke-width:4.25px;"/>
        <path d="M1724.41,625.984L1818.9,625.984" style="fill:none;stroke:rgb(52,101,164);stroke-width:4.25px;"/>
        <path d="M1736.22,649.606L1807.09,649.606" style="fill:none;stroke:rgb(52,101,164);stroke-width:4.25px;"/>
        <path d="M1748.03,673.228L1795.28,673.228" style="fill:none;stroke:rgb(52,101,164);stroke-width:4.25px;"/>
    </g>
    <g transform="matrix(1,0,0,1,-618.474,149.61)">
        <text x="677.227px" y="258.937px" style="font-family:'TimesNewRomanPSMT', 'Times New Roman', serif;font-size:50px;fill:rgb(234,117,0);">v</text>
        <text x="702.227px" y="275.587px" style="font-family:'TimesNewRomanPSMT', 'Times New Roman', serif;font-size:29.15px;fill:rgb(234,117,0);">in</text>
    </g>
    <g transform="matrix(1,0,0,1,-426.318,78.744)">
        <text x="677.227px" y="258.937px" style="font-family:'TimesNewRomanPSMT', 'Times New Roman', serif;font-size:50px;fill:rgb(234,117,0);">R</text>
        <text x="710.577px" y="275.587px" style="font-family:'TimesNewRomanPSMT', 'Times New Roman', serif;font-size:29.15px;fill:rgb(234,117,0);">1</text>
    </g>
    <g transform="matrix(1,0,0,1,-24.7431,-145.665)">
        <text x="677.227px" y="258.937px" style="font-family:'TimesNewRomanPSMT', 'Times New Roman', serif;font-size:50px;fill:rgb(234,117,0);">R</text>
        <text x="710.577px" y="275.587px" style="font-family:'TimesNewRomanPSMT', 'Times New Roman', serif;font-size:29.15px;fill:rgb(234,117,0);">2</text>
    </g>
    <g transform="matrix(1,0,0,1,138.263,102.366)">
        <text x="677.227px" y="258.937px" style="font-family:'TimesNewRomanPSMT', 'Times New Roman', serif;font-size:50px;fill:rgb(234,117,0);">D</text>
        <text x="713.336px" y="275.587px" style="font-family:'TimesNewRomanPSMT', 'Times New Roman', serif;font-size:29.15px;fill:rgb(234,117,0);">1</text>
    </g>
    <g transform="matrix(1,0,0,1,-29.8504,-2.67749)">
        <text x="677.227px" y="258.937px" style="font-family:'TimesNewRomanPSMT', 'Times New Roman', serif;font-size:50px;fill:rgb(234,117,0);">D</text>
        <text x="713.336px" y="275.587px" style="font-family:'TimesNewRomanPSMT', 'Times New Roman', serif;font-size:29.15px;fill:rgb(234,117,0);">2</text>
    </g>
    <g transform="matrix(1,0,0,1,-77.0945,119.016)">
        <text x="677.227px" y="258.937px" style="font-family:'TimesNewRomanPSMT', 'Times New Roman', serif;font-size:50px;fill:rgb(234,117,0);">U</text>
        <text x="713.336px" y="275.587px" style="font-family:'TimesNewRomanPSMT', 'Times New Roman', serif;font-size:29.15px;fill:rgb(234,117,0);">1</text>
    </g>
    <g transform="matrix(1,0,0,1,323.473,180.729)">
        <text x="677.227px" y="258.937px" style="font-family:'TimesNewRomanPSMT', 'Times New Roman', serif;font-size:50px;fill:rgb(234,117,0);">v</text>
        <text x="702.227px" y="275.587px" style="font-family:'TimesNewRomanPSMT', 'Times New Roman', serif;font-size:29.15px;fill:rgb(234,117,0);">out</text>
    </g>
    <g transform="matrix(1,0,0,1,-35.4331,165.354)">
        <path d="M472.441,236.193L425.197,236.22" style="fill:none;stroke:rgb(52,101,164);stroke-width:4.17px;"/>
    </g>
    <g transform="matrix(1,0,0,1,342.571,319.803)">
        <text x="677.227px" y="258.937px" style="font-family:'TimesNewRomanPSMT', 'Times New Roman', serif;font-size:50px;fill:rgb(234,117,0);">R</text>
        <text x="710.577px" y="275.587px" style="font-family:'TimesNewRomanPSMT', 'Times New Roman', serif;font-size:29.15px;fill:rgb(234,117,0);">LOAD</text>
    </g>
    <g id="terminal-center" transform="matrix(1,0,0,1,-401.575,-318.953)">
        <ellipse cx="543.307" cy="720.5" rx="11.811" ry="11.783" style="fill:none;stroke:rgb(52,101,164);stroke-width:4.25px;"/>
    </g>
    <g transform="matrix(6.12323e-17,-1,1,6.12323e-17,-200.787,755.878)">
        <path d="M354.331,354.331L354.331,401.575L330.709,413.386L377.953,437.008L330.709,460.63L377.953,484.252L330.709,507.874L377.953,531.496L354.331,543.307L354.331,590.551" style="fill:none;stroke:rgb(52,101,164);stroke-width:4.25px;"/>
    </g>
    <g transform="matrix(6.12323e-17,-1,1,6.12323e-17,200.787,531.496)">
        <path d="M354.331,354.331L354.331,401.575L330.709,413.386L377.953,437.008L330.709,460.63L377.953,484.252L330.709,507.874L377.953,531.496L354.331,543.307L354.331,590.551" style="fill:none;stroke:rgb(52,101,164);stroke-width:4.25px;"/>
    </g>
    <g id="opamp-small" transform="matrix(1,0,0,1,-980.315,-1133.86)">
        <g transform="matrix(0.5,0,0,1,708.661,0)">
            <path d="M1417.32,1535.43L1535.43,1535.43" style="fill:none;stroke:rgb(52,101,164);stroke-width:5.37px;"/>
        </g>
        <g transform="matrix(0.5,0,0,1,708.661,-47.2441)">
            <path d="M1417.32,1653.54L1535.43,1653.54" style="fill:none;stroke:rgb(52,101,164);stroke-width:5.37px;"/>
        </g>
        <g transform="matrix(1,0,0,0.800149,-59.0551,295.056)">
            <path d="M1535.43,1476.38L1535.43,1712.6" style="fill:none;stroke:rgb(52,101,164);stroke-width:4.69px;"/>
        </g>
        <g transform="matrix(0.75,0,0,0.798076,369.094,298.116)">
            <path d="M1476.38,1713.21L1712.6,1595.1L1476.38,1476.38" style="fill:none;stroke:rgb(52,101,164);stroke-width:5.49px;"/>
        </g>
        <g transform="matrix(1,0,0,1,-59.0551,-25.9983)">
            <path d="M1712.6,1596.88L1771.65,1596.88" style="fill:none;stroke:rgb(52,101,164);stroke-width:4.25px;"/>
        </g>
        <g transform="matrix(1.39492,0,0,1.39492,-596.322,-590.958)">
            <text x="1498.34px" y="1537.96px" style="font-family:'ArialMT', 'Arial', sans-serif;font-size:50px;fill:rgb(52,101,164);">-</text>
        </g>
        <g transform="matrix(1,0,0,1,-7.56458,85.9736)">
            <text x="1498.34px" y="1537.96px" style="font-family:'ArialMT', 'Arial', sans-serif;font-size:50px;fill:rgb(52,101,164);">+</text>
        </g>
    </g>
    <g transform="matrix(1,0,0,1.46162,-94.4882,-116.31)">
        <path d="M531.496,354.303L531.496,200.787L649.606,200.787" style="fill:none;stroke:rgb(52,101,164);stroke-width:3.33px;"/>
    </g>
    <g transform="matrix(1,0,0,1.37506,-94.4882,-98.9284)">
        <path d="M885.827,200.787L1062.99,200.787L1062.99,389.736" style="fill:none;stroke:rgb(52,101,164);stroke-width:3.47px;"/>
    </g>
    <g transform="matrix(1,0,0,1,-94.4882,47.2441)">
        <path d="M578.74,236.22L531.496,236.22" style="fill:none;stroke:rgb(52,101,164);stroke-width:4.17px;"/>
    </g>
    <g transform="matrix(1,0,0,1,-94.4882,47.2441)">
        <path d="M814.961,236.22L814.961,389.736" style="fill:none;stroke:rgb(52,101,164);stroke-width:4.17px;"/>
    </g>
    <g transform="matrix(1,0,0,1,-94.4882,47.2441)">
        <path d="M531.496,425.197L507.874,425.197" style="fill:none;stroke:rgb(52,101,164);stroke-width:4.17px;"/>
    </g>
    <g id="connection-center" transform="matrix(1,0,0,1,-47.2441,-413.386)">
        <circle cx="484.252" cy="696.85" r="11.811" style="fill:rgb(52,101,164);stroke:rgb(52,101,164);stroke-width:4.25px;"/>
    </g>
    <g id="connection-center1" serif:id="connection-center" transform="matrix(1,0,0,1,-47.2441,-295.276)">
        <circle cx="484.252" cy="696.85" r="11.811" style="fill:rgb(52,101,164);stroke:rgb(52,101,164);stroke-width:4.25px;"/>
    </g>
    <g id="connection-center2" serif:id="connection-center" transform="matrix(1,0,0,1,236.22,-259.87)">
        <circle cx="484.252" cy="696.85" r="11.811" style="fill:rgb(52,101,164);stroke:rgb(52,101,164);stroke-width:4.25px;"/>
    </g>
    <g id="connection-center3" serif:id="connection-center" transform="matrix(1,0,0,1,484.252,-259.87)">
        <circle cx="484.252" cy="696.85" r="11.811" style="fill:rgb(52,101,164);stroke:rgb(52,101,164);stroke-width:4.25px;"/>
    </g>
</svg>
