<?xml version="1.0" encoding="UTF-8" standalone="no"?><!DOCTYPE svg PUBLIC "-//W3C//DTD SVG 1.1//EN" "http://www.w3.org/Graphics/SVG/1.1/DTD/svg11.dtd"><svg width="100%" height="100%" viewBox="0 0 733 485" version="1.1" xmlns="http://www.w3.org/2000/svg" xmlns:xlink="http://www.w3.org/1999/xlink" xml:space="preserve" xmlns:serif="http://www.serif.com/" style="fill-rule:evenodd;clip-rule:evenodd;stroke-linecap:round;stroke-linejoin:round;stroke-miterlimit:1.5;"><path id="terminal-inside" d="M625.984,330.764c6.519,0 11.811,5.28 11.811,11.784c0,6.503 -5.292,11.783 -11.811,11.783c-6.518,-0 -11.811,-5.28 -11.811,-11.783c0,-6.504 5.293,-11.784 11.811,-11.784Zm0,4.25c-4.17,-0 -7.562,3.373 -7.562,7.534c0,4.16 3.392,7.534 7.562,7.534c4.171,-0 7.562,-3.374 7.562,-7.534c0,-4.161 -3.391,-7.534 -7.562,-7.534Z" style="fill:#3465a4;"/><g id="opamp-small"><path d="M283.465,307.051l59.055,0" style="fill:none;stroke:#3465a4;stroke-width:4.25px;"/><path d="M283.465,377.918l59.055,-0" style="fill:none;stroke:#3465a4;stroke-width:4.25px;"/><path d="M342.52,247.996l-0,189.012" style="fill:none;stroke:#3465a4;stroke-width:4.25px;"/><path d="M342.52,437.008l177.165,-94.261l-177.165,-94.751" style="fill:none;stroke:#3465a4;stroke-width:4.25px;"/><path d="M519.685,342.502l59.055,0" style="fill:none;stroke:#3465a4;stroke-width:4.25px;"/><g transform="matrix(69.746,0,0,69.746,383.117,325.991)"></g><text x="359.891px" y="325.991px" style="font-family:'ArialMT', 'Arial', sans-serif;font-size:69.746px;fill:#3465a4;">-</text><g transform="matrix(50,0,0,50,386.121,395.55)"></g><text x="356.921px" y="395.55px" style="font-family:'ArialMT', 'Arial', sans-serif;font-size:50px;fill:#3465a4;">+</text></g><path id="terminal-inside1" serif:id="terminal-inside" d="M82.677,200.843c6.519,0 11.811,5.28 11.811,11.783c0,6.504 -5.292,11.783 -11.811,11.783c-6.519,0 -11.811,-5.279 -11.811,-11.783c0,-6.503 5.292,-11.783 11.811,-11.783Zm0,4.249c-4.171,0 -7.562,3.373 -7.562,7.534c0,4.161 3.391,7.534 7.562,7.534c4.171,0 7.562,-3.373 7.562,-7.534c0,-4.161 -3.391,-7.534 -7.562,-7.534Z" style="fill:#3465a4;"/><path id="wire-v" d="M283.465,82.677l-0,224.41" style="fill:none;stroke:#3465a4;stroke-width:4.25px;"/><path id="wire-v1" serif:id="wire-v" d="M578.74,82.677l0,259.843" style="fill:none;stroke:#3465a4;stroke-width:4.25px;"/><path id="wire-h" d="M578.74,342.52l35.433,-0" style="fill:none;stroke:#3465a4;stroke-width:4.25px;"/><path id="wire-h1" serif:id="wire-h" d="M531.496,212.598l47.244,0" style="fill:none;stroke:#3465a4;stroke-width:4.25px;"/><path id="wire-h2" serif:id="wire-h" d="M283.465,212.598l59.055,0" style="fill:none;stroke:#3465a4;stroke-width:4.25px;"/><path id="wire-h3" serif:id="wire-h" d="M283.465,82.677l59.055,0" style="fill:none;stroke:#3465a4;stroke-width:4.25px;"/><path id="wire-h4" serif:id="wire-h" d="M531.496,82.677l47.244,0" style="fill:none;stroke:#3465a4;stroke-width:4.25px;"/><path id="wire-h5" serif:id="wire-h" d="M283.465,377.925l-0,-0" style="fill:none;stroke:#3465a4;stroke-width:4.25px;"/><path id="wire-h6" serif:id="wire-h" d="M248.031,377.925l35.434,-0" style="fill:none;stroke:#3465a4;stroke-width:4.25px;"/><g transform="matrix(1,0,0,1,-212.598,-602.745)"><text x="238.041px" y="820.994px" style="font-family:'ArialMT', 'Arial', sans-serif;font-size:33.333px;fill:#ea7500;">v</text><g transform="matrix(19.4333,0,0,19.4333,269.833,832.094)"></g><text x="254.708px" y="832.094px" style="font-family:'ArialMT', 'Arial', sans-serif;font-size:19.433px;fill:#ea7500;">in</text></g><g transform="matrix(1,0,0,1,416.339,-466.599)"><text x="242.431px" y="820.93px" style="font-family:'ArialMT', 'Arial', sans-serif;font-size:33.333px;fill:#ea7500;">v</text><g transform="matrix(19.4333,0,0,19.4333,286.112,832.03)"></g><text x="259.097px" y="832.03px" style="font-family:'ArialMT', 'Arial', sans-serif;font-size:19.433px;fill:#ea7500;">out</text></g><circle id="connection-inside" cx="578.74" cy="342.52" r="11.811" style="fill:#3465a4;"/><circle id="connection-inside1" serif:id="connection-inside" cx="578.74" cy="212.598" r="11.811" style="fill:#3465a4;"/><circle id="connection-inside2" serif:id="connection-inside" cx="283.465" cy="212.598" r="11.811" style="fill:#3465a4;"/><g id="resistor-american-short"><path d="M283.465,212.598l-23.622,0l-11.812,-23.622l-23.622,47.244l-23.622,-47.244l-23.622,47.244l-23.622,-47.244l-23.622,47.244l-11.811,-23.622l-23.622,0" style="fill:none;stroke:#3465a4;stroke-width:4.25px;"/></g><g id="resistor-american-short1" serif:id="resistor-american-short"><path d="M271.654,377.953l-23.623,-0l-11.811,-23.622l-23.622,47.244l-23.622,-47.244l-23.622,47.244l-23.622,-47.244l-23.622,47.244l-11.811,-23.622l-23.622,-0" style="fill:none;stroke:#3465a4;stroke-width:4.25px;"/></g><g id="resistor-american-short2" serif:id="resistor-american-short"><path d="M531.496,82.677l-23.622,0l-11.811,-23.622l-23.622,47.244l-23.622,-47.244l-23.622,47.244l-23.622,-47.244l-23.622,47.244l-11.811,-23.622l-23.622,0" style="fill:none;stroke:#3465a4;stroke-width:4.25px;"/></g><g><path d="M342.52,212.598l70.866,0" style="fill:none;stroke:#3465a4;stroke-width:4.25px;"/><path d="M413.386,259.843l-0,-94.489" style="fill:none;stroke:#3465a4;stroke-width:8.33px;"/><path d="M460.63,259.843l-0,-94.489" style="fill:none;stroke:#3465a4;stroke-width:8.33px;"/><path d="M460.63,212.598l70.866,0" style="fill:none;stroke:#3465a4;stroke-width:4.25px;"/></g><g transform="matrix(33.3333,0,0,33.3333,448.873,153.136)"></g><text x="424.801px" y="153.136px" style="font-family:'ArialMT', 'Arial', sans-serif;font-size:33.333px;fill:#ea7500;">C</text><g transform="matrix(1,0,0,1,-949.356,-141.732)"><text x="1119.66px" y="307.214px" style="font-family:'ArialMT', 'Arial', sans-serif;font-size:33.333px;fill:#ea7500;">R</text><g transform="matrix(19.4333,0,0,19.4333,1148.05,318.314)"></g><text x="1143.74px" y="318.314px" style="font-family:'ArialMT', 'Arial', sans-serif;font-size:19.433px;fill:#ea7500;">i</text></g><g transform="matrix(1,0,0,1,-956.693,23.622)"><text x="1104px" y="307.214px" style="font-family:'ArialMT', 'Arial', sans-serif;font-size:33.333px;fill:#ea7500;">R</text><g transform="matrix(19.4333,0,0,19.4333,1163.72,318.314)"></g><text x="1128.07px" y="318.314px" style="font-family:'ArialMT', 'Arial', sans-serif;font-size:19.433px;fill:#ea7500;">bias</text></g><g transform="matrix(1,0,0,1,-696.85,-266.79)"><text x="1119.12px" y="307.214px" style="font-family:'ArialMT', 'Arial', sans-serif;font-size:33.333px;fill:#ea7500;">R</text><g transform="matrix(19.4333,0,0,19.4333,1148.59,318.314)"></g><text x="1143.19px" y="318.314px" style="font-family:'ArialMT', 'Arial', sans-serif;font-size:19.433px;fill:#ea7500;">f</text></g><g id="gnd-signal"><path d="M82.677,377.953l0,35.433l35.433,-0l-35.433,50.374l-35.433,-50.374l35.433,-0" style="fill:none;stroke:#3465a4;stroke-width:4.25px;"/></g></svg>