<?xml version="1.0" encoding="UTF-8" standalone="no"?><!DOCTYPE svg PUBLIC "-//W3C//DTD SVG 1.1//EN" "http://www.w3.org/Graphics/SVG/1.1/DTD/svg11.dtd"><svg width="100%" height="100%" viewBox="0 0 945 461" version="1.1" xmlns="http://www.w3.org/2000/svg" xmlns:xlink="http://www.w3.org/1999/xlink" xml:space="preserve" xmlns:serif="http://www.serif.com/" style="fill-rule:evenodd;clip-rule:evenodd;stroke-linecap:round;stroke-linejoin:round;stroke-miterlimit:1.5;"><g transform="matrix(1,0,0,1,-318.898,-236.22)"><text x="1098.42px" y="301.813px" style="font-family:'ArialMT', 'Arial', sans-serif;font-size:33.333px;fill:#ea7500;">U2</text><g transform="matrix(33.3333,0,0,33.3333,1174.34,336.237)"></g><text x="1098.42px" y="336.237px" style="font-family:'ArialMT', 'Arial', sans-serif;font-size:33.333px;fill:#ea7500;">MCU</text></g><g transform="matrix(33.3333,0,0,33.3333,414.091,236.348)"></g><text x="330.709px" y="236.348px" style="font-family:'ArialMT', 'Arial', sans-serif;font-size:33.333px;fill:#ea7500;">CELL</text><g transform="matrix(33.3333,0,0,33.3333,404.781,342.647)"></g><text x="330.709px" y="342.647px" style="font-family:'ArialMT', 'Arial', sans-serif;font-size:33.333px;fill:#ea7500;">GND</text><g transform="matrix(33.3333,0,0,33.3333,401.086,153.543)"></g><text x="330.709px" y="153.543px" style="font-family:'ArialMT', 'Arial', sans-serif;font-size:33.333px;fill:#ea7500;">VDD</text><g transform="matrix(33.3333,0,0,33.3333,540.979,224.409)"></g><text x="472.441px" y="224.409px" style="font-family:'ArialMT', 'Arial', sans-serif;font-size:33.333px;fill:#ea7500;">SDA</text><g transform="matrix(33.3333,0,0,33.3333,537.285,271.781)"></g><text x="472.441px" y="271.781px" style="font-family:'ArialMT', 'Arial', sans-serif;font-size:33.333px;fill:#ea7500;">SCL</text><g transform="matrix(1,0,0,1,-779.528,-253.624)"><text x="1098.42px" y="301.877px" style="font-family:'ArialMT', 'Arial', sans-serif;font-size:33.333px;fill:#ea7500;">U1</text><g transform="matrix(33.3333,0,0,33.3333,1309.66,336.301)"></g><text x="1098.42px" y="336.301px" style="font-family:'ArialMT', 'Arial', sans-serif;font-size:33.333px;fill:#ea7500;">Fuel-gauge IC</text></g><g transform="matrix(1,0,0,1,-968.504,-70.8661)"><text x="1098.42px" y="295.53px" style="font-family:'ArialMT', 'Arial', sans-serif;font-size:33.333px;fill:#ea7500;">BT1</text><g transform="matrix(33.3333,0,0,33.3333,1176.26,329.954)"></g><text x="1098.42px" y="329.954px" style="font-family:'ArialMT', 'Arial', sans-serif;font-size:33.333px;fill:#ea7500;">3.7 V</text></g><path id="wire-h" d="M70.866,141.732l248.032,0" style="fill:none;stroke:#3465a4;stroke-width:4.25px;"/><path id="wire-h1" serif:id="wire-h" d="M70.866,330.709l248.032,-0" style="fill:none;stroke:#3465a4;stroke-width:4.25px;"/><path id="wire-h2" serif:id="wire-h" d="M555.118,212.598l224.41,0" style="fill:none;stroke:#3465a4;stroke-width:4.25px;"/><path id="wire-h3" serif:id="wire-h" d="M555.118,259.843l224.41,-0" style="fill:none;stroke:#3465a4;stroke-width:4.25px;"/><path id="wire-h4" serif:id="wire-h" d="M259.843,224.409l59.055,0" style="fill:none;stroke:#3465a4;stroke-width:4.25px;"/><path id="wire-h5" serif:id="wire-h" d="M318.898,94.488l236.22,0" style="fill:none;stroke:#3465a4;stroke-width:4.25px;"/><path id="wire-h6" serif:id="wire-h" d="M318.898,354.331l236.22,-0" style="fill:none;stroke:#3465a4;stroke-width:4.25px;"/><path id="wire-h7" serif:id="wire-h" d="M779.528,118.11l141.732,0" style="fill:none;stroke:#3465a4;stroke-width:4.25px;"/><path id="wire-h8" serif:id="wire-h" d="M259.843,224.409l-0,-82.677" style="fill:none;stroke:#3465a4;stroke-width:4.25px;"/><path id="wire-h9" serif:id="wire-h" d="M779.528,342.52l-0,-224.41" style="fill:none;stroke:#3465a4;stroke-width:4.25px;"/><path id="wire-h10" serif:id="wire-h" d="M318.898,354.331l-0,-259.843" style="fill:none;stroke:#3465a4;stroke-width:4.25px;"/><path id="wire-h11" serif:id="wire-h" d="M555.118,354.331l0,-259.843" style="fill:none;stroke:#3465a4;stroke-width:4.25px;"/><g id="batt-1-cell"><path d="M70.866,224.409l0,-82.677" style="fill:none;stroke:#3465a4;stroke-width:4.25px;"/><path d="M118.11,224.409l-94.488,0" style="fill:none;stroke:#3465a4;stroke-width:8.33px;"/><path d="M94.488,248.031l-47.244,0" style="fill:none;stroke:#3465a4;stroke-width:8.33px;"/><path d="M70.866,248.031l0,82.678" style="fill:none;stroke:#3465a4;stroke-width:4.25px;"/><g transform="matrix(33.3333,0,0,33.3333,110.127,206.948)"></g><text x="90.661px" y="206.948px" style="font-family:'ArialMT', 'Arial', sans-serif;font-size:33.333px;fill:#3465a4;">+</text><g transform="matrix(33.3333,0,0,33.3333,105.944,283.592)"></g><text x="94.844px" y="283.592px" style="font-family:'ArialMT', 'Arial', sans-serif;font-size:33.333px;fill:#3465a4;">-</text></g><circle id="connection-inside" cx="70.866" cy="330.709" r="11.811" style="fill:#3465a4;"/><circle id="connection-inside1" serif:id="connection-inside" cx="259.843" cy="141.732" r="11.811" style="fill:#3465a4;"/><g id="gnd-signal"><path d="M70.866,330.709l0,35.433l35.433,-0l-35.433,50.374l-35.433,-50.374l35.433,-0" style="fill:none;stroke:#3465a4;stroke-width:4.25px;"/></g></svg>