<?xml version="1.0" encoding="UTF-8" standalone="no"?><!DOCTYPE svg PUBLIC "-//W3C//DTD SVG 1.1//EN" "http://www.w3.org/Graphics/SVG/1.1/DTD/svg11.dtd"><svg width="100%" height="100%" viewBox="0 0 709 567" version="1.1" xmlns="http://www.w3.org/2000/svg" xmlns:xlink="http://www.w3.org/1999/xlink" xml:space="preserve" xmlns:serif="http://www.serif.com/" style="fill-rule:evenodd;clip-rule:evenodd;stroke-linecap:round;stroke-linejoin:round;stroke-miterlimit:1.5;"><g id="resistor-american-short"><path d="M307.087,59.055l-0,23.622l-23.622,11.811l47.244,23.622l-47.244,23.622l47.244,23.622l-47.244,23.622l47.244,23.622l-23.622,11.811l-0,23.622" style="fill:none;stroke:#3465a4;stroke-width:4.25px;"/></g><g id="resistor-american-short1" serif:id="resistor-american-short"><path d="M307.087,248.031l-0,23.623l-23.622,11.811l47.244,23.622l-47.244,23.622l47.244,23.622l-47.244,23.622l47.244,23.622l-23.622,11.811l-0,23.622" style="fill:none;stroke:#3465a4;stroke-width:4.25px;"/></g><g transform="matrix(1,0,0,1,-755.906,-159.513)"><text x="1098.42px" y="307.782px" style="font-family:'ArialMT', 'Arial', sans-serif;font-size:33.333px;fill:#ea7500;">R1</text><g transform="matrix(33.3333,0,0,33.3333,1225.25,342.206)"></g><text x="1098.42px" y="342.206px" style="font-family:'ArialMT', 'Arial', sans-serif;font-size:33.333px;fill:#ea7500;">1.21 MΩ</text></g><g transform="matrix(1,0,0,1,-555.118,-248.031)"><text x="1098.42px" y="301.813px" style="font-family:'ArialMT', 'Arial', sans-serif;font-size:33.333px;fill:#ea7500;">U1</text><g transform="matrix(33.3333,0,0,33.3333,1174.34,336.237)"></g><text x="1098.42px" y="336.237px" style="font-family:'ArialMT', 'Arial', sans-serif;font-size:33.333px;fill:#ea7500;">MCU</text></g><g transform="matrix(33.3333,0,0,33.3333,677.367,259.843)"></g><text x="555.118px" y="259.843px" style="font-family:'ArialMT', 'Arial', sans-serif;font-size:33.333px;fill:#ea7500;">ADC_IN</text><g transform="matrix(1,0,0,1,-755.906,35.3056)"><text x="1098.42px" y="301.877px" style="font-family:'ArialMT', 'Arial', sans-serif;font-size:33.333px;fill:#ea7500;">R2</text><g transform="matrix(33.3333,0,0,33.3333,1204.89,336.301)"></g><text x="1098.42px" y="336.301px" style="font-family:'ArialMT', 'Arial', sans-serif;font-size:33.333px;fill:#ea7500;">909 kΩ</text></g><g transform="matrix(1,0,0,1,-968.504,-70.8661)"><text x="1098.42px" y="295.53px" style="font-family:'ArialMT', 'Arial', sans-serif;font-size:33.333px;fill:#ea7500;">BT1</text><g transform="matrix(33.3333,0,0,33.3333,1176.26,329.954)"></g><text x="1098.42px" y="329.954px" style="font-family:'ArialMT', 'Arial', sans-serif;font-size:33.333px;fill:#ea7500;">3.7 V</text></g><path id="wire-h" d="M70.866,59.055l236.221,0" style="fill:none;stroke:#3465a4;stroke-width:4.25px;"/><path id="wire-h1" serif:id="wire-h" d="M70.866,437.008l236.221,-0" style="fill:none;stroke:#3465a4;stroke-width:4.25px;"/><path id="wire-h2" serif:id="wire-h" d="M307.087,248.031l236.22,0" style="fill:none;stroke:#3465a4;stroke-width:4.25px;"/><path id="wire-h3" serif:id="wire-h" d="M543.307,106.299l141.732,0" style="fill:none;stroke:#3465a4;stroke-width:4.25px;"/><path id="wire-h4" serif:id="wire-h" d="M70.866,437.008l0,-106.299" style="fill:none;stroke:#3465a4;stroke-width:4.25px;"/><path id="wire-h5" serif:id="wire-h" d="M70.866,165.354l0,-106.299" style="fill:none;stroke:#3465a4;stroke-width:4.25px;"/><path id="wire-h6" serif:id="wire-h" d="M543.307,401.575l0,-295.276" style="fill:none;stroke:#3465a4;stroke-width:4.25px;"/><g id="batt-1-cell"><path d="M70.866,224.409l0,-82.677" style="fill:none;stroke:#3465a4;stroke-width:4.25px;"/><path d="M118.11,224.409l-94.488,0" style="fill:none;stroke:#3465a4;stroke-width:8.33px;"/><path d="M94.488,248.031l-47.244,0" style="fill:none;stroke:#3465a4;stroke-width:8.33px;"/><path d="M70.866,248.031l0,82.678" style="fill:none;stroke:#3465a4;stroke-width:4.25px;"/><g transform="matrix(33.3333,0,0,33.3333,110.127,206.948)"></g><text x="90.661px" y="206.948px" style="font-family:'ArialMT', 'Arial', sans-serif;font-size:33.333px;fill:#3465a4;">+</text><g transform="matrix(33.3333,0,0,33.3333,105.944,283.592)"></g><text x="94.844px" y="283.592px" style="font-family:'ArialMT', 'Arial', sans-serif;font-size:33.333px;fill:#3465a4;">-</text></g><path id="wire-h7" serif:id="wire-h" d="M70.866,437.008l236.221,-0" style="fill:none;stroke:#3465a4;stroke-width:4.25px;"/><circle id="connection-inside" cx="307.087" cy="248.031" r="11.811" style="fill:#3465a4;"/><circle id="connection-inside1" serif:id="connection-inside" cx="307.087" cy="437.008" r="11.811" style="fill:#3465a4;"/><g id="gnd-signal"><path d="M307.087,437.008l-0,35.433l35.433,-0l-35.433,50.374l-35.433,-50.374l35.433,-0" style="fill:none;stroke:#3465a4;stroke-width:4.25px;"/></g></svg>