<?xml version="1.0" encoding="UTF-8" standalone="no"?><!DOCTYPE svg PUBLIC "-//W3C//DTD SVG 1.1//EN" "http://www.w3.org/Graphics/SVG/1.1/DTD/svg11.dtd"><svg width="100%" height="100%" viewBox="0 0 709 922" version="1.1" xmlns="http://www.w3.org/2000/svg" xmlns:xlink="http://www.w3.org/1999/xlink" xml:space="preserve" xmlns:serif="http://www.serif.com/" style="fill-rule:evenodd;clip-rule:evenodd;stroke-linecap:round;stroke-linejoin:round;stroke-miterlimit:1.5;"><g id="resistor-american-short"><path d="M307.087,59.055l-0,23.622l-23.622,11.811l47.244,23.622l-47.244,23.622l47.244,23.622l-47.244,23.622l47.244,23.622l-23.622,11.811l-0,23.622" style="fill:none;stroke:#3465a4;stroke-width:4.25px;"/></g><g id="resistor-american-short1" serif:id="resistor-american-short"><path d="M307.087,248.031l-0,23.623l-23.622,11.811l47.244,23.622l-47.244,23.622l47.244,23.622l-47.244,23.622l47.244,23.622l-23.622,11.811l-0,23.622" style="fill:none;stroke:#3465a4;stroke-width:4.25px;"/></g><g id="resistor-american-short2" serif:id="resistor-american-short"><path d="M437.008,614.173l-0,23.622l-23.622,11.811l47.244,23.622l-47.244,23.622l47.244,23.622l-47.244,23.622l47.244,23.623l-23.622,11.811l-0,23.622" style="fill:none;stroke:#3465a4;stroke-width:4.25px;"/></g><g transform="matrix(1,0,0,1,-755.906,-159.513)"><text x="1098.42px" y="307.782px" style="font-family:'ArialMT', 'Arial', sans-serif;font-size:33.333px;fill:#ea7500;">R1</text><g transform="matrix(33.3333,0,0,33.3333,1225.25,342.206)"></g><text x="1098.42px" y="342.206px" style="font-family:'ArialMT', 'Arial', sans-serif;font-size:33.333px;fill:#ea7500;">1.21 MΩ</text></g><g transform="matrix(1,0,0,1,-555.118,-248.031)"><text x="1098.42px" y="301.813px" style="font-family:'ArialMT', 'Arial', sans-serif;font-size:33.333px;fill:#ea7500;">U1</text><g transform="matrix(33.3333,0,0,33.3333,1174.34,336.237)"></g><text x="1098.42px" y="336.237px" style="font-family:'ArialMT', 'Arial', sans-serif;font-size:33.333px;fill:#ea7500;">MCU</text></g><g transform="matrix(33.3333,0,0,33.3333,677.367,259.843)"></g><text x="555.118px" y="259.843px" style="font-family:'ArialMT', 'Arial', sans-serif;font-size:33.333px;fill:#ea7500;">ADC_IN</text><g transform="matrix(33.3333,0,0,33.3333,601.423,626.112)"></g><text x="555.118px" y="626.112px" style="font-family:'ArialMT', 'Arial', sans-serif;font-size:33.333px;fill:#ea7500;">EN</text><g transform="matrix(33.3333,0,0,33.3333,625.496,141.86)"></g><text x="555.118px" y="141.86px" style="font-family:'ArialMT', 'Arial', sans-serif;font-size:33.333px;fill:#ea7500;">VDD</text><g transform="matrix(33.3333,0,0,33.3333,513.283,82.8046)"></g><text x="389.764px" y="82.805px" style="font-family:'ArialMT', 'Arial', sans-serif;font-size:33.333px;fill:#ea7500;">&gt;=VBA<tspan x="492.921px " y="82.805px ">T</tspan></text><g transform="matrix(1,0,0,1,-755.906,35.3056)"><text x="1098.42px" y="301.877px" style="font-family:'ArialMT', 'Arial', sans-serif;font-size:33.333px;fill:#ea7500;">R2</text><g transform="matrix(33.3333,0,0,33.3333,1204.89,336.301)"></g><text x="1098.42px" y="336.301px" style="font-family:'ArialMT', 'Arial', sans-serif;font-size:33.333px;fill:#ea7500;">909 kΩ</text></g><g transform="matrix(1,0,0,1,-625.984,437.008)"><text x="1098.42px" y="301.877px" style="font-family:'ArialMT', 'Arial', sans-serif;font-size:33.333px;fill:#ea7500;">R3</text><g transform="matrix(33.3333,0,0,33.3333,1204.89,336.301)"></g><text x="1098.42px" y="336.301px" style="font-family:'ArialMT', 'Arial', sans-serif;font-size:33.333px;fill:#ea7500;">100 kΩ</text></g><g transform="matrix(1,0,0,1,-968.504,47.2441)"><text x="1098.42px" y="295.53px" style="font-family:'ArialMT', 'Arial', sans-serif;font-size:33.333px;fill:#ea7500;">BT1</text><g transform="matrix(33.3333,0,0,33.3333,1176.26,329.954)"></g><text x="1098.42px" y="329.954px" style="font-family:'ArialMT', 'Arial', sans-serif;font-size:33.333px;fill:#ea7500;">3.7 V</text></g><path id="wire-h" d="M70.866,59.055l236.221,0" style="fill:none;stroke:#3465a4;stroke-width:4.25px;"/><path id="wire-h1" serif:id="wire-h" d="M307.087,248.031l236.22,0" style="fill:none;stroke:#3465a4;stroke-width:4.25px;"/><path id="wire-h2" serif:id="wire-h" d="M460.63,129.921l82.677,0" style="fill:none;stroke:#3465a4;stroke-width:4.25px;"/><path id="wire-h3" serif:id="wire-h" d="M425.197,614.173l118.11,0" style="fill:none;stroke:#3465a4;stroke-width:4.25px;"/><path id="wire-h4" serif:id="wire-h" d="M543.307,106.299l141.732,0" style="fill:none;stroke:#3465a4;stroke-width:4.25px;"/><path id="wire-h5" serif:id="wire-h" d="M70.866,673.228l0,-224.409" style="fill:none;stroke:#3465a4;stroke-width:4.25px;"/><path id="wire-h6" serif:id="wire-h" d="M70.866,259.843l0,-200.788" style="fill:none;stroke:#3465a4;stroke-width:4.25px;"/><path id="wire-h7" serif:id="wire-h" d="M543.307,685.039l0,-578.74" style="fill:none;stroke:#3465a4;stroke-width:4.25px;"/><g id="batt-1-cell"><path d="M70.866,342.52l0,-82.677" style="fill:none;stroke:#3465a4;stroke-width:4.25px;"/><path d="M118.11,342.52l-94.488,-0" style="fill:none;stroke:#3465a4;stroke-width:8.33px;"/><path d="M94.488,366.142l-47.244,-0" style="fill:none;stroke:#3465a4;stroke-width:8.33px;"/><path d="M70.866,366.142l0,82.677" style="fill:none;stroke:#3465a4;stroke-width:4.25px;"/><g transform="matrix(33.3333,0,0,33.3333,110.127,325.058)"></g><text x="90.661px" y="325.058px" style="font-family:'ArialMT', 'Arial', sans-serif;font-size:33.333px;fill:#3465a4;">+</text><g transform="matrix(33.3333,0,0,33.3333,105.944,401.702)"></g><text x="94.844px" y="401.702px" style="font-family:'ArialMT', 'Arial', sans-serif;font-size:33.333px;fill:#3465a4;">-</text></g><path id="wire-h8" serif:id="wire-h" d="M70.866,673.228l236.221,0" style="fill:none;stroke:#3465a4;stroke-width:4.25px;"/><circle id="connection-inside" cx="307.087" cy="248.031" r="11.811" style="fill:#3465a4;"/><circle id="connection-inside1" serif:id="connection-inside" cx="307.087" cy="673.228" r="11.811" style="fill:#3465a4;"/><circle id="connection-inside2" serif:id="connection-inside" cx="437.008" cy="614.173" r="11.811" style="fill:#3465a4;"/><g id="gnd-signal"><path d="M307.087,673.228l-0,35.433l35.433,0l-35.433,50.375l-35.433,-50.375l35.433,0" style="fill:none;stroke:#3465a4;stroke-width:4.25px;"/></g><g id="gnd-signal1" serif:id="gnd-signal"><path d="M437.008,803.15l-0,35.433l35.433,-0l-35.433,50.374l-35.433,-50.374l35.433,-0" style="fill:none;stroke:#3465a4;stroke-width:4.25px;"/></g><g id="tran-mos-enh-n"><path d="M425.197,614.173l-47.244,0" style="fill:none;stroke:#3465a4;stroke-width:4.25px;"/><path d="M354.331,555.118l-23.622,11.811l-0,-23.622l23.622,11.811Z" style="fill:#3465a4;"/><path d="M354.331,555.118l-23.622,11.811l-0,-23.622l23.622,11.811Zm-9.502,0l-9.871,-4.936l-0,9.872l9.871,-4.936Z" style="fill:#3465a4;"/><g id="diode-general"><path d="M271.654,614.173l-0,-118.11" style="fill:none;stroke:#3465a4;stroke-width:4.25px;"/><path d="M289.37,543.307l-35.433,0l17.717,0l17.716,29.528l-35.433,-0l17.717,-29.528" style="fill:#3465a4;stroke:#3465a4;stroke-width:4.25px;"/></g><path d="M377.953,614.173l-0,-118.11" style="fill:none;stroke:#3465a4;stroke-width:4.17px;"/><path d="M354.331,478.346l-0,35.434" style="fill:none;stroke:#3465a4;stroke-width:4.17px;"/><path d="M354.331,596.457l-0,35.433" style="fill:none;stroke:#3465a4;stroke-width:4.17px;"/><path d="M354.331,537.402l-0,35.433" style="fill:none;stroke:#3465a4;stroke-width:4.17px;"/><path d="M354.331,496.063l-47.244,-0l-0,-59.055" style="fill:none;stroke:#3465a4;stroke-width:4.17px;"/><path d="M354.331,614.173l-47.244,0l-0,59.055" style="fill:none;stroke:#3465a4;stroke-width:4.17px;"/><path d="M354.331,555.118l-47.244,0l-0,59.055" style="fill:none;stroke:#3465a4;stroke-width:4.17px;"/><path d="M307.087,496.063l-35.433,-0" style="fill:none;stroke:#3465a4;stroke-width:4.17px;"/><path d="M307.087,614.173l-35.433,0" style="fill:none;stroke:#3465a4;stroke-width:4.17px;"/></g><g transform="matrix(33.3333,0,0,33.3333,434.23,555.246)"></g><text x="389.764px" y="555.246px" style="font-family:'ArialMT', 'Arial', sans-serif;font-size:33.333px;fill:#ea7500;">Q1</text><g id="v-rail"><path d="M425.197,94.488l70.866,0" style="fill:none;stroke:#3465a4;stroke-width:4.25px;"/><path d="M460.63,94.488l-0,35.433" style="fill:none;stroke:#3465a4;stroke-width:4.25px;"/></g></svg>