<?xml version="1.0" encoding="UTF-8" standalone="no"?>
<!DOCTYPE svg PUBLIC "-//W3C//DTD SVG 1.1//EN" "http://www.w3.org/Graphics/SVG/1.1/DTD/svg11.dtd">
<svg width="100%" height="100%" viewBox="0 0 1063 591" version="1.1" xmlns="http://www.w3.org/2000/svg" xmlns:xlink="http://www.w3.org/1999/xlink" xml:space="preserve" xmlns:serif="http://www.serif.com/" style="fill-rule:evenodd;clip-rule:evenodd;stroke-linecap:round;stroke-linejoin:round;stroke-miterlimit:1.5;">
    <g transform="matrix(1,0,0,1,-354.331,-614.173)">
        <g id="diode-general-purpose" transform="matrix(0.707107,-0.707107,0.75,0.75,178.035,944.013)">
            <path d="M708.661,354.331L708.661,590.551" style="fill:none;stroke:rgb(52,101,164);stroke-width:4.12px;"/>
            <path d="M673.228,496.063L744.094,496.063L708.661,496.063L673.228,437.008L744.094,437.008L708.661,496.063" style="fill:rgb(52,101,164);stroke:rgb(52,101,164);stroke-width:4.12px;"/>
        </g>
        <g id="diode-general-purpose1" serif:id="diode-general-purpose" transform="matrix(0.707107,-0.707107,0.75,0.75,0.86921,1121.18)">
            <path d="M708.661,354.331L708.661,590.551" style="fill:none;stroke:rgb(52,101,164);stroke-width:4.12px;"/>
            <path d="M673.228,496.063L744.094,496.063L708.661,496.063L673.228,437.008L744.094,437.008L708.661,496.063" style="fill:rgb(52,101,164);stroke:rgb(52,101,164);stroke-width:4.12px;"/>
        </g>
        <g id="diode-general-purpose2" serif:id="diode-general-purpose" transform="matrix(-0.707107,-0.707107,0.75,-0.75,1180.23,1829.84)">
            <path d="M708.661,354.331L708.661,590.551" style="fill:none;stroke:rgb(52,101,164);stroke-width:4.12px;"/>
            <path d="M673.228,496.063L744.094,496.063L708.661,496.063L673.228,437.008L744.094,437.008L708.661,496.063" style="fill:rgb(52,101,164);stroke:rgb(52,101,164);stroke-width:4.12px;"/>
        </g>
        <g id="diode-general-purpose3" serif:id="diode-general-purpose" transform="matrix(-0.707107,-0.707107,0.75,-0.75,1003.07,1652.67)">
            <path d="M708.661,354.331L708.661,590.551" style="fill:none;stroke:rgb(52,101,164);stroke-width:4.12px;"/>
            <path d="M673.228,496.063L744.094,496.063L708.661,496.063L673.228,437.008L744.094,437.008L708.661,496.063" style="fill:rgb(52,101,164);stroke:rgb(52,101,164);stroke-width:4.12px;"/>
        </g>
    </g>
    <g transform="matrix(1,0,0,1,106.299,-602.362)">
        <circle cx="484.252" cy="696.85" r="11.811" style="fill:rgb(52,101,164);"/>
    </g>
    <g transform="matrix(1,0,0,1,283.465,-425.197)">
        <circle cx="484.252" cy="696.85" r="11.811" style="fill:rgb(52,101,164);"/>
    </g>
    <g transform="matrix(1,0,0,1,-70.8661,-425.197)">
        <circle cx="484.252" cy="696.85" r="11.811" style="fill:rgb(52,101,164);"/>
    </g>
    <g transform="matrix(1,0,0,1,106.299,-248.031)">
        <circle cx="484.252" cy="696.85" r="11.811" style="fill:rgb(52,101,164);"/>
    </g>
    <g id="v-sine" transform="matrix(1,0,0,1,-1771.65,-555.118)">
        <g transform="matrix(1,0,0,1,59.0551,59.0551)">
            <circle cx="1948.82" cy="767.717" r="59.055" style="fill:none;stroke:rgb(52,101,164);stroke-width:4.25px;"/>
        </g>
        <g transform="matrix(1,0,0,1,-82.6772,56.8342)">
            <path d="M2055.12,769.937C2055.12,758.126 2063.06,748.536 2072.84,748.536C2082.61,748.536 2090.55,758.126 2090.55,769.937" style="fill:none;stroke:rgb(52,101,164);stroke-width:4.25px;"/>
        </g>
        <g transform="matrix(1,0,0,-1,-47.2441,1596.71)">
            <path d="M2055.12,769.937C2055.12,758.126 2063.06,748.536 2072.84,748.536C2082.61,748.536 2090.55,758.126 2090.55,769.937" style="fill:none;stroke:rgb(52,101,164);stroke-width:4.25px;"/>
        </g>
        <path d="M2007.87,767.717L2007.87,708.661" style="fill:none;stroke:rgb(52,101,164);stroke-width:4.25px;"/>
        <path d="M2007.87,885.827L2007.87,944.882" style="fill:none;stroke:rgb(52,101,164);stroke-width:4.25px;"/>
    </g>
    <g transform="matrix(1,0,0,1,-354.331,-614.173)">
        <path d="M590.551,767.717L590.551,708.661L944.882,708.661" style="fill:none;stroke:rgb(52,101,164);stroke-width:4.17px;"/>
    </g>
    <g transform="matrix(1,0,0,1,-354.331,-614.173)">
        <path d="M590.551,1003.94L590.551,1062.99L944.882,1062.99" style="fill:none;stroke:rgb(52,101,164);stroke-width:4.17px;"/>
    </g>
    <g transform="matrix(1,0,0,1,-354.331,-614.173)">
        <path d="M767.717,885.827L767.717,1122.05L1299.21,1122.05" style="fill:none;stroke:rgb(52,101,164);stroke-width:4.17px;"/>
    </g>
    <g transform="matrix(1,0,0,1,-354.331,-614.173)">
        <path d="M1122.05,885.827L1299.21,885.827" style="fill:none;stroke:rgb(52,101,164);stroke-width:4.17px;"/>
    </g>
    <g transform="matrix(1,0,0,1,413.386,-448.875)">
        <path d="M543.307,708.717C549.826,708.717 555.118,713.997 555.118,720.5C555.118,727.004 549.826,732.283 543.307,732.283C536.788,732.283 531.496,727.004 531.496,720.5C531.496,713.997 536.788,708.717 543.307,708.717ZM543.307,712.966C547.478,712.966 550.869,716.339 550.869,720.5C550.869,724.661 547.478,728.034 543.307,728.034C539.136,728.034 535.745,724.661 535.745,720.5C535.745,716.339 539.136,712.966 543.307,712.966Z" style="fill:rgb(52,101,164);"/>
    </g>
    <g transform="matrix(1,0,0,1,413.386,-212.654)">
        <path d="M543.307,708.717C549.826,708.717 555.118,713.997 555.118,720.5C555.118,727.004 549.826,732.283 543.307,732.283C536.788,732.283 531.496,727.004 531.496,720.5C531.496,713.997 536.788,708.717 543.307,708.717ZM543.307,712.966C547.478,712.966 550.869,716.339 550.869,720.5C550.869,724.661 547.478,728.034 543.307,728.034C539.136,728.034 535.745,724.661 535.745,720.5C535.745,716.339 539.136,712.966 543.307,712.966Z" style="fill:rgb(52,101,164);"/>
    </g>
    <g transform="matrix(1,0,0,1,-630.423,29.2417)">
        <text x="677.227px" y="258.937px" style="font-family:'TimesNewRomanPSMT', 'Times New Roman', serif;font-size:50px;fill:rgb(234,117,0);">V<tspan x="706.89px 742.999px " y="258.937px 258.937px ">AC</tspan></text>
    </g>
    <g transform="matrix(1,0,0,1,227.329,141.881)">
        <text x="677.227px" y="258.937px" style="font-family:'TimesNewRomanPSMT', 'Times New Roman', serif;font-size:50px;fill:rgb(234,117,0);">VDC</text>
    </g>
    <g transform="matrix(1,0,0,1,265.403,68.216)">
        <text x="677.227px" y="258.937px" style="font-family:'TimesNewRomanPSMT', 'Times New Roman', serif;font-size:50px;fill:rgb(234,117,0);">+</text>
    </g>
    <g transform="matrix(1,0,0,1,271.128,228.546)">
        <text x="677.227px" y="258.937px" style="font-family:'TimesNewRomanPSMT', 'Times New Roman', serif;font-size:50px;fill:rgb(234,117,0);">-</text>
    </g>
</svg>
