<svg xmlns="http://www.w3.org/2000/svg" viewBox="0 0 300 200" font-family="ui-monospace, SFMono-Regular, Menlo, monospace">
  <rect width="300" height="200" fill="#1f2430"/>
  <text x="150" y="34" fill="#feb3a6" font-size="18" font-weight="700" text-anchor="middle" font-family="system-ui, sans-serif">COBS</text>
  <text x="150" y="52" fill="#9aa4b2" font-size="10" text-anchor="middle" font-family="system-ui, sans-serif">encode / decode</text>

  <!-- raw row -->
  <text x="20" y="88" fill="#9aa4b2" font-size="9" font-family="system-ui, sans-serif">RAW</text>
  <g font-size="12" text-anchor="middle">
    <rect x="20"  y="94" width="34" height="26" rx="3" fill="#3b82f6"/><text x="37"  y="111" fill="#fff">23</text>
    <rect x="58"  y="94" width="34" height="26" rx="3" fill="#64748b"/><text x="75"  y="111" fill="#fff">00</text>
    <rect x="96"  y="94" width="34" height="26" rx="3" fill="#3b82f6"/><text x="113" y="111" fill="#fff">D4</text>
    <rect x="134" y="94" width="34" height="26" rx="3" fill="#3b82f6"/><text x="151" y="111" fill="#fff">81</text>
    <rect x="172" y="94" width="34" height="26" rx="3" fill="#64748b"/><text x="189" y="111" fill="#fff">00</text>
    <rect x="210" y="94" width="34" height="26" rx="3" fill="#3b82f6"/><text x="227" y="111" fill="#fff">FA</text>
  </g>

  <path d="M150 126 L150 140" stroke="#feb3a6" stroke-width="2"/>
  <path d="M144 134 L150 142 L156 134 Z" fill="#feb3a6"/>

  <!-- encoded row -->
  <text x="20" y="160" fill="#9aa4b2" font-size="9" font-family="system-ui, sans-serif">FRAME</text>
  <g font-size="11" text-anchor="middle">
    <rect x="14"  y="166" width="30" height="24" rx="3" fill="#22c55e"/><text x="29"  y="182" fill="#fff">02</text>
    <rect x="47"  y="166" width="30" height="24" rx="3" fill="#3b82f6"/><text x="62"  y="182" fill="#fff">23</text>
    <rect x="80"  y="166" width="30" height="24" rx="3" fill="#22c55e"/><text x="95"  y="182" fill="#fff">03</text>
    <rect x="113" y="166" width="30" height="24" rx="3" fill="#3b82f6"/><text x="128" y="182" fill="#fff">D4</text>
    <rect x="146" y="166" width="30" height="24" rx="3" fill="#3b82f6"/><text x="161" y="182" fill="#fff">81</text>
    <rect x="179" y="166" width="30" height="24" rx="3" fill="#22c55e"/><text x="194" y="182" fill="#fff">02</text>
    <rect x="212" y="166" width="30" height="24" rx="3" fill="#3b82f6"/><text x="227" y="182" fill="#fff">FA</text>
    <rect x="245" y="166" width="30" height="24" rx="3" fill="#dc2626"/><text x="260" y="182" fill="#fff">00</text>
  </g>
</svg>
