<?xml version="1.0" encoding="UTF-8" standalone="no"?>
<!DOCTYPE svg PUBLIC "-//W3C//DTD SVG 1.1//EN" "http://www.w3.org/Graphics/SVG/1.1/DTD/svg11.dtd">
<svg width="100%" height="100%" viewBox="0 0 1182 237" version="1.1" xmlns="http://www.w3.org/2000/svg" xmlns:xlink="http://www.w3.org/1999/xlink" xml:space="preserve" xmlns:serif="http://www.serif.com/" style="fill-rule:evenodd;clip-rule:evenodd;stroke-linecap:round;stroke-linejoin:round;stroke-miterlimit:1.5;">
    <g transform="matrix(1,0,0,1,-315.827,-134.742)">
        <text x="677.227px" y="258.937px" style="font-family:'ArialMT', 'Arial', sans-serif;font-size:50px;fill:rgb(234,117,0);">Y</text>
    </g>
    <g transform="matrix(1,0,0,1,73.9366,-134.742)">
        <text x="677.227px" y="258.937px" style="font-family:'ArialMT', 'Arial', sans-serif;font-size:50px;fill:rgb(234,117,0);">Y</text>
    </g>
    <g transform="matrix(1,0,0,1,-599.414,-134.742)">
        <text x="677.227px" y="258.937px" style="font-family:'ArialMT', 'Arial', sans-serif;font-size:50px;fill:rgb(234,117,0);">A</text>
    </g>
    <g transform="matrix(1,0,0,1,-209.65,-134.742)">
        <text x="677.227px" y="258.937px" style="font-family:'ArialMT', 'Arial', sans-serif;font-size:50px;fill:rgb(234,117,0);">A</text>
    </g>
    <g transform="matrix(1,0,0,1,-555.215,-51.8828)">
        <text x="677.227px" y="258.937px" style="font-family:'ArialMT', 'Arial', sans-serif;font-size:33.333px;">MIL-STD-806B</text>
    </g>
    <g transform="matrix(1,0,0,1,-130.8,-51.8828)">
        <text x="677.227px" y="258.937px" style="font-family:'ArialMT', 'Arial', sans-serif;font-size:33.333px;">IEC 60617</text>
    </g>
    <g id="gate-not" transform="matrix(1,0,0,1,-590.551,-1192.91)">
        <path d="M708.661,1299.21L767.717,1299.21L767.717,1240.16L874.016,1299.21L767.717,1358.27L767.717,1299.21" style="fill:none;stroke:rgb(52,101,164);stroke-width:4.25px;"/>
        <path d="M897.638,1299.21L944.882,1299.21" style="fill:none;stroke:rgb(52,101,164);stroke-width:4.25px;"/>
        <path d="M885.827,1287.4C892.345,1287.4 897.638,1292.69 897.638,1299.21C897.638,1305.73 892.345,1311.02 885.827,1311.02C879.308,1311.02 874.016,1305.73 874.016,1299.21C874.016,1292.69 879.308,1287.4 885.827,1287.4ZM885.827,1291.65C890,1291.65 893.389,1295.04 893.389,1299.21C893.389,1303.39 890,1306.77 885.827,1306.77C881.653,1306.77 878.265,1303.39 878.265,1299.21C878.265,1295.04 881.653,1291.65 885.827,1291.65Z" style="fill:rgb(52,101,164);"/>
    </g>
    <g id="gate-not-iec" transform="matrix(1,0,0,1,-555.118,-1192.91)">
        <g transform="matrix(1,0,0,1,489.841,1004.31)">
            <text x="677.227px" y="292.237px" style="font-family:'ArialMT', 'Arial', sans-serif;font-size:58.3px;fill:rgb(52,101,164);">1</text>
        </g>
        <g transform="matrix(1,0,0,1,649.606,-1122.05)">
            <rect x="472.441" y="2362.2" width="118.11" height="118.11" style="fill:none;stroke:rgb(52,101,164);stroke-width:4.25px;"/>
        </g>
        <g transform="matrix(1,0,0,1,649.606,-1086.61)">
            <path d="M472.441,2385.83L413.386,2385.83" style="fill:none;stroke:rgb(52,101,164);stroke-width:4.25px;"/>
        </g>
        <g transform="matrix(1,0,0,1,649.606,-1086.61)">
            <path d="M590.551,2385.83L649.606,2385.83" style="fill:none;stroke:rgb(52,101,164);stroke-width:4.25px;"/>
        </g>
        <path d="M1240.16,1263.78L1275.59,1299.21" style="fill:none;stroke:rgb(52,101,164);stroke-width:4.25px;"/>
    </g>
    <g transform="matrix(1,0,0,1,392.834,-134.384)">
        <text x="677.227px" y="258.937px" style="font-family:'ArialMT', 'Arial', sans-serif;font-size:50px;fill:rgb(234,117,0);">Y</text>
    </g>
    <g transform="matrix(1,0,0,1,163.366,-134.742)">
        <text x="677.227px" y="258.937px" style="font-family:'ArialMT', 'Arial', sans-serif;font-size:50px;fill:rgb(234,117,0);">A</text>
    </g>
    <g transform="matrix(1,0,0,1,188.097,-51.8828)">
        <text x="677.227px" y="258.937px" style="font-family:'ArialMT', 'Arial', sans-serif;font-size:33.333px;">DIN 40700-24</text>
    </g>
    <g id="gate-not-din" transform="matrix(1,0,0,1,-531.496,-1192.91)">
        <g id="connection-center" transform="matrix(1,0,0,1,1051.18,602.362)">
            <circle cx="484.252" cy="696.85" r="11.811" style="fill:rgb(52,101,164);stroke:rgb(52,101,164);stroke-width:4.25px;"/>
        </g>
        <g transform="matrix(1,0,0,1,708.661,-1594.49)">
            <path d="M767.717,2834.65C800.31,2834.65 826.772,2861.11 826.772,2893.7C826.772,2926.29 800.31,2952.76 767.717,2952.76" style="fill:none;stroke:rgb(52,101,164);stroke-width:4.25px;"/>
        </g>
        <g transform="matrix(1,0,0,1,708.661,-1594.49)">
            <path d="M767.717,2834.65L767.717,2952.76" style="fill:none;stroke:rgb(52,101,164);stroke-width:4.25px;"/>
        </g>
        <g transform="matrix(1,0,0,1,708.661,-1594.49)">
            <path d="M826.772,2893.7L885.827,2893.7" style="fill:none;stroke:rgb(52,101,164);stroke-width:4.25px;"/>
        </g>
        <g transform="matrix(1,0,0,1,708.661,-1629.92)">
            <path d="M767.717,2929.13L708.661,2929.13" style="fill:none;stroke:rgb(52,101,164);stroke-width:4.25px;"/>
        </g>
    </g>
</svg>
