<?xml version="1.0" encoding="UTF-8" standalone="no"?>
<!DOCTYPE svg PUBLIC "-//W3C//DTD SVG 1.1//EN" "http://www.w3.org/Graphics/SVG/1.1/DTD/svg11.dtd">
<svg width="100%" height="100%" viewBox="0 0 945 709" version="1.1" xmlns="http://www.w3.org/2000/svg" xmlns:xlink="http://www.w3.org/1999/xlink" xml:space="preserve" xmlns:serif="http://www.serif.com/" style="fill-rule:evenodd;clip-rule:evenodd;stroke-linecap:round;stroke-linejoin:round;stroke-miterlimit:1.5;">
    <g id="opamp-normal" transform="matrix(1,0,0,1,-1228.35,-1665.35)">
        <g transform="matrix(0.5,0,0,1,708.661,236.22)">
            <path d="M1417.32,1535.43L1535.43,1535.43" style="fill:none;stroke:rgb(52,101,164);stroke-width:5.37px;"/>
        </g>
        <g transform="matrix(0.5,0,0,1,708.661,236.22)">
            <path d="M1417.32,1653.54L1535.43,1653.54" style="fill:none;stroke:rgb(52,101,164);stroke-width:5.37px;"/>
        </g>
        <g transform="matrix(1,0,0,1,-59.0551,236.22)">
            <path d="M1535.43,1476.38L1535.43,1712.6" style="fill:none;stroke:rgb(52,101,164);stroke-width:4.25px;"/>
        </g>
        <g transform="matrix(1,0,0,0.997409,0,240.045)">
            <path d="M1476.38,1713.21L1712.6,1595.1L1476.38,1476.38" style="fill:none;stroke:rgb(52,101,164);stroke-width:4.25px;"/>
        </g>
        <g transform="matrix(1,0,0,1,0,233.827)">
            <path d="M1712.6,1596.88L1771.65,1596.88" style="fill:none;stroke:rgb(52,101,164);stroke-width:4.25px;"/>
        </g>
        <g transform="matrix(1.39492,0,0,1.39492,-601.123,-237.499)">
            <text x="1498.34px" y="1537.96px" style="font-family:'ArialMT', 'Arial', sans-serif;font-size:50px;fill:rgb(52,101,164);">-</text>
        </g>
        <g transform="matrix(1,0,0,1,-9.96459,251.328)">
            <text x="1498.34px" y="1537.96px" style="font-family:'ArialMT', 'Arial', sans-serif;font-size:50px;fill:rgb(52,101,164);">+</text>
        </g>
    </g>
    <g id="diode-general-purpose" transform="matrix(6.12323e-17,-1,1,6.12323e-17,129.921,874.016)">
        <path d="M708.661,354.331L708.661,590.551" style="fill:none;stroke:rgb(52,101,164);stroke-width:4.25px;"/>
        <path d="M673.228,496.063L744.094,496.063L708.661,496.063L673.228,437.008L744.094,437.008L708.661,496.063" style="fill:rgb(52,101,164);stroke:rgb(52,101,164);stroke-width:4.25px;"/>
    </g>
    <g transform="matrix(1,0,0,1,366.142,-11.811)">
        <path d="M354.331,354.331L354.331,401.575L330.709,413.386L377.953,437.008L330.709,460.63L377.953,484.252L330.709,507.874L377.953,531.496L354.331,543.307L354.331,590.551" style="fill:none;stroke:rgb(52,101,164);stroke-width:4.25px;"/>
    </g>
    <g transform="matrix(0.9,0,0,1,-236.22,-129.921)">
        <path d="M472.441,354.331L472.441,472.441L1062.99,472.441L1062.99,295.276" style="fill:none;stroke:rgb(52,101,164);stroke-width:4.38px;"/>
    </g>
    <g transform="matrix(1,0,0,1,-1051.18,-11.811)">
        <path d="M1771.65,590.551L1771.65,625.984" style="fill:none;stroke:rgb(52,101,164);stroke-width:4.25px;"/>
        <path d="M1724.41,625.984L1818.9,625.984" style="fill:none;stroke:rgb(52,101,164);stroke-width:4.25px;"/>
        <path d="M1736.22,649.606L1807.09,649.606" style="fill:none;stroke:rgb(52,101,164);stroke-width:4.25px;"/>
        <path d="M1748.03,673.228L1795.28,673.228" style="fill:none;stroke:rgb(52,101,164);stroke-width:4.25px;"/>
    </g>
    <g transform="matrix(1,0,0,1,236.22,-354.331)">
        <circle cx="484.252" cy="696.85" r="11.811" style="fill:rgb(52,101,164);"/>
    </g>
    <g transform="matrix(1,0,0,1,-630.285,-145.665)">
        <text x="677.227px" y="258.937px" style="font-family:'TimesNewRomanPSMT', 'Times New Roman', serif;font-size:50px;fill:rgb(234,117,0);">v</text>
        <text x="702.227px" y="275.587px" style="font-family:'TimesNewRomanPSMT', 'Times New Roman', serif;font-size:29.15px;fill:rgb(234,117,0);">in</text>
    </g>
    <g transform="matrix(1,0,0,1,90.1877,83.583)">
        <text x="677.227px" y="258.937px" style="font-family:'TimesNewRomanPSMT', 'Times New Roman', serif;font-size:50px;fill:rgb(234,117,0);">v</text>
        <text x="702.227px" y="275.587px" style="font-family:'TimesNewRomanPSMT', 'Times New Roman', serif;font-size:29.15px;fill:rgb(234,117,0);">out</text>
    </g>
    <g transform="matrix(1,0,0,1,-413.386,-614.229)">
        <path d="M543.307,708.717C549.826,708.717 555.118,713.997 555.118,720.5C555.118,727.004 549.826,732.283 543.307,732.283C536.788,732.283 531.496,727.004 531.496,720.5C531.496,713.997 536.788,708.717 543.307,708.717ZM543.307,712.966C547.478,712.966 550.869,716.339 550.869,720.5C550.869,724.661 547.478,728.034 543.307,728.034C539.136,728.034 535.745,724.661 535.745,720.5C535.745,716.339 539.136,712.966 543.307,712.966Z" style="fill:rgb(52,101,164);"/>
    </g>
    <g transform="matrix(1,0,0,1,-283.465,-129.921)">
        <path d="M472.441,236.193L425.197,236.22" style="fill:none;stroke:rgb(52,101,164);stroke-width:4.17px;"/>
    </g>
    <g transform="matrix(1,0,0,1,94.5395,225.315)">
        <text x="677.227px" y="258.937px" style="font-family:'TimesNewRomanPSMT', 'Times New Roman', serif;font-size:50px;fill:rgb(234,117,0);">R</text>
        <text x="710.577px" y="275.587px" style="font-family:'TimesNewRomanPSMT', 'Times New Roman', serif;font-size:29.15px;fill:rgb(234,117,0);">LOAD</text>
    </g>
</svg>
