<?xml version="1.0" encoding="UTF-8" standalone="no"?>
<!DOCTYPE svg PUBLIC "-//W3C//DTD SVG 1.1//EN" "http://www.w3.org/Graphics/SVG/1.1/DTD/svg11.dtd">
<svg width="100%" height="100%" viewBox="0 0 827 355" version="1.1" xmlns="http://www.w3.org/2000/svg" xmlns:xlink="http://www.w3.org/1999/xlink" xml:space="preserve" xmlns:serif="http://www.serif.com/" style="fill-rule:evenodd;clip-rule:evenodd;stroke-linecap:round;stroke-linejoin:round;stroke-miterlimit:1.5;">
    <g id="tran-mos-dep-n" transform="matrix(6.12323e-17,-1,1,6.12323e-17,-1712.6,2870.08)">
        <g transform="matrix(1,0,0,1,826.772,649.606)">
            <path d="M1771.65,1299.21L1818.9,1299.21" style="fill:none;stroke:rgb(52,101,164);stroke-width:4.25px;"/>
        </g>
        <g transform="matrix(0,1,1,0,1299.21,70.8661)">
            <path d="M1818.9,1370.08L1830.71,1393.7L1807.09,1393.7L1818.9,1370.08Z" style="fill:rgb(52,101,164);"/>
            <path d="M1818.9,1370.08L1830.71,1393.7L1807.09,1393.7L1818.9,1370.08ZM1818.9,1379.58L1813.96,1389.45C1813.96,1389.45 1823.83,1389.45 1823.83,1389.45L1818.9,1379.58Z" style="fill:rgb(52,101,164);"/>
        </g>
        <g id="diode-general" transform="matrix(0.5,0,0,-0.5,2397.61,2125.98)">
            <g transform="matrix(1,0,0,1,0.0551181,0)">
                <path d="M708.661,354.331L708.661,590.551" style="fill:none;stroke:rgb(52,101,164);stroke-width:8.5px;"/>
            </g>
            <g transform="matrix(1,0,0,1,0.0551181,0)">
                <path d="M673.228,496.063L744.094,496.063L708.661,496.063L673.228,437.008L744.094,437.008L708.661,496.063" style="fill:rgb(52,101,164);stroke:rgb(52,101,164);stroke-width:8.5px;"/>
            </g>
        </g>
        <g transform="matrix(1,0,0,0.909091,0,499.284)">
            <path d="M2645.67,1594.49L2645.67,1464.57" style="fill:none;stroke:rgb(52,101,164);stroke-width:4.36px;"/>
        </g>
        <g transform="matrix(1,0,0,2.60067,0,-1903.65)">
            <path d="M2669.29,1429.13L2669.29,1488.19" style="fill:none;stroke:rgb(52,101,164);stroke-width:2.11px;"/>
        </g>
        <g transform="matrix(1,0,0,1,0,354.331)">
            <path d="M2669.29,1476.38L2716.53,1476.38L2716.53,1417.32" style="fill:none;stroke:rgb(52,101,164);stroke-width:4.17px;"/>
        </g>
        <g transform="matrix(1,0,0,1,0,354.331)">
            <path d="M2669.29,1594.49L2716.53,1594.49L2716.53,1653.54" style="fill:none;stroke:rgb(52,101,164);stroke-width:4.17px;"/>
        </g>
        <g transform="matrix(1,0,0,1,0,354.331)">
            <path d="M2669.29,1535.43L2716.53,1535.43L2716.53,1594.49" style="fill:none;stroke:rgb(52,101,164);stroke-width:4.17px;"/>
        </g>
        <g transform="matrix(1,0,0,1,0,354.331)">
            <path d="M2716.53,1476.38L2751.97,1476.38" style="fill:none;stroke:rgb(52,101,164);stroke-width:4.17px;"/>
        </g>
        <g transform="matrix(1,0,0,1,0,354.331)">
            <path d="M2716.53,1594.49L2751.97,1594.49" style="fill:none;stroke:rgb(52,101,164);stroke-width:4.17px;"/>
        </g>
    </g>
    <g id="tran-mos-dep-n1" serif:id="tran-mos-dep-n" transform="matrix(-6.12323e-17,-1,-1,6.12323e-17,2539.37,2870.08)">
        <g transform="matrix(1,0,0,1,826.772,649.606)">
            <path d="M1771.65,1299.21L1818.9,1299.21" style="fill:none;stroke:rgb(52,101,164);stroke-width:4.25px;"/>
        </g>
        <g transform="matrix(0,1,1,0,1299.21,70.8661)">
            <path d="M1818.9,1370.08L1830.71,1393.7L1807.09,1393.7L1818.9,1370.08Z" style="fill:rgb(52,101,164);"/>
            <path d="M1818.9,1370.08L1830.71,1393.7L1807.09,1393.7L1818.9,1370.08ZM1818.9,1379.58L1823.83,1389.45C1823.83,1389.45 1813.96,1389.45 1813.96,1389.45L1818.9,1379.58Z" style="fill:rgb(52,101,164);"/>
        </g>
        <g id="diode-general1" serif:id="diode-general" transform="matrix(0.5,0,0,-0.5,2397.61,2125.98)">
            <g transform="matrix(1,0,0,1,0.0551181,0)">
                <path d="M708.661,354.331L708.661,590.551" style="fill:none;stroke:rgb(52,101,164);stroke-width:8.5px;"/>
            </g>
            <g transform="matrix(1,0,0,1,0.0551181,0)">
                <path d="M673.228,496.063L744.094,496.063L708.661,496.063L673.228,437.008L744.094,437.008L708.661,496.063" style="fill:rgb(52,101,164);stroke:rgb(52,101,164);stroke-width:8.5px;"/>
            </g>
        </g>
        <g transform="matrix(1,0,0,0.909091,0,499.284)">
            <path d="M2645.67,1594.49L2645.67,1464.57" style="fill:none;stroke:rgb(52,101,164);stroke-width:4.36px;"/>
        </g>
        <g transform="matrix(1,0,0,2.60067,0,-1903.65)">
            <path d="M2669.29,1429.13L2669.29,1488.19" style="fill:none;stroke:rgb(52,101,164);stroke-width:2.11px;"/>
        </g>
        <g transform="matrix(1,0,0,1,0,354.331)">
            <path d="M2669.29,1476.38L2716.53,1476.38L2716.53,1417.32" style="fill:none;stroke:rgb(52,101,164);stroke-width:4.17px;"/>
        </g>
        <g transform="matrix(1,0,0,1,0,354.331)">
            <path d="M2669.29,1594.49L2716.53,1594.49L2716.53,1653.54" style="fill:none;stroke:rgb(52,101,164);stroke-width:4.17px;"/>
        </g>
        <g transform="matrix(1,0,0,1,0,354.331)">
            <path d="M2669.29,1535.43L2716.53,1535.43L2716.53,1594.49" style="fill:none;stroke:rgb(52,101,164);stroke-width:4.17px;"/>
        </g>
        <g transform="matrix(1,0,0,1,0,354.331)">
            <path d="M2716.53,1476.38L2751.97,1476.38" style="fill:none;stroke:rgb(52,101,164);stroke-width:4.17px;"/>
        </g>
        <g transform="matrix(1,0,0,1,0,354.331)">
            <path d="M2716.53,1594.49L2751.97,1594.49" style="fill:none;stroke:rgb(52,101,164);stroke-width:4.17px;"/>
        </g>
    </g>
    <g transform="matrix(6.12323e-17,-1,1,6.12323e-17,-59.0551,507.874)">
        <path d="M354.331,354.331L354.331,401.575L330.709,413.386L377.953,437.008L330.709,460.63L377.953,484.252L330.709,507.874L377.953,531.496L354.331,543.307L354.331,590.551" style="fill:none;stroke:rgb(52,101,164);stroke-width:4.25px;"/>
    </g>
    <g transform="matrix(1,0,0,1,-295.276,-318.898)">
        <path d="M531.496,590.551L649.606,590.551L767.717,531.496L826.772,531.496L826.772,472.441" style="fill:none;stroke:rgb(52,101,164);stroke-width:4.17px;"/>
    </g>
    <g transform="matrix(1,0,0,1,-295.276,-318.898)">
        <path d="M885.827,590.551L767.717,590.551L649.606,531.496L590.551,531.496L590.551,472.441" style="fill:none;stroke:rgb(52,101,164);stroke-width:4.17px;"/>
    </g>
    <g id="connection-inside" transform="matrix(1,0,0,1,-188.976,-543.307)">
        <circle cx="484.252" cy="696.85" r="11.811" style="fill:rgb(52,101,164);"/>
    </g>
    <g id="connection-inside1" serif:id="connection-inside" transform="matrix(1,0,0,1,47.2441,-543.307)">
        <circle cx="484.252" cy="696.85" r="11.811" style="fill:rgb(52,101,164);"/>
    </g>
    <g id="terminal-inside" transform="matrix(1,0,0,1,-496.063,-566.929)">
        <path d="M543.307,708.717C549.826,708.717 555.118,713.997 555.118,720.5C555.118,727.004 549.826,732.283 543.307,732.283C536.788,732.283 531.496,727.004 531.496,720.5C531.496,713.997 536.788,708.717 543.307,708.717ZM543.307,712.966C547.478,712.966 550.869,716.339 550.869,720.5C550.869,724.661 547.478,728.034 543.307,728.034C539.136,728.034 535.745,724.661 535.745,720.5C535.745,716.339 539.136,712.966 543.307,712.966Z" style="fill:rgb(52,101,164);"/>
    </g>
    <g id="terminal-inside1" serif:id="terminal-inside" transform="matrix(1,0,0,1,236.22,-566.929)">
        <path d="M543.307,708.717C549.826,708.717 555.118,713.997 555.118,720.5C555.118,727.004 549.826,732.283 543.307,732.283C536.788,732.283 531.496,727.004 531.496,720.5C531.496,713.997 536.788,708.717 543.307,708.717ZM543.307,712.966C547.478,712.966 550.869,716.339 550.869,720.5C550.869,724.661 547.478,728.034 543.307,728.034C539.136,728.034 535.745,724.661 535.745,720.5C535.745,716.339 539.136,712.966 543.307,712.966Z" style="fill:rgb(52,101,164);"/>
    </g>
    <g transform="matrix(1,0,0,1,-304.664,-158.543)">
        <text x="677.227px" y="258.937px" style="font-family:'TimesNewRomanPSMT', 'Times New Roman', serif;font-size:41.667px;fill:rgb(234,117,0);">1kΩ</text>
    </g>
    <g transform="matrix(1,0,0,1,-283.313,-215.497)">
        <text x="677.227px" y="258.937px" style="font-family:'TimesNewRomanPSMT', 'Times New Roman', serif;font-size:41.667px;fill:rgb(234,117,0);">R</text>
        <text x="705.019px" y="272.812px" style="font-family:'TimesNewRomanPSMT', 'Times New Roman', serif;font-size:24.292px;fill:rgb(234,117,0);">S</text>
    </g>
    <g transform="matrix(1,0,0,1,-454.166,52.213)">
        <text x="677.227px" y="258.937px" style="font-family:'TimesNewRomanPSMT', 'Times New Roman', serif;font-size:33.333px;fill:rgb(52,101,164);">G</text>
    </g>
    <g transform="matrix(1,0,0,1,-394.935,-129.015)">
        <text x="677.227px" y="258.937px" style="font-family:'TimesNewRomanPSMT', 'Times New Roman', serif;font-size:33.333px;fill:rgb(52,101,164);">S</text>
    </g>
    <g transform="matrix(1,0,0,1,-150.668,-129.015)">
        <text x="677.227px" y="258.937px" style="font-family:'TimesNewRomanPSMT', 'Times New Roman', serif;font-size:33.333px;fill:rgb(52,101,164);">S</text>
    </g>
    <g transform="matrix(1,0,0,1,-596.633,-129.015)">
        <text x="677.227px" y="258.937px" style="font-family:'TimesNewRomanPSMT', 'Times New Roman', serif;font-size:33.333px;fill:rgb(52,101,164);">D</text>
    </g>
    <g transform="matrix(1,0,0,1,55.8755,-128.511)">
        <text x="677.227px" y="258.937px" style="font-family:'TimesNewRomanPSMT', 'Times New Roman', serif;font-size:33.333px;fill:rgb(52,101,164);">D</text>
    </g>
    <g transform="matrix(1,0,0,1,-99.6589,52.213)">
        <text x="677.227px" y="258.937px" style="font-family:'TimesNewRomanPSMT', 'Times New Roman', serif;font-size:33.333px;fill:rgb(52,101,164);">G</text>
    </g>
    <g transform="matrix(1,0,0,1,-581.332,17.3134)">
        <text x="677.227px" y="258.937px" style="font-family:'TimesNewRomanPSMT', 'Times New Roman', serif;font-size:41.667px;fill:rgb(234,117,0);">Q1</text>
    </g>
    <g transform="matrix(1,0,0,1,-626.886,73.7549)">
        <text x="677.227px" y="258.937px" style="font-family:'TimesNewRomanPSMT', 'Times New Roman', serif;font-size:41.667px;fill:rgb(234,117,0);">BSP149</text>
    </g>
    <g transform="matrix(1,0,0,1,-59.9572,76.3685)">
        <text x="677.227px" y="258.937px" style="font-family:'TimesNewRomanPSMT', 'Times New Roman', serif;font-size:41.667px;fill:rgb(234,117,0);">BSP149</text>
    </g>
    <g transform="matrix(1,0,0,1,-17.7601,17.3134)">
        <text x="677.227px" y="258.937px" style="font-family:'TimesNewRomanPSMT', 'Times New Roman', serif;font-size:41.667px;fill:rgb(234,117,0);">Q2</text>
    </g>
</svg>
