<?xml version="1.0" encoding="UTF-8" standalone="no"?>
<!DOCTYPE svg PUBLIC "-//W3C//DTD SVG 1.1//EN" "http://www.w3.org/Graphics/SVG/1.1/DTD/svg11.dtd">
<svg width="100%" height="100%" viewBox="0 0 945 473" version="1.1" xmlns="http://www.w3.org/2000/svg" xmlns:xlink="http://www.w3.org/1999/xlink" xml:space="preserve" xmlns:serif="http://www.serif.com/" style="fill-rule:evenodd;clip-rule:evenodd;stroke-linecap:round;stroke-linejoin:round;stroke-miterlimit:1.5;">
    <g id="tran-mos-enh-n" transform="matrix(1,0,0,1,-2376.97,-1299.21)">
        <g transform="matrix(1,0,0,1,826.772,295.276)">
            <path d="M1771.65,1299.21L1818.9,1299.21" style="fill:none;stroke:rgb(52,101,164);stroke-width:4.25px;"/>
        </g>
        <g transform="matrix(0,1,1,0,1299.21,-283.465)">
            <path d="M1818.9,1370.08L1830.71,1393.7L1807.09,1393.7L1818.9,1370.08Z" style="fill:rgb(52,101,164);"/>
            <path d="M1818.9,1370.08L1830.71,1393.7L1807.09,1393.7L1818.9,1370.08ZM1818.9,1379.58L1813.96,1389.45C1813.96,1389.45 1823.83,1389.45 1823.83,1389.45L1818.9,1379.58Z" style="fill:rgb(52,101,164);"/>
        </g>
        <g id="diode-general" transform="matrix(0.5,0,0,-0.5,2397.61,1771.65)">
            <g transform="matrix(1,0,0,1,0.0551181,0)">
                <path d="M708.661,354.331L708.661,590.551" style="fill:none;stroke:rgb(52,101,164);stroke-width:8.5px;"/>
            </g>
            <g transform="matrix(1,0,0,1,0.0551181,0)">
                <path d="M673.228,496.063L744.094,496.063L708.661,496.063L673.228,437.008L744.094,437.008L708.661,496.063" style="fill:rgb(52,101,164);stroke:rgb(52,101,164);stroke-width:8.5px;"/>
            </g>
        </g>
        <g transform="matrix(1,0,0,0.909091,0,144.953)">
            <path d="M2645.67,1594.49L2645.67,1464.57" style="fill:none;stroke:rgb(52,101,164);stroke-width:4.36px;"/>
        </g>
        <g transform="matrix(1,0,0,0.6,0,601.181)">
            <path d="M2669.29,1429.13L2669.29,1488.19" style="fill:none;stroke:rgb(52,101,164);stroke-width:5.05px;"/>
        </g>
        <g transform="matrix(1,0,0,0.6,0,719.291)">
            <path d="M2669.29,1429.13L2669.29,1488.19" style="fill:none;stroke:rgb(52,101,164);stroke-width:5.05px;"/>
        </g>
        <g transform="matrix(1,0,0,0.6,0,660.236)">
            <path d="M2669.29,1429.13L2669.29,1488.19" style="fill:none;stroke:rgb(52,101,164);stroke-width:5.05px;"/>
        </g>
        <path d="M2669.29,1476.38L2716.53,1476.38L2716.53,1417.32" style="fill:none;stroke:rgb(52,101,164);stroke-width:4.17px;"/>
        <path d="M2669.29,1594.49L2716.53,1594.49L2716.53,1653.54" style="fill:none;stroke:rgb(52,101,164);stroke-width:4.17px;"/>
        <path d="M2669.29,1535.43L2716.53,1535.43L2716.53,1594.49" style="fill:none;stroke:rgb(52,101,164);stroke-width:4.17px;"/>
        <path d="M2716.53,1476.38L2751.97,1476.38" style="fill:none;stroke:rgb(52,101,164);stroke-width:4.17px;"/>
        <path d="M2716.53,1594.49L2751.97,1594.49" style="fill:none;stroke:rgb(52,101,164);stroke-width:4.17px;"/>
    </g>
    <g id="tran-mos-enh-p" transform="matrix(1,0,0,1,-2338.58,-1299.21)">
        <g transform="matrix(1,0,0,1,1062.99,295.276)">
            <path d="M1771.65,1299.21L1818.9,1299.21" style="fill:none;stroke:rgb(52,101,164);stroke-width:4.25px;"/>
        </g>
        <g transform="matrix(0,1,-1,0,4322.83,-283.465)">
            <path d="M1818.9,1370.08L1830.71,1393.7L1807.09,1393.7L1818.9,1370.08Z" style="fill:rgb(52,101,164);"/>
            <path d="M1818.9,1370.08L1830.71,1393.7L1807.09,1393.7L1818.9,1370.08ZM1818.9,1379.58L1823.83,1389.45C1823.83,1389.45 1813.96,1389.45 1813.96,1389.45L1818.9,1379.58Z" style="fill:rgb(52,101,164);"/>
        </g>
        <g id="diode-general1" serif:id="diode-general" transform="matrix(0.5,0,0,0.5,2633.83,1299.21)">
            <g transform="matrix(1,0,0,1,0.0551181,0)">
                <path d="M708.661,354.331L708.661,590.551" style="fill:none;stroke:rgb(52,101,164);stroke-width:8.5px;"/>
            </g>
            <g transform="matrix(1,0,0,1,0.0551181,0)">
                <path d="M673.228,496.063L744.094,496.063L708.661,496.063L673.228,437.008L744.094,437.008L708.661,496.063" style="fill:rgb(52,101,164);stroke:rgb(52,101,164);stroke-width:8.5px;"/>
            </g>
        </g>
        <g transform="matrix(1,0,0,0.909091,236.22,144.953)">
            <path d="M2645.67,1594.49L2645.67,1464.57" style="fill:none;stroke:rgb(52,101,164);stroke-width:4.36px;"/>
        </g>
        <g transform="matrix(1,0,0,0.6,236.22,601.181)">
            <path d="M2669.29,1429.13L2669.29,1488.19" style="fill:none;stroke:rgb(52,101,164);stroke-width:5.05px;"/>
        </g>
        <g transform="matrix(1,0,0,0.6,236.22,719.291)">
            <path d="M2669.29,1429.13L2669.29,1488.19" style="fill:none;stroke:rgb(52,101,164);stroke-width:5.05px;"/>
        </g>
        <g transform="matrix(1,0,0,0.6,236.22,660.236)">
            <path d="M2669.29,1429.13L2669.29,1488.19" style="fill:none;stroke:rgb(52,101,164);stroke-width:5.05px;"/>
        </g>
        <g transform="matrix(1,0,0,1,236.22,-6.82121e-13)">
            <path d="M2669.29,1476.38L2716.53,1476.38L2716.53,1417.32" style="fill:none;stroke:rgb(52,101,164);stroke-width:4.17px;"/>
        </g>
        <g transform="matrix(1,0,0,1,236.22,-6.82121e-13)">
            <path d="M2669.29,1594.49L2716.53,1594.49L2716.53,1653.54" style="fill:none;stroke:rgb(52,101,164);stroke-width:4.17px;"/>
        </g>
        <g transform="matrix(1,0,0,1,236.22,-6.82121e-13)">
            <path d="M2669.29,1535.43L2716.53,1535.43L2716.53,1594.49" style="fill:none;stroke:rgb(52,101,164);stroke-width:4.17px;"/>
        </g>
        <g transform="matrix(1,0,0,1,236.22,-6.82121e-13)">
            <path d="M2716.53,1476.38L2751.97,1476.38" style="fill:none;stroke:rgb(52,101,164);stroke-width:4.17px;"/>
        </g>
        <g transform="matrix(1,0,0,1,236.22,-6.82121e-13)">
            <path d="M2716.53,1594.49L2751.97,1594.49" style="fill:none;stroke:rgb(52,101,164);stroke-width:4.17px;"/>
        </g>
    </g>
    <g transform="matrix(1,0,0,1,-504.262,51.2518)">
        <text x="677.227px" y="258.937px" style="font-family:'ArialMT', 'Arial', sans-serif;font-size:41.667px;fill:rgb(52,101,164);">G</text>
    </g>
    <g transform="matrix(1,0,0,1,-222.781,48.1499)">
        <text x="677.227px" y="258.937px" style="font-family:'ArialMT', 'Arial', sans-serif;font-size:41.667px;fill:rgb(52,101,164);">G</text>
    </g>
    <g transform="matrix(1,0,0,1,-324.889,113.917)">
        <text x="677.227px" y="258.937px" style="font-family:'ArialMT', 'Arial', sans-serif;font-size:41.667px;fill:rgb(52,101,164);">S</text>
    </g>
    <g transform="matrix(1,0,0,1,-53.2353,113.917)">
        <text x="677.227px" y="258.937px" style="font-family:'ArialMT', 'Arial', sans-serif;font-size:41.667px;fill:rgb(52,101,164);">S</text>
    </g>
    <g transform="matrix(1,0,0,1,-324.889,-129.015)">
        <text x="677.227px" y="258.937px" style="font-family:'ArialMT', 'Arial', sans-serif;font-size:41.667px;fill:rgb(52,101,164);">D</text>
    </g>
    <g transform="matrix(1,0,0,1,-54.4575,-125.914)">
        <text x="677.227px" y="258.937px" style="font-family:'ArialMT', 'Arial', sans-serif;font-size:41.667px;fill:rgb(52,101,164);">D</text>
    </g>
    <g transform="matrix(1,0,0,1,-434.396,165.87)">
        <text x="677.227px" y="258.937px" style="font-family:'ArialMT', 'Arial', sans-serif;font-size:33.333px;fill:rgb(234,117,0);">N-channel</text>
    </g>
    <g transform="matrix(1,0,0,1,-620.711,-126.304)">
        <text x="677.227px" y="258.937px" style="font-family:'ArialMT', 'Arial', sans-serif;font-size:25px;fill:rgb(234,117,0);">Dashed line</text>
    </g>
    <g transform="matrix(1,0,0,1,29.5055,-117.112)">
        <text x="677.227px" y="258.937px" style="font-family:'ArialMT', 'Arial', sans-serif;font-size:25px;fill:rgb(234,117,0);">Internal body</text>
        <text x="718.914px" y="284.755px" style="font-family:'ArialMT', 'Arial', sans-serif;font-size:25px;fill:rgb(234,117,0);">diode</text>
    </g>
    <g transform="matrix(1,0,0,1,52.4648,33.8501)">
        <text x="707.806px" y="258.937px" style="font-family:'ArialMT', 'Arial', sans-serif;font-size:25px;fill:rgb(234,117,0);">Internal</text>
        <text x="666.125px" y="284.755px" style="font-family:'ArialMT', 'Arial', sans-serif;font-size:25px;fill:rgb(234,117,0);">body-to-source</text>
        <text x="689.038px" y="310.572px" style="font-family:'ArialMT', 'Arial', sans-serif;font-size:25px;fill:rgb(234,117,0);">connection</text>
    </g>
    <g transform="matrix(1,0,0,1,-368.604,-217.186)">
        <text x="677.227px" y="258.937px" style="font-family:'Arial-BoldMT', 'Arial', sans-serif;font-weight:700;font-size:33.333px;fill:rgb(234,117,0);">Enhancement-mode</text>
        <text x="759.039px" y="293.361px" style="font-family:'Arial-BoldMT', 'Arial', sans-serif;font-weight:700;font-size:33.333px;fill:rgb(234,117,0);">MOSFET<tspan x="895.448px " y="293.361px ">s</tspan></text>
    </g>
    <g transform="matrix(1,0,0,1,-153.592,165.87)">
        <text x="677.227px" y="258.937px" style="font-family:'ArialMT', 'Arial', sans-serif;font-size:33.333px;fill:rgb(234,117,0);">P-channel</text>
    </g>
    <g transform="matrix(1,0,0,1,-11.811,0)">
        <g transform="matrix(1,-0,-0,1,11.811,-0)">
            <path d="M273.089,158.572L283.465,167.935L269.749,170.618L273.089,158.572Z" style="fill:rgb(234,117,0);"/>
            <path d="M188.976,141.732C188.976,141.732 249.768,158.591 273.828,165.263" style="fill:none;stroke:rgb(234,117,0);stroke-width:2.08px;"/>
        </g>
    </g>
    <g transform="matrix(1,0,0,1,519.685,13.1015)">
        <g transform="matrix(1,-0,-0,1,-519.685,-13.1015)">
            <path d="M674.922,203.441L661.417,207.037L666.643,194.075L674.922,203.441Z" style="fill:rgb(234,117,0);"/>
            <path d="M720.472,154.834C720.472,154.834 684.807,186.361 668.91,200.414" style="fill:none;stroke:rgb(234,117,0);stroke-width:2.08px;"/>
        </g>
    </g>
    <g transform="matrix(1,0,0,1,484.131,82.6772)">
        <g transform="matrix(1,-0,-0,1,-484.131,-82.6772)">
            <path d="M635.436,286.795L625.864,276.612L639.753,275.065L635.436,286.795Z" style="fill:rgb(234,117,0);"/>
            <path d="M708.661,307.087C708.661,307.087 656.93,288.047 635.248,280.066" style="fill:none;stroke:rgb(234,117,0);stroke-width:2.08px;"/>
        </g>
    </g>
</svg>
