<?xml version="1.0" encoding="UTF-8" standalone="no"?><!DOCTYPE svg PUBLIC "-//W3C//DTD SVG 1.1//EN" "http://www.w3.org/Graphics/SVG/1.1/DTD/svg11.dtd"><svg width="100%" height="100%" viewBox="0 0 1394 1004" version="1.1" xmlns="http://www.w3.org/2000/svg" xmlns:xlink="http://www.w3.org/1999/xlink" xml:space="preserve" xmlns:serif="http://www.serif.com/" style="fill-rule:evenodd;clip-rule:evenodd;stroke-linecap:round;stroke-linejoin:round;stroke-miterlimit:1.5;"><rect x="318.898" y="850.394" width="708.661" height="59.055" style="fill:none;stroke:#000;stroke-width:8.33px;"/><rect x="318.898" y="23.622" width="708.661" height="118.11" style="fill:none;stroke:#000;stroke-width:8.33px;"/><rect x="318.898" y="909.449" width="708.661" height="59.055" style="fill:#3129ff;stroke:#000;stroke-width:8.33px;"/><rect x="318.898" y="614.173" width="708.661" height="236.22" style="fill:#a200b3;stroke:#000;stroke-width:8.33px;"/><rect x="318.898" y="141.732" width="708.661" height="472.441" style="fill:#06a500;stroke:#000;stroke-width:8.33px;"/><g transform="matrix(50,0,0,50,1340.34,832.868)"></g><text x="1051.18px" y="832.868px" style="font-family:'ArialMT', 'Arial', sans-serif;font-size:50px;fill:#ea7500;">0x0000 8000</text><g transform="matrix(50,0,0,50,1348.54,667.514)"></g><text x="1051.18px" y="667.514px" style="font-family:'ArialMT', 'Arial', sans-serif;font-size:50px;fill:#ea7500;">0x0000 8FFF</text><g transform="matrix(50,0,0,50,1340.34,962.79)"></g><text x="1051.18px" y="962.79px" style="font-family:'ArialMT', 'Arial', sans-serif;font-size:50px;fill:#ea7500;">0x0000 4000</text><g transform="matrix(1.5625,0,0,1.5625,-838.583,123.92)"><text x="559.968px" y="456.545px" style="font-family:'ArialMT', 'Arial', sans-serif;font-size:21.333px;fill:#ea7500;">Reset vector</text><text x="562.936px" y="478.576px" style="font-family:'ArialMT', 'Arial', sans-serif;font-size:21.333px;fill:#ea7500;">immediately</text><text x="579.53px" y="500.607px" style="font-family:'ArialMT', 'Arial', sans-serif;font-size:21.333px;fill:#ea7500;">jumps to</text><g transform="matrix(21.3333,0,0,21.3333,670.254,522.638)"></g><text x="569.431px" y="522.638px" style="font-family:'ArialMT', 'Arial', sans-serif;font-size:21.333px;fill:#ea7500;">bootloader</text></g><g transform="matrix(1.5625,0,0,1.5625,-826.772,-112.396)"><text x="568.249px" y="446.147px" style="font-family:'ArialMT', 'Arial', sans-serif;font-size:21.333px;fill:#ea7500;">Bootloader</text><text x="571.811px" y="468.179px" style="font-family:'ArialMT', 'Arial', sans-serif;font-size:21.333px;fill:#ea7500;">eventually</text><text x="579.53px" y="490.21px" style="font-family:'ArialMT', 'Arial', sans-serif;font-size:21.333px;fill:#ea7500;">jumps to</text><g transform="matrix(21.3333,0,0,21.3333,670.843,512.241)"></g><text x="568.843px" y="512.241px" style="font-family:'ArialMT', 'Arial', sans-serif;font-size:21.333px;fill:#ea7500;">application</text></g><g transform="matrix(50,0,0,50,1340.34,596.648)"></g><text x="1051.18px" y="596.648px" style="font-family:'ArialMT', 'Arial', sans-serif;font-size:50px;fill:#ea7500;">0x0000 9000</text><g transform="matrix(50,0,0,50,1340.34,195.073)"></g><text x="1051.18px" y="195.073px" style="font-family:'ArialMT', 'Arial', sans-serif;font-size:50px;fill:#ea7500;">0x0004 9000</text><g transform="matrix(50,0,0,50,1359.48,65.1518)"></g><text x="1051.18px" y="65.152px" style="font-family:'ArialMT', 'Arial', sans-serif;font-size:50px;fill:#ea7500;">0x0FFF FFFF</text><g transform="matrix(41.6667,0,0,41.6667,792.501,953.899)"></g><text x="553.955px" y="953.899px" style="font-family:'ArialMT', 'Arial', sans-serif;font-size:41.667px;fill:#fff;">Reset V<tspan x="699.87px 723.043px " y="953.899px 953.899px ">ec</tspan>tor</text><g transform="matrix(41.6667,0,0,41.6667,846.934,747.207)"></g><text x="499.522px" y="747.207px" style="font-family:'ArialMT', 'Arial', sans-serif;font-size:41.667px;fill:#fff;">Bootloader (16 kB)</text><g transform="matrix(41.6667,0,0,41.6667,859.67,392.876)"></g><text x="486.786px" y="392.876px" style="font-family:'ArialMT', 'Arial', sans-serif;font-size:41.667px;fill:#fff;">Application (256 kB)</text><path d="M316.641,804.399l25.879,10.562l-23.977,14.365l-1.902,-24.927Z" style="fill:#ea7500;"/><path d="M343.796,938.976c-48.074,-12.719 -84.658,-13.8 -83.953,-64.96c0.609,-44.263 31.405,-54.186 62.735,-57.534" style="fill:none;stroke:#ea7500;stroke-width:8.33px;"/><path d="M315.365,553.414l25.878,10.562l-23.977,14.366l-1.901,-24.928Z" style="fill:#ea7500;"/><path d="M342.52,687.992c-48.075,-12.719 -84.659,-13.8 -83.954,-64.961c0.61,-44.262 31.406,-54.185 62.735,-57.533" style="fill:none;stroke:#ea7500;stroke-width:8.33px;"/></svg>