<?xml version="1.0" encoding="UTF-8" standalone="no"?>
<!DOCTYPE svg PUBLIC "-//W3C//DTD SVG 1.1//EN" "http://www.w3.org/Graphics/SVG/1.1/DTD/svg11.dtd">
<svg width="100%" height="100%" viewBox="0 0 1182 237" version="1.1" xmlns="http://www.w3.org/2000/svg" xmlns:xlink="http://www.w3.org/1999/xlink" xml:space="preserve" xmlns:serif="http://www.serif.com/" style="fill-rule:evenodd;clip-rule:evenodd;stroke-linecap:round;stroke-linejoin:round;stroke-miterlimit:1.5;">
    <g transform="matrix(6.12323e-17,-1,1,6.12323e-17,-236.22,746.772)">
        <path d="M590.551,354.331L590.551,448.819" style="fill:none;stroke:rgb(52,101,164);stroke-width:4.25px;"/>
        <path d="M543.307,448.819L637.795,448.819" style="fill:none;stroke:rgb(52,101,164);stroke-width:4.25px;"/>
        <path d="M543.307,496.063L637.795,496.063" style="fill:none;stroke:rgb(52,101,164);stroke-width:4.25px;"/>
        <path d="M590.551,496.063L590.551,590.551" style="fill:none;stroke:rgb(52,101,164);stroke-width:4.25px;"/>
    </g>
    <g transform="matrix(6.12323e-17,-1,1,6.12323e-17,377.953,746.744)">
        <path d="M590.551,354.331L590.551,448.819" style="fill:none;stroke:rgb(52,101,164);stroke-width:4.25px;"/>
        <path d="M543.307,448.819L637.795,448.819" style="fill:none;stroke:rgb(52,101,164);stroke-width:4.25px;"/>
        <path d="M543.307,496.063L637.795,496.063" style="fill:none;stroke:rgb(52,101,164);stroke-width:4.25px;"/>
        <path d="M590.551,496.063L590.551,590.551" style="fill:none;stroke:rgb(52,101,164);stroke-width:4.25px;"/>
    </g>
    <g transform="matrix(6.12323e-17,-1,1,6.12323e-17,-59.0551,746.772)">
        <path d="M590.551,354.331L590.551,448.819" style="fill:none;stroke:rgb(52,101,164);stroke-width:4.25px;"/>
        <path d="M543.307,448.819L637.795,448.819" style="fill:none;stroke:rgb(52,101,164);stroke-width:4.25px;"/>
        <path d="M543.307,496.063L637.795,496.063" style="fill:none;stroke:rgb(52,101,164);stroke-width:4.25px;"/>
        <path d="M590.551,496.063L590.551,590.551" style="fill:none;stroke:rgb(52,101,164);stroke-width:4.25px;"/>
    </g>
    <g transform="matrix(2.8676,0,0,2.8676,-1549.79,-1112.67)">
        <text x="744.686px" y="460.909px" style="font-family:'ArialMT', 'Arial', sans-serif;font-size:50px;fill:rgb(234,117,0);">=</text>
    </g>
    <g transform="matrix(1,0,0,1,-472.121,-172.614)">
        <text x="677.227px" y="258.937px" style="font-family:'ArialMT', 'Arial', sans-serif;font-size:50px;fill:rgb(234,117,0);">C1</text>
    </g>
    <g transform="matrix(1,0,0,1,-295.726,-172.614)">
        <text x="677.227px" y="258.937px" style="font-family:'ArialMT', 'Arial', sans-serif;font-size:50px;fill:rgb(234,117,0);">C2</text>
    </g>
    <g transform="matrix(1,0,0,1,-1.13687e-13,-564.252)">
        <path d="M543.307,708.717C549.826,708.717 555.118,713.997 555.118,720.5C555.118,727.004 549.826,732.283 543.307,732.283C536.788,732.283 531.496,727.004 531.496,720.5C531.496,713.997 536.788,708.717 543.307,708.717ZM543.307,712.966C547.478,712.966 550.869,716.339 550.869,720.5C550.869,724.661 547.478,728.034 543.307,728.034C539.136,728.034 535.745,724.661 535.745,720.5C535.745,716.339 539.136,712.966 543.307,712.966Z" style="fill:rgb(52,101,164);"/>
    </g>
    <g transform="matrix(1,0,0,1,-437.008,-564.308)">
        <path d="M543.307,708.717C549.826,708.717 555.118,713.997 555.118,720.5C555.118,727.004 549.826,732.283 543.307,732.283C536.788,732.283 531.496,727.004 531.496,720.5C531.496,713.997 536.788,708.717 543.307,708.717ZM543.307,712.966C547.478,712.966 550.869,716.339 550.869,720.5C550.869,724.661 547.478,728.034 543.307,728.034C539.136,728.034 535.745,724.661 535.745,720.5C535.745,716.339 539.136,712.966 543.307,712.966Z" style="fill:rgb(52,101,164);"/>
    </g>
    <g transform="matrix(1,0,0,1,177.165,-564.336)">
        <path d="M543.307,708.717C549.826,708.717 555.118,713.997 555.118,720.5C555.118,727.004 549.826,732.283 543.307,732.283C536.788,732.283 531.496,727.004 531.496,720.5C531.496,713.997 536.788,708.717 543.307,708.717ZM543.307,712.966C547.478,712.966 550.869,716.339 550.869,720.5C550.869,724.661 547.478,728.034 543.307,728.034C539.136,728.034 535.745,724.661 535.745,720.5C535.745,716.339 539.136,712.966 543.307,712.966Z" style="fill:rgb(52,101,164);"/>
    </g>
    <g transform="matrix(1,0,0,1,437.008,-564.252)">
        <path d="M543.307,708.717C549.826,708.717 555.118,713.997 555.118,720.5C555.118,727.004 549.826,732.283 543.307,732.283C536.788,732.283 531.496,727.004 531.496,720.5C531.496,713.997 536.788,708.717 543.307,708.717ZM543.307,712.966C547.478,712.966 550.869,716.339 550.869,720.5C550.869,724.661 547.478,728.034 543.307,728.034C539.136,728.034 535.745,724.661 535.745,720.5C535.745,716.339 539.136,712.966 543.307,712.966Z" style="fill:rgb(52,101,164);"/>
    </g>
    <g transform="matrix(1,0,0,1,555.622,-234.316)">
        <text x="119.265px" y="315.682px" style="font-family:'ArialMT', 'Arial', sans-serif;font-size:50px;fill:rgb(234,117,0);">1 / (1/C1 + 1/C2)</text>
    </g>
</svg>
