<?xml version="1.0" encoding="UTF-8" standalone="no"?>
<!DOCTYPE svg PUBLIC "-//W3C//DTD SVG 1.1//EN" "http://www.w3.org/Graphics/SVG/1.1/DTD/svg11.dtd">
<svg width="100%" height="100%" viewBox="0 0 591 473" version="1.1" xmlns="http://www.w3.org/2000/svg" xmlns:xlink="http://www.w3.org/1999/xlink" xml:space="preserve" xmlns:serif="http://www.serif.com/" style="fill-rule:evenodd;clip-rule:evenodd;stroke-linecap:round;stroke-linejoin:round;stroke-miterlimit:1.5;">
    <g transform="matrix(1,0,0,1,-574.703,-1192.91)">
        <path d="M885.827,1287.4C892.345,1287.4 897.638,1292.69 897.638,1299.21C897.638,1305.73 892.345,1311.02 885.827,1311.02C879.308,1311.02 874.016,1305.73 874.016,1299.21C874.016,1292.69 879.308,1287.4 885.827,1287.4ZM885.827,1291.65C890,1291.65 893.389,1295.04 893.389,1299.21C893.389,1303.39 890,1306.77 885.827,1306.77C881.653,1306.77 878.265,1303.39 878.265,1299.21C878.265,1295.04 881.653,1291.65 885.827,1291.65Z" style="fill:rgb(52,101,164);"/>
    </g>
    <g transform="matrix(1.25899,0,0,1,-844.341,-1370.08)">
        <path d="M826.772,1440.94L767.717,1440.94" style="fill:none;stroke:black;stroke-width:3.74px;"/>
    </g>
    <g transform="matrix(1.25899,0,0,1,-844.341,-1370.08)">
        <path d="M826.772,1511.81L767.717,1511.81" style="fill:none;stroke:black;stroke-width:3.74px;"/>
    </g>
    <g transform="matrix(0.600933,0,0,1,-244.876,-1370.08)">
        <path d="M944.882,1476.38L1003.94,1476.38" style="fill:none;stroke:rgb(242,13,13);stroke-width:5.15px;"/>
    </g>
    <g transform="matrix(1,0,0,1,-645.514,-1606.3)">
        <path d="M826.772,1653.54C908.072,1653.82 944.882,1712.6 944.882,1712.6" style="fill:none;stroke:rgb(52,101,164);stroke-width:4.25px;"/>
    </g>
    <g transform="matrix(1,0,0,-1,-645.514,1818.9)">
        <path d="M826.772,1653.54C908.072,1653.82 944.882,1712.6 944.882,1712.6" style="fill:none;stroke:rgb(52,101,164);stroke-width:4.25px;"/>
    </g>
    <g transform="matrix(1,0,0,1,-645.514,-1606.3)">
        <path d="M826.772,1653.54C836.801,1665.59 850.394,1689.75 850.394,1712.6" style="fill:none;stroke:rgb(52,101,164);stroke-width:4.25px;"/>
    </g>
    <g transform="matrix(1,0,0,-1,-645.514,1818.9)">
        <path d="M826.772,1653.54C836.801,1665.59 850.394,1689.75 850.394,1712.6" style="fill:none;stroke:rgb(52,101,164);stroke-width:4.25px;"/>
    </g>
    <g transform="matrix(1,0,0,1,-574.703,-933.071)">
        <path d="M885.827,1287.4C892.345,1287.4 897.638,1292.69 897.638,1299.21C897.638,1305.73 892.345,1311.02 885.827,1311.02C879.308,1311.02 874.016,1305.73 874.016,1299.21C874.016,1292.69 879.308,1287.4 885.827,1287.4ZM885.827,1291.65C890,1291.65 893.389,1295.04 893.389,1299.21C893.389,1303.39 890,1306.77 885.827,1306.77C881.653,1306.77 878.265,1303.39 878.265,1299.21C878.265,1295.04 881.653,1291.65 885.827,1291.65Z" style="fill:rgb(52,101,164);"/>
    </g>
    <g transform="matrix(1.25899,0,0,1,-844.341,-1110.24)">
        <path d="M826.772,1440.94L767.717,1440.94" style="fill:none;stroke:rgb(242,13,13);stroke-width:3.74px;"/>
    </g>
    <g transform="matrix(1.25899,0,0,1,-844.341,-1110.24)">
        <path d="M826.772,1511.81L767.717,1511.81" style="fill:none;stroke:rgb(242,13,13);stroke-width:3.74px;"/>
    </g>
    <g transform="matrix(0.600933,0,0,1,-244.876,-1110.24)">
        <path d="M944.882,1476.38L1003.94,1476.38" style="fill:none;stroke:black;stroke-width:5.15px;"/>
    </g>
    <g transform="matrix(1,0,0,1,-645.514,-1346.46)">
        <path d="M826.772,1653.54C908.072,1653.82 944.882,1712.6 944.882,1712.6" style="fill:none;stroke:rgb(52,101,164);stroke-width:4.25px;"/>
    </g>
    <g transform="matrix(1,0,0,-1,-645.514,2078.74)">
        <path d="M826.772,1653.54C908.072,1653.82 944.882,1712.6 944.882,1712.6" style="fill:none;stroke:rgb(52,101,164);stroke-width:4.25px;"/>
    </g>
    <g transform="matrix(1,0,0,1,-645.514,-1346.46)">
        <path d="M826.772,1653.54C836.801,1665.59 850.394,1689.75 850.394,1712.6" style="fill:none;stroke:rgb(52,101,164);stroke-width:4.25px;"/>
    </g>
    <g transform="matrix(1,0,0,-1,-645.514,2078.74)">
        <path d="M826.772,1653.54C836.801,1665.59 850.394,1689.75 850.394,1712.6" style="fill:none;stroke:rgb(52,101,164);stroke-width:4.25px;"/>
    </g>
    <g transform="matrix(1,0,0,1,-350.238,-141.732)">
        <path d="M472.441,283.465L472.441,342.52L566.929,342.52L744.094,472.441" style="fill:none;stroke:black;stroke-width:4.17px;"/>
    </g>
    <g transform="matrix(1,0,0,1,-350.238,-141.732)">
        <path d="M472.441,472.441L472.441,413.386L566.929,413.386L744.094,283.465" style="fill:none;stroke:rgb(242,13,13);stroke-width:4.17px;"/>
    </g>
    <g transform="matrix(1,0,0,1,-350.238,-141.732)">
        <path d="M708.661,248.031L791.339,248.031" style="fill:none;stroke:rgb(242,13,13);stroke-width:4.17px;"/>
    </g>
    <g transform="matrix(1,0,0,1,-350.238,-141.732)">
        <path d="M708.661,507.874L791.339,507.874" style="fill:none;stroke:black;stroke-width:4.17px;"/>
    </g>
    <g transform="matrix(1,0,0,1,-350.238,-141.732)">
        <path d="M744.094,283.465L744.094,248.031" style="fill:none;stroke:rgb(242,13,13);stroke-width:4.17px;"/>
    </g>
    <g transform="matrix(1,0,0,1,-350.238,-141.732)">
        <path d="M744.094,472.441L744.094,507.874" style="fill:none;stroke:black;stroke-width:4.17px;"/>
    </g>
    <g transform="matrix(1,0,0,1,-90.3955,-590.551)">
        <circle cx="484.252" cy="696.85" r="11.811" style="fill:rgb(242,13,13);stroke:rgb(242,13,13);stroke-width:4.25px;"/>
    </g>
    <g transform="matrix(1,0,0,1,-90.3955,-330.709)">
        <circle cx="484.252" cy="696.85" r="11.811" style="stroke:black;stroke-width:4.25px;"/>
    </g>
    <g transform="matrix(1,0,0,1,-90.3955,-614.229)">
        <path d="M543.307,708.717C549.826,708.717 555.118,713.997 555.118,720.5C555.118,727.004 549.826,732.283 543.307,732.283C536.788,732.283 531.496,727.004 531.496,720.5C531.496,713.997 536.788,708.717 543.307,708.717ZM543.307,712.966C547.478,712.966 550.869,716.339 550.869,720.5C550.869,724.661 547.478,728.034 543.307,728.034C539.136,728.034 535.745,724.661 535.745,720.5C535.745,716.339 539.136,712.966 543.307,712.966Z" style="fill:rgb(242,13,13);"/>
    </g>
    <g transform="matrix(1,0,0,1,-90.3955,-354.387)">
        <path d="M543.307,708.717C549.826,708.717 555.118,713.997 555.118,720.5C555.118,727.004 549.826,732.283 543.307,732.283C536.788,732.283 531.496,727.004 531.496,720.5C531.496,713.997 536.788,708.717 543.307,708.717ZM543.307,712.966C547.478,712.966 550.869,716.339 550.869,720.5C550.869,724.661 547.478,728.034 543.307,728.034C539.136,728.034 535.745,724.661 535.745,720.5C535.745,716.339 539.136,712.966 543.307,712.966Z"/>
    </g>
    <g transform="matrix(1,0,0,1,-432.915,-318.898)">
        <path d="M543.307,708.717C549.826,708.717 555.118,713.997 555.118,720.5C555.118,727.004 549.826,732.283 543.307,732.283C536.788,732.283 531.496,727.004 531.496,720.5C531.496,713.997 536.788,708.717 543.307,708.717ZM543.307,712.966C547.478,712.966 550.869,716.339 550.869,720.5C550.869,724.661 547.478,728.034 543.307,728.034C539.136,728.034 535.745,724.661 535.745,720.5C535.745,716.339 539.136,712.966 543.307,712.966Z" style="fill:rgb(242,13,13);"/>
    </g>
    <g transform="matrix(1,0,0,1,-432.915,-649.606)">
        <path d="M543.307,708.717C549.826,708.717 555.118,713.997 555.118,720.5C555.118,727.004 549.826,732.283 543.307,732.283C536.788,732.283 531.496,727.004 531.496,720.5C531.496,713.997 536.788,708.717 543.307,708.717ZM543.307,712.966C547.478,712.966 550.869,716.339 550.869,720.5C550.869,724.661 547.478,728.034 543.307,728.034C539.136,728.034 535.745,724.661 535.745,720.5C535.745,716.339 539.136,712.966 543.307,712.966Z"/>
    </g>
    <g transform="matrix(1.17864,0,0,1,-609.951,334.842)">
        <g transform="matrix(0.500232,0,0,0.499284,922.927,48.9298)">
            <text x="0px" y="0px" style="font-family:'CambriaMath', 'Cambria Math', serif;font-size:100px;fill:rgb(234,117,0);">𝑄</text>
        </g>
        <g transform="matrix(0.500232,0,0,0.499284,933.432,39.4435)">
            <g transform="matrix(100,0,0,100,0,0)">
                <rect x="0" y="-0.636" width="0.43" height="0.052" style="fill:rgb(234,117,0);fill-rule:nonzero;"/>
            </g>
        </g>
    </g>
    <g transform="matrix(1,0,0,1,-439.625,73.1764)">
        <g transform="matrix(0.500232,0,0,0.499284,922.927,47.432)">
            <text x="0px" y="0px" style="font-family:'CambriaMath', 'Cambria Math', serif;font-size:100px;fill:rgb(234,117,0);">𝑄</text>
        </g>
    </g>
    <g transform="matrix(0.500232,0,0,0.499284,49.9446,86.9409)">
        <text x="0px" y="0px" style="font-family:'CambriaMath', 'Cambria Math', serif;font-size:100px;fill:rgb(234,117,0);">𝑅</text>
    </g>
    <g transform="matrix(0.500232,0,0,0.499284,61.0255,418.201)">
        <text x="0px" y="0px" style="font-family:'CambriaMath', 'Cambria Math', serif;font-size:100px;fill:rgb(234,117,0);">𝑆</text>
    </g>
</svg>
